<svg width="260" height="48" viewBox="0 0 260 48" fill="none" xmlns="http://www.w3.org/2000/svg">
<path fill-rule="evenodd" clip-rule="evenodd" d="M4.49336 4.36375L4.49205 4.36504C2.70465 6.09742 1.77426 8.31425 1.29983 11.4532C0.821366 14.619 0.819362 18.6214 0.819362 23.8745C0.819362 29.1276 0.821364 33.1301 1.29984 36.2969C1.77427 39.4369 2.70474 41.6563 4.49271 43.3933C6.27603 45.1296 8.55869 46.0341 11.7899 46.495C15.0488 46.9597 19.1689 46.9618 24.5764 46.9618C29.9839 46.9618 34.1041 46.9597 37.3641 46.495C40.5964 46.0341 42.881 45.1302 44.6691 43.3933C46.4571 41.6562 47.3876 39.4389 47.8619 36.3001C48.3404 33.1344 48.3424 29.1319 48.3424 23.8745C48.3424 18.6171 48.3404 14.6146 47.8619 11.4489C47.3876 8.31015 46.4571 6.09276 44.6691 4.35574C42.8812 2.62315 40.5986 1.72145 37.3677 1.26167C34.1086 0.797899 29.9884 0.795962 24.5764 0.795962C19.1643 0.795962 15.0443 0.797909 11.7866 1.26271C8.55672 1.72354 6.27681 2.62728 4.49336 4.36375ZM45.2484 3.7929C49.1618 7.59447 49.1618 13.4051 49.1618 23.8745C49.1618 34.344 49.1618 40.1545 45.2484 43.9561C41.3351 47.7577 35.3448 47.7577 24.5764 47.7577C13.8081 47.7577 7.81775 47.7577 3.91333 43.9561C0 40.1545 0 34.3353 0 23.8745C0 13.4137 0 7.59447 3.91333 3.80157C7.81775 0 13.7992 0 24.5764 0C35.3537 0 41.3351 0 45.2484 3.7929Z" fill="#EFF0F7"/>
<path d="M23.5401 38.9686C21.8045 37.6676 20.5246 35.7266 20.1123 33.4657H14.515V9.68358C17.5306 11.1553 19.6785 14.4187 19.9389 17.7887L20.7849 24.4647L20.3727 24.4008C19.4616 24.4008 18.6805 25.2326 18.6805 26.0644C18.6805 26.8323 19.288 27.4935 20.069 27.6642L21.0887 27.8988C22.7808 24.7634 23.7355 21.692 23.7355 18.6632C23.7355 15.9331 23.3667 13.2242 23.3232 10.4514C23.3232 9.21433 23.8005 8.08388 24.5815 7.20938C25.3626 8.1052 25.8399 9.21433 25.8399 10.4514C25.8399 13.2242 25.4276 15.9543 25.4276 18.6632C25.4276 21.6707 26.3822 24.7634 28.0744 27.8988L29.0941 27.6642C29.8751 27.4935 30.4826 26.8323 30.4826 26.0644C30.4826 25.2326 29.7015 24.4008 28.7904 24.4008L28.3781 24.4647L29.2242 17.7887C29.6365 14.4187 31.6324 11.1553 34.6479 9.68358V33.4657H29.0506C28.6385 35.7052 27.4235 37.7316 25.6228 38.9686C25.2107 39.2672 24.8418 39.6298 24.6033 40.0992C24.3212 39.6085 23.9524 39.2672 23.5401 38.9686ZM17.1618 25.254C17.4005 24.358 18.0731 23.5903 18.8975 23.121L18.2248 17.618C17.9863 15.9117 17.2703 14.376 16.1856 13.1175V25.2326H17.1618V25.254ZM20.0039 31.802C20.0039 30.9702 20.1341 30.2023 20.3076 29.4345L19.5266 29.2639C18.3768 28.9013 17.4873 28.0267 17.1836 26.8963H16.2289V31.802H20.0039ZM23.7137 31.802C23.7137 30.7995 22.9327 29.9037 21.913 29.797C21.7395 30.437 21.6093 31.0982 21.6093 31.802H23.7137ZM23.7137 33.4657H21.848C22.1517 34.7668 22.8026 35.9398 23.7137 36.9637V33.4657ZM26.3605 28.3254C25.6446 27.0242 24.9721 25.6592 24.5598 24.2515C24.1476 25.6806 23.4751 27.0242 22.7591 28.3254C23.4751 28.496 24.0825 28.9652 24.5598 29.4985C25.0371 28.9652 25.6446 28.496 26.3605 28.3254ZM27.5103 31.802C27.5103 31.0982 27.3802 30.437 27.2066 29.797C26.1869 29.9251 25.4059 30.7995 25.4059 31.802H27.5103ZM27.2717 33.4657H25.4059V36.9637C26.3172 35.9398 26.968 34.7668 27.2717 33.4657ZM32.934 31.802V26.8963H31.9795C31.6758 28.0267 30.7863 28.9013 29.6365 29.2639L28.8554 29.4345C29.029 30.2023 29.1592 30.9702 29.1592 31.802H32.934ZM32.934 25.254V13.1389C31.8493 14.376 31.0683 15.9117 30.8948 17.6394L30.2222 23.1423C31.0683 23.6115 31.7192 24.3794 31.9578 25.2752H32.934V25.254Z" fill="#EFF0F7"/>
<path fill-rule="evenodd" clip-rule="evenodd" d="M81.7168 47.7682H81.7168H81.7167C70.9183 47.7682 64.9156 47.7682 60.995 43.9682C57.0745 40.1682 57.0745 34.3501 57.0745 23.8841C57.0745 13.418 57.0745 7.59986 60.995 3.79993C64.9156 0 70.9183 0 81.7168 0C92.5151 0 98.5178 0 102.438 3.79993C106.359 7.59986 106.359 13.4145 106.359 23.8841V23.8841V23.8841C106.359 34.3536 106.359 40.1682 102.438 43.9682C98.5178 47.7682 92.5151 47.7682 81.7168 47.7682ZM85.9868 30.2148C84.94 30.9022 83.6838 31.2458 82.2184 31.2458C80.2818 31.2458 78.6855 30.7058 77.4293 29.6258C76.1732 28.5458 75.4142 27.0484 75.1526 25.1338H85.2017V21.5992H75.2311C75.5975 19.8318 76.3825 18.4572 77.5863 17.4754C78.7901 16.4445 80.3342 15.929 82.2184 15.929C83.6838 15.929 84.94 16.2972 85.9868 17.0336C87.0859 17.7209 87.9233 18.7272 88.499 20.0528L92.817 18.6536C92.1367 16.5917 90.8281 14.9962 88.8916 13.8671C87.0074 12.738 84.783 12.1734 82.2184 12.1734C78.7116 12.1734 75.8592 13.229 73.6609 15.3399C71.515 17.4508 70.442 20.2 70.442 23.5874C70.442 26.9747 71.515 29.7239 73.6609 31.835C75.8592 33.9459 78.7116 35.0014 82.2184 35.0014C84.783 35.0014 87.0074 34.4368 88.8916 33.3077C90.8281 32.1785 92.1367 30.583 92.817 28.5212L88.499 27.1221C87.9233 28.4475 87.0859 29.4785 85.9868 30.2148Z" fill="#EFF0F7"/>
<path d="M142.443 38.4468C150.964 38.4468 156.797 32.5688 156.797 23.9378C156.797 15.1581 151.117 9.42889 142.443 9.42889C133.921 9.42889 128.164 15.3069 128.164 23.9378C128.164 32.7176 133.844 38.4468 142.443 38.4468ZM142.443 33.4616C137.452 33.4616 134.151 29.7414 134.151 23.9378C134.151 18.1342 137.452 14.414 142.443 14.414C147.433 14.414 150.733 18.1342 150.733 23.9378C150.733 29.7414 147.433 33.4616 142.443 33.4616Z" fill="#EFF0F7"/>
<path d="M171.365 38.4475C176.508 38.4475 180.577 35.9921 181.882 31.751L176.661 30.1886C175.74 32.5695 173.898 33.9832 171.288 33.9832C167.603 33.9832 165.3 31.2302 165.3 26.9147C165.3 22.5993 167.603 19.8463 171.288 19.8463C173.898 19.8463 175.74 21.26 176.584 23.6409L181.882 22.0784C180.577 17.8373 176.508 15.382 171.365 15.382C164.379 15.382 159.62 19.9951 159.62 26.9147C159.62 33.8343 164.379 38.4475 171.365 38.4475Z" fill="#EFF0F7"/>
<path d="M188.926 28.6261H206.045C206.275 27.8819 206.275 27.4355 206.275 26.9147C206.275 19.9207 201.823 15.382 194.991 15.382C188.005 15.382 183.399 20.0695 183.399 26.9147C183.399 33.5367 187.467 38.4475 195.375 38.4475C199.981 38.4475 203.281 36.8105 205.354 34.504L201.9 31.3046C200.518 32.8671 198.369 33.9832 195.375 33.9832C191.766 33.9832 189.463 31.9742 188.926 28.6261ZM194.991 19.6975C197.985 19.6975 200.057 21.4832 200.672 24.6826H189.003C189.617 21.5576 191.766 19.6975 194.991 19.6975Z" fill="#EFF0F7"/>
<path d="M230.284 15.7523H211.016V27.1363C211.016 32.5678 210.479 33.2374 208.636 33.2374H207.331V38.0738C207.946 38.1482 208.867 38.2226 209.711 38.2226C214.625 38.2226 216.467 35.6927 216.467 27.7315V20.5886H224.758V38.0738H230.284V15.7523Z" fill="#EFF0F7"/>
<path d="M254.832 15.7523H244.007C238.557 15.7523 235.026 18.6541 235.026 23.1184C235.026 26.0945 236.638 28.3268 239.478 29.4428L233.645 38.0738H239.785L244.852 30.1869H249.382V38.0738H254.832V15.7523ZM244.621 26.169C242.088 26.169 240.63 25.0529 240.63 23.1184C240.63 21.2583 242.088 20.0678 244.621 20.0678H249.382V26.169H244.621Z" fill="#EFF0F7"/>
</svg>
