<svg width="125" height="26" viewBox="0 0 125 26" fill="none" xmlns="http://www.w3.org/2000/svg">
<path fill-rule="evenodd" clip-rule="evenodd" d="M3.17755 3.52505L3.17692 3.52569C2.31071 4.3814 1.85983 5.47641 1.62992 7.0269C1.39805 8.59066 1.39708 10.5676 1.39708 13.1624C1.39708 15.7572 1.39805 17.7342 1.62992 19.2985C1.85984 20.8495 2.31076 21.9458 3.17723 22.8038C4.04146 23.6614 5.14767 24.1082 6.71358 24.3358C8.29287 24.5654 10.2896 24.5664 12.9101 24.5664C15.5307 24.5664 17.5274 24.5654 19.1072 24.3358C20.6736 24.1082 21.7808 23.6617 22.6473 22.8038C23.5139 21.9457 23.9648 20.8505 24.1946 19.3001C24.4265 17.7364 24.4275 15.7593 24.4275 13.1624C24.4275 10.5655 24.4265 8.58847 24.1946 7.02476C23.9648 5.47438 23.5139 4.3791 22.6473 3.52109C21.7809 2.66528 20.6747 2.21988 19.109 1.99277C17.5296 1.76369 15.5328 1.76273 12.9101 1.76273C10.2873 1.76273 8.29071 1.7637 6.71198 1.99329C5.14672 2.22091 4.04184 2.66732 3.17755 3.52505ZM22.9281 3.24308C24.8246 5.12087 24.8246 7.99104 24.8246 13.1624C24.8246 18.3339 24.8246 21.204 22.9281 23.0818C21.0317 24.9596 18.1286 24.9596 12.9101 24.9596C7.69161 24.9596 4.7886 24.9596 2.89646 23.0818C1 21.204 1 18.3295 1 13.1624C1 7.99531 1 5.12087 2.89646 3.24736C4.7886 1.36957 7.68729 1.36957 12.9101 1.36957C18.1329 1.36957 21.0317 1.36957 22.9281 3.24308Z" fill="#1A1A1D"/>
<path d="M12.4079 20.6181C11.5668 19.9754 10.9465 19.0167 10.7467 17.8999H8.03418V6.15268C9.4956 6.87963 10.5365 8.49159 10.6627 10.1562L11.0726 13.4539L10.8729 13.4223C10.4314 13.4223 10.0528 13.8331 10.0528 14.244C10.0528 14.6233 10.3472 14.9499 10.7257 15.0342L11.2199 15.1501C12.0399 13.6014 12.5026 12.0843 12.5026 10.5882C12.5026 9.23963 12.3238 7.90158 12.3028 6.53196C12.3028 5.92089 12.5341 5.3625 12.9125 4.93054C13.2911 5.37304 13.5224 5.92089 13.5224 6.53196C13.5224 7.90158 13.3226 9.25012 13.3226 10.5882C13.3226 12.0737 13.7852 13.6014 14.6053 15.1501L15.0994 15.0342C15.4779 14.9499 15.7723 14.6233 15.7723 14.244C15.7723 13.8331 15.3938 13.4223 14.9522 13.4223L14.7524 13.4539L15.1625 10.1562C15.3623 8.49159 16.3295 6.87963 17.7909 6.15268V17.8999H15.0784C14.8786 19.0061 14.2898 20.007 13.4172 20.6181C13.2175 20.7656 13.0387 20.9447 12.9231 21.1765C12.7864 20.9341 12.6077 20.7656 12.4079 20.6181ZM9.31686 13.8437C9.43254 13.4012 9.75846 13.0219 10.158 12.7901L9.83202 10.0719C9.7164 9.22908 9.36942 8.47049 8.84376 7.84888V13.8331H9.31686V13.8437ZM10.6942 17.0781C10.6942 16.6672 10.7573 16.2879 10.8413 15.9087L10.4629 15.8244C9.90564 15.6453 9.4746 15.2133 9.32742 14.6549H8.86476V17.0781H10.6942ZM12.492 17.0781C12.492 16.5829 12.1135 16.1405 11.6194 16.0878C11.5353 16.4039 11.4722 16.7305 11.4722 17.0781H12.492ZM12.492 17.8999H11.5879C11.735 18.5426 12.0505 19.122 12.492 19.6277V17.8999ZM13.7747 15.3608C13.4278 14.7181 13.1018 14.0439 12.902 13.3485C12.7023 14.0544 12.3764 14.7181 12.0294 15.3608C12.3764 15.4451 12.6707 15.6769 12.902 15.9403C13.1333 15.6769 13.4278 15.4451 13.7747 15.3608ZM14.3319 17.0781C14.3319 16.7305 14.2688 16.4039 14.1847 16.0878C13.6906 16.151 13.3121 16.5829 13.3121 17.0781H14.3319ZM14.2163 17.8999H13.3121V19.6277C13.7537 19.122 14.0691 18.5426 14.2163 17.8999ZM16.9603 17.0781V14.6549H16.4977C16.3505 15.2133 15.9195 15.6453 15.3623 15.8244L14.9837 15.9087C15.0679 16.2879 15.131 16.6672 15.131 17.0781H16.9603ZM16.9603 13.8437V7.85943C16.4347 8.47049 16.0562 9.22908 15.9721 10.0825L15.6461 12.8006C16.0562 13.0324 16.3716 13.4117 16.4872 13.8542H16.9603V13.8437Z" fill="#1A1A1D"/>
<path fill-rule="evenodd" clip-rule="evenodd" d="M50.6427 23.0878C48.7428 24.9647 45.8337 24.9647 40.6007 24.9647C35.3677 24.9647 32.4586 24.9647 30.5587 23.0878C28.6587 21.2107 28.6587 18.3369 28.6587 13.1671C28.6587 7.99743 28.6587 5.12353 30.5587 3.24655C32.4586 1.36957 35.3677 1.36957 40.6007 1.36957C45.8337 1.36957 48.7428 1.36957 50.6427 3.24655C52.5427 5.12353 52.5427 7.9957 52.5427 13.1671V13.1671V13.1672C52.5427 18.3386 52.5427 21.2107 50.6427 23.0878ZM42.6707 16.2942C42.1634 16.6337 41.5547 16.8034 40.8445 16.8034C39.906 16.8034 39.1324 16.5367 38.5236 16.0032C37.9149 15.4698 37.5471 14.7302 37.4203 13.7844H42.2903V12.0385H37.4583C37.6359 11.1655 38.0163 10.4865 38.5997 10.0016C39.1831 9.49233 39.9314 9.23769 40.8445 9.23769C41.5547 9.23769 42.1634 9.4196 42.6707 9.78331C43.2033 10.1228 43.6092 10.6199 43.8882 11.2746L45.9807 10.5835C45.651 9.56506 45.0169 8.77695 44.0784 8.21924C43.1653 7.66153 42.0873 7.38265 40.8445 7.38265C39.1451 7.38265 37.7627 7.90402 36.6974 8.94671C35.6574 9.98941 35.1375 11.3474 35.1375 13.0206C35.1375 14.6938 35.6574 16.0517 36.6974 17.0945C37.7627 18.1372 39.1451 18.6586 40.8445 18.6586C42.0873 18.6586 43.1653 18.3797 44.0784 17.822C45.0169 17.2642 45.651 16.4761 45.9807 15.4576L43.8882 14.7666C43.6092 15.4212 43.2033 15.9305 42.6707 16.2942Z" fill="#1A1A1D"/>
<path d="M70.0297 20.3604C74.1589 20.3604 76.9861 17.457 76.9861 13.1937C76.9861 8.85694 74.2333 6.02698 70.0297 6.02698C65.8999 6.02698 63.1099 8.93044 63.1099 13.1937C63.1099 17.5305 65.8627 20.3604 70.0297 20.3604ZM70.0297 17.898C67.6111 17.898 66.0115 16.0603 66.0115 13.1937C66.0115 10.327 67.6111 8.48938 70.0297 8.48938C72.4477 8.48938 74.0473 10.327 74.0473 13.1937C74.0473 16.0603 72.4477 17.898 70.0297 17.898Z" fill="#1A1A1D"/>
<path d="M84.0461 20.3607C86.5385 20.3607 88.5107 19.1479 89.1431 17.053L86.6129 16.2813C86.1665 17.4573 85.2737 18.1556 84.0089 18.1556C82.2233 18.1556 81.1073 16.7958 81.1073 14.6641C81.1073 12.5325 82.2233 11.1726 84.0089 11.1726C85.2737 11.1726 86.1665 11.871 86.5757 13.047L89.1431 12.2752C88.5107 10.1803 86.5385 8.96753 84.0461 8.96753C80.6609 8.96753 78.3545 11.2461 78.3545 14.6641C78.3545 18.0821 80.6609 20.3607 84.0461 20.3607Z" fill="#1A1A1D"/>
<path d="M92.5563 15.5094H100.853C100.964 15.1419 100.964 14.9214 100.964 14.6641C100.964 11.2094 98.8065 8.96753 95.4957 8.96753C92.1099 8.96753 89.8779 11.2829 89.8779 14.6641C89.8779 17.9351 91.8495 20.3607 95.6817 20.3607C97.9137 20.3607 99.5133 19.5522 100.518 18.4129L98.8437 16.8325C98.1741 17.6043 97.1325 18.1556 95.6817 18.1556C93.9327 18.1556 92.8167 17.1633 92.5563 15.5094ZM95.4957 11.0991C96.9465 11.0991 97.9509 11.9812 98.2485 13.5616H92.5935C92.8911 12.018 93.9327 11.0991 95.4957 11.0991Z" fill="#1A1A1D"/>
<path d="M112.599 9.15045H103.261V14.7736C103.261 17.4565 103.001 17.7872 102.108 17.7872H101.476V20.1762C101.773 20.2129 102.22 20.2497 102.629 20.2497C105.01 20.2497 105.903 19 105.903 15.0676V11.5393H109.921V20.1762H112.599V9.15045Z" fill="#1A1A1D"/>
<path d="M124.496 9.15045H119.25C116.609 9.15045 114.898 10.5838 114.898 12.7889C114.898 14.259 115.679 15.3616 117.055 15.9129L114.228 20.1762H117.204L119.659 16.2804H121.855V20.1762H124.496V9.15045ZM119.548 14.2957C118.32 14.2957 117.613 13.7445 117.613 12.7889C117.613 11.8701 118.32 11.2821 119.548 11.2821H121.855V14.2957H119.548Z" fill="#1A1A1D"/>
</svg>
