<svg width="186" height="36" viewBox="0 0 186 36" fill="none" xmlns="http://www.w3.org/2000/svg">
<g clip-path="url(#clip0_302_2683)">
<path fill-rule="evenodd" clip-rule="evenodd" d="M3.21448 3.6819L3.21354 3.68284C1.93486 4.94603 1.26928 6.56247 0.92988 8.8513C0.587592 11.1597 0.586159 14.0781 0.586159 17.9085C0.586159 21.7389 0.587592 24.6574 0.929889 26.9665C1.26929 29.2561 1.93493 30.8744 3.21401 32.141C4.48978 33.407 6.12275 34.0665 8.43433 34.4026C10.7657 34.7415 13.7131 34.743 17.5816 34.743C21.45 34.743 24.3975 34.7415 26.7297 34.4026C29.042 34.0665 30.6764 33.4075 31.9556 32.141C33.2347 30.8743 33.9003 29.2575 34.2397 26.9689C34.582 24.6605 34.5834 21.742 34.5834 17.9085C34.5834 14.0749 34.582 11.1565 34.2397 8.84814C33.9003 6.55948 33.2347 4.94264 31.9556 3.67606C30.6765 2.41272 29.0436 1.75522 26.7323 1.41997C24.4008 1.0818 21.4532 1.08039 17.5816 1.08039C13.7099 1.08039 10.7625 1.08181 8.43197 1.42073C6.12134 1.75675 4.49034 2.41573 3.21448 3.6819ZM32.37 3.26566C35.1696 6.03763 35.1696 10.2746 35.1696 17.9085C35.1696 25.5425 35.1696 29.7794 32.37 32.5514C29.5705 35.3234 25.2851 35.3234 17.5816 35.3234C9.87809 35.3234 5.5927 35.3234 2.79953 32.5514C0 29.7794 0 25.5361 0 17.9085C0 10.2809 0 6.03763 2.79953 3.27198C5.5927 0.5 9.87172 0.5 17.5816 0.5C25.2915 0.5 29.5705 0.5 32.37 3.26566Z" fill="#EFF0F7"/>
<path d="M16.8402 28.9146C15.5986 27.966 14.683 26.5506 14.388 24.9021H10.3838V7.56094C12.5411 8.63406 14.0777 11.0136 14.2639 13.4709L14.8691 18.3389L14.5743 18.2922C13.9225 18.2922 13.3637 18.8988 13.3637 19.5053C13.3637 20.0652 13.7983 20.5474 14.357 20.6718L15.0865 20.8429C16.297 18.5567 16.98 16.3171 16.98 14.1086C16.98 12.1179 16.7161 10.1427 16.685 8.12083C16.685 7.21878 17.0265 6.39449 17.5852 5.75684C18.144 6.41004 18.4854 7.21878 18.4854 8.12083C18.4854 10.1427 18.1905 12.1334 18.1905 14.1086C18.1905 16.3015 18.8734 18.5567 20.084 20.8429L20.8134 20.6718C21.3721 20.5474 21.8068 20.0652 21.8068 19.5053C21.8068 18.8988 21.248 18.2922 20.5962 18.2922L20.3012 18.3389L20.9065 13.4709C21.2015 11.0136 22.6293 8.63406 24.7866 7.56094V24.9021H20.7823C20.4875 26.5351 19.6183 28.0126 18.3302 28.9146C18.0353 29.1323 17.7714 29.3968 17.6008 29.739C17.399 29.3812 17.1351 29.1323 16.8402 28.9146ZM12.2773 18.9143C12.448 18.2611 12.9292 17.7013 13.519 17.359L13.0377 13.3465C12.8671 12.1023 12.3549 10.9825 11.5789 10.0649V18.8988H12.2773V18.9143ZM14.3104 23.689C14.3104 23.0824 14.4036 22.5225 14.5277 21.9627L13.969 21.8383C13.1464 21.5738 12.5101 20.9361 12.2929 20.1119H11.6099V23.689H14.3104ZM16.9644 23.689C16.9644 22.958 16.4057 22.3048 15.6762 22.227C15.5521 22.6936 15.4589 23.1758 15.4589 23.689H16.9644ZM16.9644 24.9021H15.6297C15.847 25.8508 16.3126 26.7061 16.9644 27.4527V24.9021ZM18.8579 21.1539C18.3457 20.2052 17.8646 19.2098 17.5697 18.1834C17.2748 19.2254 16.7937 20.2052 16.2815 21.1539C16.7937 21.2783 17.2282 21.6205 17.5697 22.0093C17.9111 21.6205 18.3457 21.2783 18.8579 21.1539ZM19.6804 23.689C19.6804 23.1758 19.5873 22.6936 19.4632 22.227C18.7337 22.3204 18.175 22.958 18.175 23.689H19.6804ZM19.5097 24.9021H18.175V27.4527C18.8269 26.7061 19.2925 25.8508 19.5097 24.9021ZM23.5605 23.689V20.1119H22.8776C22.6603 20.9361 22.024 21.5738 21.2015 21.8383L20.6427 21.9627C20.7668 22.5225 20.86 23.0824 20.86 23.689H23.5605ZM23.5605 18.9143V10.0804C22.7845 10.9825 22.2258 12.1023 22.1016 13.362L21.6205 17.3746C22.2258 17.7167 22.6914 18.2767 22.8621 18.9298H23.5605V18.9143Z" fill="#EFF0F7"/>
<path fill-rule="evenodd" clip-rule="evenodd" d="M73.2827 32.5602C70.478 35.331 66.1837 35.331 58.4588 35.331C50.7338 35.331 46.4395 35.331 43.6348 32.5602C40.8301 29.7893 40.8301 25.547 40.8301 17.9155C40.8301 10.284 40.8301 6.04157 43.6348 3.27078C46.4395 0.5 50.7338 0.5 58.4588 0.5C66.1837 0.5 70.478 0.5 73.2827 3.27078C76.0874 6.04157 76.0874 10.2815 76.0874 17.9155V17.9155C76.0874 25.5495 76.0874 29.7893 73.2827 32.5602ZM61.5135 22.5317C60.7646 23.0329 59.866 23.2834 58.8177 23.2834C57.4322 23.2834 56.2903 22.8896 55.3916 22.1021C54.493 21.3146 53.9501 20.2228 53.7629 18.8267H60.9519V16.2494H53.8191C54.0811 14.9607 54.6428 13.9584 55.5039 13.2425C56.3651 12.4908 57.4697 12.1149 58.8177 12.1149C59.866 12.1149 60.7646 12.3834 61.5135 12.9203C62.2998 13.4215 62.8989 14.1553 63.3107 15.1218L66.3997 14.1016C65.913 12.5981 64.9769 11.4347 63.5916 10.6114C62.2436 9.78815 60.6523 9.37647 58.8177 9.37647C56.309 9.37647 54.2684 10.1461 52.6958 11.6853C51.1606 13.2245 50.393 15.2292 50.393 17.6991C50.393 20.1691 51.1606 22.1737 52.6958 23.713C54.2684 25.2522 56.309 26.0219 58.8177 26.0219C60.6523 26.0219 62.2436 25.6102 63.5916 24.7869C64.9769 23.9635 65.913 22.8001 66.3997 21.2967L63.3107 20.2765C62.8989 21.243 62.2998 21.9948 61.5135 22.5317Z" fill="#EFF0F7"/>
<path d="M101.901 28.5341C107.997 28.5341 112.17 24.2481 112.17 17.9546C112.17 11.5528 108.107 7.37524 101.901 7.37524C95.8051 7.37524 91.6865 11.6613 91.6865 17.9546C91.6865 24.3566 95.7502 28.5341 101.901 28.5341ZM101.901 24.8991C98.3312 24.8991 95.9698 22.1864 95.9698 17.9546C95.9698 13.7229 98.3312 11.0102 101.901 11.0102C105.471 11.0102 107.832 13.7229 107.832 17.9546C107.832 22.1864 105.471 24.8991 101.901 24.8991Z" fill="#EFF0F7"/>
<path d="M122.591 28.5346C126.271 28.5346 129.182 26.7443 130.115 23.6518L126.38 22.5125C125.721 24.2486 124.404 25.2794 122.536 25.2794C119.901 25.2794 118.253 23.272 118.253 20.1253C118.253 16.9787 119.901 14.9712 122.536 14.9712C124.404 14.9712 125.721 16.0021 126.326 17.7382L130.115 16.5988C129.182 13.5064 126.271 11.7161 122.591 11.7161C117.594 11.7161 114.189 15.0797 114.189 20.1253C114.189 25.1709 117.594 28.5346 122.591 28.5346Z" fill="#EFF0F7"/>
<path d="M135.155 21.3732H147.401C147.566 20.8306 147.566 20.5051 147.566 20.1253C147.566 15.0255 144.381 11.7161 139.494 11.7161C134.496 11.7161 131.201 15.134 131.201 20.1253C131.201 24.9539 134.111 28.5346 139.768 28.5346C143.063 28.5346 145.424 27.341 146.907 25.6592L144.436 23.3263C143.447 24.4656 141.91 25.2794 139.768 25.2794C137.186 25.2794 135.539 23.8145 135.155 21.3732ZM139.494 14.8627C141.635 14.8627 143.118 16.1648 143.557 18.4978H135.209C135.649 16.2191 137.186 14.8627 139.494 14.8627Z" fill="#EFF0F7"/>
<path d="M164.742 11.9861H150.958V20.2869C150.958 24.2474 150.573 24.7356 149.255 24.7356H148.322V28.2621C148.761 28.3164 149.42 28.3706 150.024 28.3706C153.54 28.3706 154.857 26.526 154.857 20.7209V15.5125H160.788V28.2621H164.742V11.9861Z" fill="#EFF0F7"/>
<path d="M182.303 11.9861H174.559C170.66 11.9861 168.134 14.1019 168.134 17.3572C168.134 19.5273 169.287 21.1549 171.319 21.9687L167.146 28.2621H171.539L175.163 22.5113H178.404V28.2621H182.303V11.9861ZM174.998 19.5815C173.186 19.5815 172.143 18.7678 172.143 17.3572C172.143 16.0008 173.186 15.1328 174.998 15.1328H178.404V19.5815H174.998Z" fill="#EFF0F7"/>
</g>
<defs>
<clipPath id="clip0_302_2683">
<rect width="186" height="35" fill="white" transform="translate(0 0.5)"/>
</clipPath>
</defs>
</svg>
