<svg width="56" height="28" viewBox="0 0 56 28" fill="none" xmlns="http://www.w3.org/2000/svg">
<rect width="56" height="28" rx="14" fill="#717386"/>
<path d="M14.6335 8.81818V19H13.4006V10.1108H13.3409L10.8551 11.7614V10.5085L13.4006 8.81818H14.6335ZM18.4501 17.608L18.3706 18.1449C18.3142 18.5227 18.228 18.9271 18.112 19.358C17.9994 19.7888 17.8817 20.1948 17.7591 20.576C17.6364 20.9571 17.5353 21.2604 17.4558 21.4858H16.5609C16.604 21.2737 16.6603 20.9936 16.7299 20.6456C16.7995 20.2976 16.8691 19.9081 16.9387 19.4773C17.0117 19.0497 17.0713 18.6122 17.1177 18.1648L17.1774 17.608H18.4501ZM23.3008 19.1392C22.7175 19.1392 22.1921 19.0232 21.7248 18.7912C21.2575 18.5592 20.8829 18.241 20.6012 17.8366C20.3195 17.4323 20.1654 16.9716 20.1389 16.4545H21.332C21.3784 16.9152 21.5873 17.2964 21.9585 17.598C22.333 17.8963 22.7804 18.0455 23.3008 18.0455C23.7184 18.0455 24.0896 17.9477 24.4144 17.7521C24.7426 17.5566 24.9994 17.2881 25.185 16.9467C25.3739 16.602 25.4684 16.2126 25.4684 15.7784C25.4684 15.3343 25.3706 14.9382 25.1751 14.5902C24.9829 14.2389 24.7177 13.9621 24.3796 13.7599C24.0416 13.5578 23.6554 13.455 23.2212 13.4517C22.9097 13.4484 22.5899 13.4964 22.2617 13.5959C21.9336 13.692 21.6635 13.8163 21.4514 13.9688L20.298 13.8295L20.9144 8.81818H26.2042V9.91193H21.9485L21.5906 12.9148H21.6502C21.859 12.7491 22.1209 12.6115 22.4357 12.5021C22.7506 12.3928 23.0787 12.3381 23.4201 12.3381C24.0432 12.3381 24.5984 12.4872 25.0856 12.7855C25.5761 13.0805 25.9606 13.4848 26.239 13.9986C26.5207 14.5123 26.6616 15.099 26.6616 15.7585C26.6616 16.4081 26.5158 16.9882 26.2241 17.4986C25.9357 18.0057 25.538 18.4067 25.0309 18.7017C24.5238 18.9934 23.9471 19.1392 23.3008 19.1392ZM28.3764 19V11.3636H29.5497V14.6847H30.3253L33.0696 11.3636H34.581L31.4986 15.0426L34.6208 19H33.1094L30.6037 15.7784H29.5497V19H28.3764ZM39.7921 17.4091L42.4569 11.3636H43.5705L40.2694 19H39.3148L36.0734 11.3636H37.1671L39.7921 17.4091ZM36.7893 11.3636V19H35.616V11.3636H36.7893ZM42.7949 19V11.3636H43.9682V19H42.7949Z" fill="white"/>
</svg>
