<svg width="44" height="28" viewBox="0 0 44 28" fill="none" xmlns="http://www.w3.org/2000/svg">
<rect width="44" height="28" rx="14" fill="#EFF0F7"/>
<path d="M14.6335 8.81818V19H13.4006V10.1108H13.3409L10.8551 11.7614V10.5085L13.4006 8.81818H14.6335ZM17.3017 19V11.3636H18.475V14.6847H19.2505L21.9949 11.3636H23.5062L20.4238 15.0426L23.546 19H22.0346L19.5289 15.7784H18.475V19H17.3017ZM28.7173 17.4091L31.3821 11.3636H32.4958L29.1946 19H28.2401L24.9986 11.3636H26.0923L28.7173 17.4091ZM25.7145 11.3636V19H24.5412V11.3636H25.7145ZM31.7202 19V11.3636H32.8935V19H31.7202Z" fill="#1A1A1D"/>
</svg>
