<svg width="56" height="28" viewBox="0 0 56 28" fill="none" xmlns="http://www.w3.org/2000/svg">
<rect width="56" height="28" rx="14" fill="#EFF0F7"/>
<path d="M14.2358 19.1392C13.6525 19.1392 13.1271 19.0232 12.6598 18.7912C12.1925 18.5592 11.8179 18.241 11.5362 17.8366C11.2545 17.4323 11.1004 16.9716 11.0739 16.4545H12.267C12.3134 16.9152 12.5223 17.2964 12.8935 17.598C13.268 17.8963 13.7154 18.0455 14.2358 18.0455C14.6534 18.0455 15.0246 17.9477 15.3494 17.7521C15.6776 17.5566 15.9344 17.2881 16.12 16.9467C16.3089 16.602 16.4034 16.2126 16.4034 15.7784C16.4034 15.3343 16.3056 14.9382 16.1101 14.5902C15.9179 14.2389 15.6527 13.9621 15.3146 13.7599C14.9766 13.5578 14.5904 13.455 14.1562 13.4517C13.8447 13.4484 13.5249 13.4964 13.1967 13.5959C12.8686 13.692 12.5985 13.8163 12.3864 13.9688L11.233 13.8295L11.8494 8.81818H17.1392V9.91193H12.8835L12.5256 12.9148H12.5852C12.794 12.7491 13.0559 12.6115 13.3707 12.5021C13.6856 12.3928 14.0137 12.3381 14.3551 12.3381C14.9782 12.3381 15.5334 12.4872 16.0206 12.7855C16.5111 13.0805 16.8956 13.4848 17.174 13.9986C17.4557 14.5123 17.5966 15.099 17.5966 15.7585C17.5966 16.4081 17.4508 16.9882 17.1591 17.4986C16.8707 18.0057 16.473 18.4067 15.9659 18.7017C15.4588 18.9934 14.8821 19.1392 14.2358 19.1392ZM22.6126 19.1392C21.8635 19.1392 21.2255 18.9354 20.6985 18.5277C20.1715 18.1167 19.7688 17.5218 19.4904 16.7429C19.212 15.9607 19.0728 15.0161 19.0728 13.9091C19.0728 12.8087 19.212 11.8691 19.4904 11.0902C19.7721 10.308 20.1765 9.71141 20.7035 9.30043C21.2338 8.88613 21.8702 8.67898 22.6126 8.67898C23.355 8.67898 23.9897 8.88613 24.5167 9.30043C25.047 9.71141 25.4514 10.308 25.7298 11.0902C26.0115 11.8691 26.1524 12.8087 26.1524 13.9091C26.1524 15.0161 26.0131 15.9607 25.7347 16.7429C25.4563 17.5218 25.0536 18.1167 24.5266 18.5277C23.9997 18.9354 23.3616 19.1392 22.6126 19.1392ZM22.6126 18.0455C23.355 18.0455 23.9317 17.6875 24.3427 16.9716C24.7537 16.2557 24.9592 15.2348 24.9592 13.9091C24.9592 13.0275 24.8647 12.2768 24.6758 11.657C24.4902 11.0372 24.2217 10.5649 23.8704 10.2401C23.5224 9.91525 23.1031 9.75284 22.6126 9.75284C21.8768 9.75284 21.3017 10.1158 20.8874 10.8416C20.4731 11.5642 20.266 12.5866 20.266 13.9091C20.266 14.7907 20.3588 15.5398 20.5444 16.1562C20.73 16.7727 20.9968 17.2417 21.3448 17.5632C21.6961 17.8847 22.1187 18.0455 22.6126 18.0455ZM31.0826 19.1392C30.3335 19.1392 29.6955 18.9354 29.1685 18.5277C28.6415 18.1167 28.2388 17.5218 27.9604 16.7429C27.682 15.9607 27.5428 15.0161 27.5428 13.9091C27.5428 12.8087 27.682 11.8691 27.9604 11.0902C28.2421 10.308 28.6465 9.71141 29.1735 9.30043C29.7038 8.88613 30.3402 8.67898 31.0826 8.67898C31.825 8.67898 32.4597 8.88613 32.9867 9.30043C33.517 9.71141 33.9214 10.308 34.1998 11.0902C34.4815 11.8691 34.6224 12.8087 34.6224 13.9091C34.6224 15.0161 34.4831 15.9607 34.2047 16.7429C33.9263 17.5218 33.5236 18.1167 32.9966 18.5277C32.4697 18.9354 31.8316 19.1392 31.0826 19.1392ZM31.0826 18.0455C31.825 18.0455 32.4017 17.6875 32.8127 16.9716C33.2237 16.2557 33.4292 15.2348 33.4292 13.9091C33.4292 13.0275 33.3347 12.2768 33.1458 11.657C32.9602 11.0372 32.6917 10.5649 32.3404 10.2401C31.9924 9.91525 31.5731 9.75284 31.0826 9.75284C30.3468 9.75284 29.7717 10.1158 29.3574 10.8416C28.9431 11.5642 28.736 12.5866 28.736 13.9091C28.736 14.7907 28.8288 15.5398 29.0144 16.1562C29.2 16.7727 29.4668 17.2417 29.8148 17.5632C30.1661 17.8847 30.5887 18.0455 31.0826 18.0455ZM40.4276 17.4091L43.0924 11.3636H44.206L40.9049 19H39.9503L36.7088 11.3636H37.8026L40.4276 17.4091ZM37.4247 11.3636V19H36.2514V11.3636H37.4247ZM43.4304 19V11.3636H44.6037V19H43.4304Z" fill="#1A1A1D"/>
</svg>
