<svg width="24" height="24" viewBox="0 0 24 24" fill="none" xmlns="http://www.w3.org/2000/svg">
<path fill-rule="evenodd" clip-rule="evenodd" d="M12.3339 0.0898129L12.1315 -0.000976562L11.9284 0.088124L0.29915 5.18921L0 5.32043V5.6471V8.70775V9.20775H0.5H1.55056V10.7482V11.2482H2.05056H2.58427V18.1549H2.05056H1.55056V18.6549V20.1953H0.5H0V20.6953V23.5009V24.0009H0.5H23.5H24V23.5009V20.6953V20.1953H23.5H22.7079V18.6549V18.1549H22.2079H21.6742V11.2482H22.2079H22.7079V10.7482V9.20775H23.5H24V8.70775V5.6471V5.32339L23.7047 5.1909L12.3339 0.0898129ZM2.55056 10.2482V9.20775H6.46067V10.2482H5.92697H3.08427H2.55056ZM7.46067 10.7482V9.20775H9.04494V10.7482V11.2482H9.54494H10.0787V18.1549H9.54494H9.04494V18.6549V20.1953H7.46067V18.6549V18.1549H6.96067H6.42697V11.2482H6.96067H7.46067V10.7482ZM10.0449 10.2482V9.20775H14.2135V10.2482H13.6798H10.5787H10.0449ZM15.2135 10.7482V9.20775H16.5393V10.7482V11.2482H17.0393H17.573V18.1549H17.0393H16.5393V18.6549V20.1953H15.2135V18.6549V18.1549H14.7135H14.1798V11.2482H14.7135H15.2135V10.7482ZM17.5393 10.2482V9.20775H21.7079V10.2482H21.1742H18.073H17.5393ZM18.573 18.1549V11.2482H20.6742V18.1549H18.573ZM21.7079 20.1953H17.5393V19.1549H18.073H21.1742H21.7079V20.1953ZM14.2135 19.1549V20.1953H10.0449V19.1549H10.5787H13.6798H14.2135ZM13.1798 11.2482V18.1549H11.0787V11.2482H13.1798ZM6.46067 19.1549V20.1953H2.55056V19.1549H3.08427H5.92697H6.46067ZM5.42697 11.2482V18.1549H3.58427V11.2482H5.42697ZM1 8.20775V5.97376L12.1269 1.093L23 5.9708V8.20775H22.2079H17.0393H14.7135H9.54494H6.96067H2.05056H1ZM1 23.0009V21.1953H2.05056H6.96067H9.54494H14.7135H17.0393H22.2079H23V23.0009H1ZM13 5C13 5.55228 12.5523 6 12 6C11.4477 6 11 5.55228 11 5C11 4.44772 11.4477 4 12 4C12.5523 4 13 4.44772 13 5ZM14 5C14 6.10457 13.1046 7 12 7C10.8954 7 10 6.10457 10 5C10 3.89543 10.8954 3 12 3C13.1046 3 14 3.89543 14 5Z" fill="#979AAF"/>
</svg>
