<svg width="47" height="75" viewBox="0 0 47 75" fill="none" xmlns="http://www.w3.org/2000/svg">
<path d="M23.609 3.15772e-06C35.8507 3.15772e-06 46.6934 7.73114 46.6934 22.4906C46.6934 25.583 45.0611 30.1046 44.245 31.9788L23.609 74.5L2.97268 31.9788C2.15657 30.1046 0.524345 25.583 0.524345 22.4906C0.524345 7.73113 11.3673 3.15772e-06 23.609 3.15772e-06Z" fill="#404F44"/>
<path fill-rule="evenodd" clip-rule="evenodd" d="M24.3339 10.0908L24.1315 10L23.9284 10.0891L12.2992 15.1902L12 15.3214V15.6481V18.7087V19.2087H12.5H13.5506V20.7492V21.2492H14.0506H14.5843V28.1558H14.0506H13.5506V28.6558V30.1963H12.5H12V30.6963V33.5019V34.0019H12.5H35.5H36V33.5019V30.6963V30.1963H35.5H34.7079V28.6558V28.1558H34.2079H33.6742V21.2492H34.2079H34.7079V20.7492V19.2087H35.5H36V18.7087V15.6481V15.3244L35.7047 15.1919L24.3339 10.0908ZM14.5506 20.2492V19.2087H18.4607V20.2492H17.927H15.0843H14.5506ZM19.4607 20.7492V19.2087H21.0449V20.7492V21.2492H21.5449H22.0787V28.1558H21.5449H21.0449V28.6558V30.1963H19.4607V28.6558V28.1558H18.9607H18.427V21.2492H18.9607H19.4607V20.7492ZM22.0449 20.2492V19.2087H26.2135V20.2492H25.6798H22.5787H22.0449ZM27.2135 20.7492V19.2087H28.5393V20.7492V21.2492H29.0393H29.573V28.1558H29.0393H28.5393V28.6558V30.1963H27.2135V28.6558V28.1558H26.7135H26.1798V21.2492H26.7135H27.2135V20.7492ZM29.5393 20.2492V19.2087H33.7079V20.2492H33.1742H30.073H29.5393ZM30.573 28.1558V21.2492H32.6742V28.1558H30.573ZM33.7079 30.1963H29.5393V29.1558H30.073H33.1742H33.7079V30.1963ZM26.2135 29.1558V30.1963H22.0449V29.1558H22.5787H25.6798H26.2135ZM25.1798 21.2492V28.1558H23.0787V21.2492H25.1798ZM18.4607 29.1558V30.1963H14.5506V29.1558H15.0843H17.927H18.4607ZM17.427 21.2492V28.1558H15.5843V21.2492H17.427ZM13 18.2087V15.9747L24.1269 11.094L35 15.9718V18.2087H34.2079H29.0393H26.7135H21.5449H18.9607H14.0506H13ZM13 33.0019V31.1963H14.0506H18.9607H21.5449H26.7135H29.0393H34.2079H35V33.0019H13ZM25 15.001C25 15.5533 24.5523 16.001 24 16.001C23.4477 16.001 23 15.5533 23 15.001C23 14.4487 23.4477 14.001 24 14.001C24.5523 14.001 25 14.4487 25 15.001ZM26 15.001C26 16.1055 25.1046 17.001 24 17.001C22.8954 17.001 22 16.1055 22 15.001C22 13.8964 22.8954 13.001 24 13.001C25.1046 13.001 26 13.8964 26 15.001Z" fill="white"/>
</svg>
