<svg width="47" height="75" viewBox="0 0 47 75" fill="none" xmlns="http://www.w3.org/2000/svg">
<path d="M23.6094 3.15772e-06C35.8511 3.15772e-06 46.6937 7.73114 46.6937 22.4906C46.6937 25.583 45.0615 30.1046 44.2454 31.9788L23.6094 74.5L2.97305 31.9788C2.15694 30.1046 0.524712 25.583 0.524712 22.4906C0.524712 7.73113 11.3677 3.15772e-06 23.6094 3.15772e-06Z" fill="#404F44"/>
<path fill-rule="evenodd" clip-rule="evenodd" d="M16.4953 11C16.7714 11 16.9953 11.2239 16.9953 11.5V15.6001H18.9755V11.5C18.9755 11.2239 19.1994 11 19.4755 11C19.7517 11 19.9755 11.2239 19.9755 11.5V15.6001H21.9558V12.075V11.5C21.9558 11.2239 22.1796 11 22.4558 11C22.7319 11 22.9558 11.2239 22.9558 11.5V12.075V16.1001V19.1295C22.9558 19.9162 22.574 20.654 21.9317 21.1083C21.5545 21.3752 21.3302 21.8086 21.3302 22.2708V33.1457C21.3302 34.17 20.4998 35.0004 19.4755 35.0004C18.4512 35.0004 17.6209 34.17 17.6209 33.1457V22.2708C17.6209 21.8086 17.3966 21.3752 17.0193 21.1083C16.3771 20.654 15.9953 19.9162 15.9953 19.1295V16.1001V11.5C15.9953 11.2239 16.2191 11 16.4953 11ZM21.9558 16.6001H19.4755H16.9953V19.1295C16.9953 19.5917 17.2195 20.0251 17.5968 20.292C18.2391 20.7463 18.6209 21.4841 18.6209 22.2708V33.1457C18.6209 33.6177 19.0035 34.0004 19.4755 34.0004C19.9475 34.0004 20.3302 33.6177 20.3302 33.1457V22.2708C20.3302 21.4841 20.712 20.7463 21.3542 20.292C21.7315 20.0251 21.9558 19.5917 21.9558 19.1295V16.6001ZM25.5443 11.9461C26.1017 11.5323 26.8586 11.4438 27.5517 11.9014C28.8331 12.7472 30 14.2531 30 16.6751V16.6921V16.7091V16.7261V16.7431V16.7601V16.7771V16.7941V16.8112V16.8282V16.8453V16.8623V16.8794V16.8964V16.9135V16.9306V16.9477V16.9648V16.9819V16.999V17.0161V17.0332V17.0503V17.0674V17.0846V17.1017V17.1189V17.136V17.1532V17.1703V17.1875V17.2046V17.2218V17.239V17.2562V17.2734V17.2906V17.3078V17.325V17.3422V17.3594V17.3766V17.3938V17.411V17.4283V17.4455V17.4627V17.48V17.4972V17.5145V17.5317V17.549V17.5662V17.5835V17.6008V17.618V17.6353V17.6526V17.6699V17.6871V17.7044V17.7217V17.739V17.7563V17.7736V17.7909V17.8082V17.8255V17.8428V17.8601V17.8775V17.8948V17.9121V17.9294V17.9467V17.9641V17.9814V17.9987V18.0161V18.0334V18.0507V18.0681V18.0854V18.1027V18.1201V18.1374V18.1548V18.1721V18.1895V18.2068V18.2242V18.2415V18.2589V18.2762V18.2936V18.3109V18.3283V18.3456V18.363V18.3804V18.3977V18.4151V18.4324V18.4498V18.4672V18.4845V18.5019V18.5192V18.5366V18.5539V18.5713V18.5887V18.606V18.6234V18.6407V18.6581V18.6755V18.6928V18.7102V18.7275V18.7449V18.7622V18.7796V18.7969V18.8143V18.8316V18.849V18.8663V18.8837V18.901V18.9184V18.9357V18.953V18.9704V18.9877V19.005V19.0224V19.0397V19.057V19.0743V19.0917V19.109V19.1263V19.1436V19.1609V19.1782V19.1956V19.2129V19.2302V19.2475V19.2648V19.2821V19.2993V19.3166V19.3339V19.3512V19.3685V19.3858V19.403V19.4203V19.4376V19.4548V19.4721V19.4893V19.5066V19.5238V19.5411V19.5583V19.5756V19.5928V19.61V19.6272V19.6445V19.6617V19.6789V19.6961V19.7133V19.7305V19.7477V19.7649V19.782V19.7992V19.8164V19.8335V19.8507V19.8679V19.885V19.9022V19.9193V19.9364V19.9536V19.9707V19.9878V20.0049V20.022V20.0391V20.0562V20.0733V20.0904V20.1075V20.1245V20.1416V20.1587V20.1757V20.1928V20.2098V20.2268V20.2439V20.2609V20.2779V20.2949V20.3119V20.3289V20.3459V20.3628V20.3798V20.3968V20.4137V20.4307V20.4476V20.4645V20.4815V20.4984V20.5153V20.5322V20.5491V20.566V20.5829V20.5997V20.6166V20.6334V20.6503V20.6671V20.684V20.7008V20.7176V20.7344V20.7512V20.768V20.7848V20.8015V20.8183V20.835V20.8518V20.8685V20.8852V20.902V20.9187V20.9354V20.952V20.9687V20.9854V21.002V21.0187V21.0353V21.052V21.0686V21.0852V21.1018V21.1184V21.1349V21.1515V21.1681V21.1846V21.2012V21.2177V21.2342V21.2507V21.2672V21.2837V21.3002V21.3166V21.3331V21.3495V21.3659V21.3824V21.3988V21.4152V21.4315V21.4479V21.4643V21.4806V21.497V21.5133V21.5296V21.5459V21.5622V21.5785V21.5947V21.611V21.6272V21.6435V21.6597V21.6759V21.6921V21.7083V21.7244V21.7406V21.7567V21.7729V21.789V21.8051V21.8212V21.8373V21.8533V21.8694V21.8854V21.9014V21.9175V21.9335V21.9494V21.9654V21.9814V21.9973V22.0132V22.0292V22.0451V22.0609V22.0768V22.0927V22.1085V22.1244V22.1402V22.156V22.1718V22.1875V22.2033V22.2191V22.2348V22.2505V22.2662V22.2819V22.2976V22.3132V22.3289V22.3445V22.3601V22.3757V22.3913V22.4068V22.4224V22.4379V22.4534V22.4689V22.4844V22.4999V22.5154V22.5308V22.5462V22.5616V22.577V22.5924V22.6077V22.6231V22.6384V22.6537V22.669V22.6843V22.6996V22.7148V22.73V22.7452V22.7604V22.7756V22.7908V22.8059V22.821V22.8361V22.8512V22.8663V22.8813V22.8964V22.9114V22.9264V22.9414V22.9563V22.9713V22.9862V23.0011V23.016V23.0309V23.0458V23.0606V23.0754V23.0902V23.105V23.1198V23.1345V23.1492V23.164V23.1786V23.1933V23.208V23.2226V23.2372V23.2518V23.2664V23.2809V23.2955V23.31V23.3245V23.339V23.3534V23.3679V23.3823V23.3967V23.4111V23.4254V23.4398V23.4541V23.4684V23.4827V23.4969V23.5112V23.5254V23.5396V23.5538V23.5679V23.5821V23.5962V23.6103V23.6243V23.6384V23.6524V23.6664V23.6804V23.6944V23.7083V23.7223V23.7362V23.7501V23.7639V23.7778V23.7916V23.8054V23.8191V23.8329V23.8466V23.8603V23.874V23.8877V23.9013V23.9149V23.9285V23.9421V23.9557V23.9692V23.9827V23.9962V24.0097V24.0231V24.0365V24.0499V24.0633V24.0766V24.0899V24.1032V24.1165V24.1298V24.143V24.1562V24.1694V24.1826V24.1957V24.2088V24.2219V24.235V24.248V24.261V24.274V24.287V24.2999V24.3129V24.3257V24.3386V24.3515V24.3643V24.3771V24.3899V24.4026V24.4153V24.428V24.4407V24.4534V24.466V24.4786V24.4912V24.5037V24.5162V24.5287V24.5412V24.5536V24.5661V24.5785V24.5908V24.6032V24.6155V24.6278V24.64V24.6523V24.6645V24.6767V24.6888V24.701V24.7131V24.7252V24.7372V24.7493V24.7613V24.7732V24.7852V24.7971V24.809C30 25.6604 29.4265 26.3766 28.6453 26.5946V33.0103C28.6453 34.1094 27.7543 35.0004 26.6552 35.0004C25.5561 35.0004 24.6651 34.1094 24.6651 33.0103V26.1627V13.7828C24.6651 13.0316 25.0066 12.3452 25.5443 11.9461ZM27.6453 26.6627H25.6651V33.0103C25.6651 33.5571 26.1084 34.0004 26.6552 34.0004C27.202 34.0004 27.6453 33.5571 27.6453 33.0103V26.6627ZM25.6651 25.6627H28.1453C28.6178 25.6627 29 25.2806 29 24.809V24.7971V24.7852V24.7732V24.7613V24.7493V24.7372V24.7252V24.7131V24.701V24.6888V24.6767V24.6645V24.6523V24.64V24.6278V24.6155V24.6032V24.5908V24.5785V24.5661V24.5536V24.5412V24.5287V24.5162V24.5037V24.4912V24.4786V24.466V24.4534V24.4407V24.428V24.4153V24.4026V24.3899V24.3771V24.3643V24.3515V24.3386V24.3257V24.3129V24.2999V24.287V24.274V24.261V24.248V24.235V24.2219V24.2088V24.1957V24.1826V24.1694V24.1562V24.143V24.1298V24.1165V24.1032V24.0899V24.0766V24.0633V24.0499V24.0365V24.0231V24.0097V23.9962V23.9827V23.9692V23.9557V23.9421V23.9285V23.9149V23.9013V23.8877V23.874V23.8603V23.8466V23.8329V23.8191V23.8054V23.7916V23.7778V23.7639V23.7501V23.7362V23.7223V23.7083V23.6944V23.6804V23.6664V23.6524V23.6384V23.6243V23.6103V23.5962V23.5821V23.5679V23.5538V23.5396V23.5254V23.5112V23.4969V23.4827V23.4684V23.4541V23.4398V23.4254V23.4111V23.3967V23.3823V23.3679V23.3534V23.339V23.3245V23.31V23.2955V23.2809V23.2664V23.2518V23.2372V23.2226V23.208V23.1933V23.1786V23.164V23.1492V23.1345V23.1198V23.105V23.0902V23.0754V23.0606V23.0458V23.0309V23.016V23.0011V22.9862V22.9713V22.9563V22.9414V22.9264V22.9114V22.8964V22.8813V22.8663V22.8512V22.8361V22.821V22.8059V22.7908V22.7756V22.7604V22.7452V22.73V22.7148V22.6996V22.6843V22.669V22.6537V22.6384V22.6231V22.6077V22.5924V22.577V22.5616V22.5462V22.5308V22.5154V22.4999V22.4844V22.4689V22.4534V22.4379V22.4224V22.4068V22.3913V22.3757V22.3601V22.3445V22.3289V22.3132V22.2976V22.2819V22.2662V22.2505V22.2348V22.2191V22.2033V22.1875V22.1718V22.156V22.1402V22.1244V22.1085V22.0927V22.0768V22.0609V22.0451V22.0292V22.0132V21.9973V21.9814V21.9654V21.9494V21.9335V21.9175V21.9014V21.8854V21.8694V21.8533V21.8373V21.8212V21.8051V21.789V21.7729V21.7567V21.7406V21.7244V21.7083V21.6921V21.6759V21.6597V21.6435V21.6272V21.611V21.5947V21.5785V21.5622V21.5459V21.5296V21.5133V21.497V21.4806V21.4643V21.4479V21.4315V21.4152V21.3988V21.3824V21.3659V21.3495V21.3331V21.3166V21.3002V21.2837V21.2672V21.2507V21.2342V21.2177V21.2012V21.1846V21.1681V21.1515V21.1349V21.1184V21.1018V21.0852V21.0686V21.052V21.0353V21.0187V21.002V20.9854V20.9687V20.952V20.9354V20.9187V20.902V20.8852V20.8685V20.8518V20.835V20.8183V20.8015V20.7848V20.768V20.7512V20.7344V20.7176V20.7008V20.684V20.6671V20.6503V20.6334V20.6166V20.5997V20.5829V20.566V20.5491V20.5322V20.5153V20.4984V20.4815V20.4645V20.4476V20.4307V20.4137V20.3968V20.3798V20.3628V20.3459V20.3289V20.3119V20.2949V20.2779V20.2609V20.2439V20.2268V20.2098V20.1928V20.1757V20.1587V20.1416V20.1245V20.1075V20.0904V20.0733V20.0562V20.0391V20.022V20.0049V19.9878V19.9707V19.9536V19.9364V19.9193V19.9022V19.885V19.8679V19.8507V19.8335V19.8164V19.7992V19.782V19.7649V19.7477V19.7305V19.7133V19.6961V19.6789V19.6617V19.6445V19.6272V19.61V19.5928V19.5756V19.5583V19.5411V19.5238V19.5066V19.4893V19.4721V19.4548V19.4376V19.4203V19.403V19.3858V19.3685V19.3512V19.3339V19.3166V19.2993V19.2821V19.2648V19.2475V19.2302V19.2129V19.1956V19.1782V19.1609V19.1436V19.1263V19.109V19.0917V19.0743V19.057V19.0397V19.0224V19.005V18.9877V18.9704V18.953V18.9357V18.9184V18.901V18.8837V18.8663V18.849V18.8316V18.8143V18.7969V18.7796V18.7622V18.7449V18.7275V18.7102V18.6928V18.6755V18.6581V18.6407V18.6234V18.606V18.5887V18.5713V18.5539V18.5366V18.5192V18.5019V18.4845V18.4672V18.4498V18.4324V18.4151V18.3977V18.3804V18.363V18.3456V18.3283V18.3109V18.2936V18.2762V18.2589V18.2415V18.2242V18.2068V18.1895V18.1721V18.1548V18.1374V18.1201V18.1027V18.0854V18.0681V18.0507V18.0334V18.0161V17.9987V17.9814V17.9641V17.9467V17.9294V17.9121V17.8948V17.8775V17.8601V17.8428V17.8255V17.8082V17.7909V17.7736V17.7563V17.739V17.7217V17.7044V17.6871V17.6699V17.6526V17.6353V17.618V17.6008V17.5835V17.5662V17.549V17.5317V17.5145V17.4972V17.48V17.4627V17.4455V17.4283V17.411V17.3938V17.3766V17.3594V17.3422V17.325V17.3078V17.2906V17.2734V17.2562V17.239V17.2218V17.2046V17.1875V17.1703V17.1532V17.136V17.1189V17.1017V17.0846V17.0674V17.0503V17.0332V17.0161V16.999V16.9819V16.9648V16.9477V16.9306V16.9135V16.8964V16.8794V16.8623V16.8453V16.8282V16.8112V16.7941V16.7771V16.7601V16.7431V16.7261V16.7091V16.6921V16.6751C29 14.631 28.0387 13.421 27.0008 12.7359C26.685 12.5274 26.3862 12.5665 26.1403 12.749C25.8747 12.9462 25.6651 13.325 25.6651 13.7828V25.6627Z" fill="white"/>
</svg>
