<svg width="47" height="75" viewBox="0 0 47 75" fill="none" xmlns="http://www.w3.org/2000/svg">
<path d="M23.6093 3.15772e-06C35.851 3.15772e-06 46.6936 7.73114 46.6936 22.4906C46.6936 25.583 45.0614 30.1046 44.2453 31.9788L23.6093 74.5L2.97293 31.9788C2.15681 30.1046 0.52459 25.583 0.52459 22.4906C0.52459 7.73113 11.3675 3.15772e-06 23.6093 3.15772e-06Z" fill="#404F44"/>
<path fill-rule="evenodd" clip-rule="evenodd" d="M21 21H20H12V25H20H21V26V34H25V26V25H26H34V21H26H25V20V12H21V20V21ZM20 19V20H19H12H11V21V25V26H12H19H20V27V34V35H21H25H26V34V27V26H27H34H35V25V21V20H34H27H26V19V12V11H25H21H20V12V19Z" fill="white"/>
</svg>
