<svg width="24" height="24" viewBox="0 0 24 24" fill="none" xmlns="http://www.w3.org/2000/svg">
<path fill-rule="evenodd" clip-rule="evenodd" d="M19.2307 7.10534C19.3033 7.08221 19.3988 7.12847 19.4943 7.2557C19.4943 7.2557 19.4943 7.2557 23.8107 11.5198C24.0628 11.7743 24.0628 12.1598 23.8107 12.3487C23.8107 12.3487 23.8107 12.3487 19.4943 16.6784C19.3988 16.8056 19.3033 16.8364 19.2307 16.7979C19.1581 16.7593 19.1123 16.6475 19.1123 16.4856V7.38293C19.1123 7.22486 19.1581 7.12847 19.2307 7.10534Z" fill="#979AAF"/>
<path fill-rule="evenodd" clip-rule="evenodd" d="M11.8476 0H12.1532L12.4473 0.123374C12.4473 0.123374 12.4473 0.123374 16.8898 4.58024C17.0808 4.8347 17.0158 5.02747 16.6988 5.02747C16.6988 5.02747 16.6988 5.02747 14.8576 5.02747C14.5406 5.02747 14.2885 5.28193 14.2885 5.60193C14.2885 5.60193 14.2885 5.60193 14.2885 8.90988C14.2885 9.22988 14.0325 9.48434 13.6506 9.48434C13.6506 9.48434 13.6506 9.48434 10.4152 9.48434C10.0981 9.48434 9.84218 9.22988 9.84218 8.90988C9.84218 8.90988 9.84218 8.90988 9.84218 5.60193C9.84218 5.28193 9.59007 5.02747 9.26921 5.02747H7.302C6.98495 5.02747 6.92001 4.8347 7.111 4.58024C7.111 4.58024 7.111 4.58024 11.5573 0.123374L11.8476 0Z" fill="#979AAF"/>
<path fill-rule="evenodd" clip-rule="evenodd" d="M4.88747 7.00869C4.96769 7.04725 5.01735 7.15905 5.01735 7.32098V16.6126C5.01735 16.7745 4.96769 16.8709 4.88747 16.9017C4.81108 16.9326 4.7003 16.9017 4.57043 16.8053C4.57043 16.8053 4.57043 16.8053 0.189082 12.3485C-0.0630272 12.1595 -0.0630272 11.774 0.189082 11.5195C0.189082 11.5195 0.189082 11.5195 4.57043 7.12821C4.7003 7.00098 4.81108 6.97014 4.88747 7.00869Z" fill="#979AAF"/>
<path fill-rule="evenodd" clip-rule="evenodd" d="M10.4147 14.3232C10.4147 14.3232 10.4147 14.3232 13.6501 14.3232C14.0321 14.3232 14.288 14.5777 14.288 14.8977C14.288 14.8977 14.288 14.8977 14.288 18.3984C14.288 18.7801 14.5401 19.0346 14.8571 19.0346H16.5722C16.8893 19.0346 17.0153 19.2235 16.7632 19.4163C16.7632 19.4163 16.7632 19.4163 12.4468 23.8076C12.3169 23.9348 12.1603 24.0004 11.9999 24.0004C11.8433 24.0004 11.6829 23.9348 11.5568 23.8076C11.5568 23.8076 11.5568 23.8076 7.24039 19.4163C6.98446 19.2235 7.11052 19.0346 7.42756 19.0346C7.42756 19.0346 7.42756 19.0346 9.26872 19.0346C9.58959 19.0346 9.8417 18.7801 9.8417 18.3984C9.8417 18.3984 9.8417 18.3984 9.8417 14.8977C9.8417 14.5777 10.0976 14.3232 10.4147 14.3232Z" fill="#979AAF"/>
</svg>
