<svg width="24" height="25" viewBox="0 0 24 25" fill="none" xmlns="http://www.w3.org/2000/svg">
<path fill-rule="evenodd" clip-rule="evenodd" d="M6.43383 1.63515C3.06705 2.06345 0.61219 5.43652 1.05773 9.25699C1.41779 12.3444 3.54951 14.6734 6.13118 15.2273V12.832L3.81174 10.3801C3.62197 10.1795 3.63076 9.86302 3.83136 9.67325C4.03197 9.48348 4.34842 9.49227 4.53819 9.69287L6.13118 11.3768V11.3241V6.02363C6.13118 5.74749 6.35504 5.52363 6.63118 5.52363C6.90732 5.52363 7.13118 5.74749 7.13118 6.02363V10.0723L9.71043 7.35841C9.90067 7.15824 10.2172 7.1502 10.4173 7.34043C10.6175 7.53067 10.6255 7.84715 10.4353 8.04731L7.13118 11.5238V12.6329V15.3503C7.42737 15.3601 7.72704 15.3465 8.02837 15.3082C8.41236 15.2593 8.78334 15.1728 9.13883 15.0523C8.88369 14.7118 8.73254 14.2889 8.73254 13.8307C8.73254 12.7047 9.64536 11.7919 10.7714 11.7919H12.7729C12.7741 11.7258 12.7885 11.6588 12.8174 11.5945C13.3395 10.432 13.5677 9.08597 13.4045 7.68632C12.9589 3.86585 9.80061 1.20685 6.43383 1.63515ZM13.8165 11.7919C14.3492 10.5125 14.5713 9.05934 14.3965 7.56013C13.8974 3.28063 10.318 0.133032 6.318 0.641884C2.318 1.15074 -0.433346 5.10369 0.0657272 9.38318C0.478964 12.9266 3.00408 15.6941 6.13118 16.2523V20.7133C5.92335 20.7312 5.68811 20.7694 5.44776 20.8502C5.10452 20.4676 4.51307 20.0532 3.68789 20.0532C3.01311 20.0532 2.42122 20.2956 1.99779 20.726C1.57573 21.155 1.34833 21.7428 1.34833 22.3855C1.34833 22.8419 1.43236 23.2514 1.54439 23.5869H0.862854C0.586712 23.5869 0.362854 23.8108 0.362854 24.0869C0.362854 24.3631 0.586712 24.5869 0.862854 24.5869H2.33887H8.47074H9.69273L11.6939 24.5869L17.5415 24.5869L19.5705 24.5869L19.9329 24.5869H22.3244H23.5078C23.784 24.5869 24.0078 24.3631 24.0078 24.0869C24.0078 23.8108 23.784 23.5869 23.5078 23.5869H22.3244H20.9742C21.0266 23.4351 21.0551 23.272 21.0551 23.1024V20.999H21.4775C22.6036 20.999 23.5164 20.0862 23.5164 18.9602C23.5164 17.8342 22.6036 16.9214 21.4775 16.9214H20.0704V15.8696H20.493C21.6191 15.8696 22.5319 14.9568 22.5319 13.8307C22.5319 12.7047 21.619 11.7919 20.493 11.7919H13.8165ZM19.0704 15.8696V16.9214H12.1939V15.8696H19.0704ZM11.1939 15.8696V16.9214H9.78676C8.66074 16.9214 7.74792 17.8342 7.74792 18.9602C7.74792 20.0862 8.66074 20.999 9.78676 20.999H10.2094V23.1024C10.2094 23.272 10.2378 23.4351 10.2902 23.5869H9.69273H9.24017L9.24027 23.5767C9.24027 22.6977 8.95686 21.9724 8.46797 21.4635C8.1002 21.0808 7.63383 20.8394 7.13118 20.744V16.3534C7.46469 16.3616 7.80292 16.3448 8.1442 16.3014C8.75555 16.2237 9.3398 16.0643 9.88865 15.8345C9.94684 15.8101 9.99813 15.7761 10.0414 15.735C10.2681 15.8219 10.5142 15.8696 10.7714 15.8696H11.1939ZM17.5415 23.5869H18.1668C18.1144 23.4351 18.0859 23.272 18.0859 23.1024V20.999H13.1785V23.1024C13.1785 23.272 13.15 23.4351 13.0976 23.5869H17.5415ZM19.0859 23.1024C19.0859 23.37 19.3029 23.5869 19.5705 23.5869C19.8381 23.5869 20.0551 23.37 20.0551 23.1024V21.3387H19.0859V23.1024ZM11.6939 23.5869C11.4263 23.5869 11.2094 23.37 11.2094 23.1024V21.3387H12.1785V23.1024C12.1785 23.37 11.9615 23.5869 11.6939 23.5869ZM2.62204 23.5869H8.24037L8.24027 23.5767C8.24027 22.9169 8.0314 22.4525 7.74687 22.1564C7.46089 21.8587 7.06696 21.6973 6.63118 21.6973C6.26853 21.6973 5.87447 21.7056 5.53128 21.9029L5.08458 22.1595L4.84138 21.7053C4.73375 21.5043 4.32877 21.0532 3.68789 21.0532C3.25893 21.0532 2.93104 21.2033 2.71062 21.4274C2.48884 21.6528 2.34833 21.9811 2.34833 22.3855C2.34833 22.9087 2.49936 23.3379 2.62204 23.5869ZM9.73254 13.8307C9.73254 13.257 10.1976 12.7919 10.7714 12.7919H20.493C21.0668 12.7919 21.5319 13.257 21.5319 13.8307C21.5319 14.4045 21.0668 14.8696 20.493 14.8696H10.7714C10.1976 14.8696 9.73254 14.4045 9.73254 13.8307ZM9.78676 17.9214C9.21303 17.9214 8.74792 18.3865 8.74792 18.9602C8.74792 19.5339 9.21303 19.999 9.78676 19.999H21.4775C22.0513 19.999 22.5164 19.5339 22.5164 18.9602C22.5164 18.3865 22.0513 17.9214 21.4775 17.9214H9.78676Z" fill="#979AAF"/>
</svg>
