<svg width="47" height="75" viewBox="0 0 47 75" fill="none" xmlns="http://www.w3.org/2000/svg">
<path d="M23.6093 3.15772e-06C35.851 3.15772e-06 46.6936 7.73114 46.6936 22.4906C46.6936 25.583 45.0614 30.1046 44.2453 31.9788L23.6093 74.5L2.97293 31.9788C2.15681 30.1046 0.52459 25.583 0.52459 22.4906C0.52459 7.73113 11.3675 3.15772e-06 23.6093 3.15772e-06Z" fill="#404F44"/>
<path fill-rule="evenodd" clip-rule="evenodd" d="M17.4338 12.6354C14.067 13.0637 11.6122 16.4368 12.0577 20.2572C12.4178 23.3447 14.5495 25.6736 17.1312 26.2276V23.8322L14.8117 21.3803C14.622 21.1797 14.6308 20.8633 14.8314 20.6735C15.032 20.4837 15.3484 20.4925 15.5382 20.6931L17.1312 22.3771V22.3244V17.0239C17.1312 16.7477 17.355 16.5239 17.6312 16.5239C17.9073 16.5239 18.1312 16.7477 18.1312 17.0239V21.0725L20.7104 18.3586C20.9007 18.1585 21.2172 18.1504 21.4173 18.3407C21.6175 18.5309 21.6255 18.8474 21.4353 19.0476L18.1312 22.5241V23.6332V26.3506C18.4274 26.3603 18.727 26.3467 19.0284 26.3084C19.4124 26.2596 19.7833 26.173 20.1388 26.0525C19.8837 25.7121 19.7325 25.2892 19.7325 24.831C19.7325 23.705 20.6454 22.7921 21.7714 22.7921H23.7729C23.7741 22.7261 23.7885 22.659 23.8174 22.5947C24.3395 21.4323 24.5677 20.0862 24.4045 18.6866C23.9589 14.8661 20.8006 12.2071 17.4338 12.6354ZM24.8165 22.7921C25.3492 21.5127 25.5713 20.0596 25.3965 18.5604C24.8974 14.2809 21.318 11.1333 17.318 11.6421C13.318 12.151 10.5667 16.1039 11.0657 20.3834C11.479 23.9269 14.0041 26.6943 17.1312 27.2526V31.7135C16.9233 31.7315 16.6881 31.7696 16.4478 31.8504C16.1045 31.4678 15.5131 31.0534 14.6879 31.0534C14.0131 31.0534 13.4212 31.2959 12.9978 31.7263C12.5757 32.1552 12.3483 32.7431 12.3483 33.3857C12.3483 33.8422 12.4324 34.2516 12.5444 34.5872H11.8629C11.5867 34.5872 11.3629 34.811 11.3629 35.0872C11.3629 35.3633 11.5867 35.5872 11.8629 35.5872H13.3389H19.4707H20.6927L22.6939 35.5872L28.5415 35.5872L30.5705 35.5872L30.9329 35.5872H33.3244H34.5078C34.784 35.5872 35.0078 35.3633 35.0078 35.0872C35.0078 34.811 34.784 34.5872 34.5078 34.5872H33.3244H31.9742C32.0266 34.4353 32.0551 34.2723 32.0551 34.1026V31.9993H32.4775C33.6036 31.9993 34.5164 31.0865 34.5164 29.9604C34.5164 28.8344 33.6036 27.9216 32.4775 27.9216H31.0704V26.8698H31.493C32.6191 26.8698 33.5319 25.957 33.5319 24.831C33.5319 23.705 32.619 22.7921 31.493 22.7921H24.8165ZM30.0704 26.8698V27.9216H23.1939V26.8698H30.0704ZM22.1939 26.8698V27.9216H20.7868C19.6607 27.9216 18.7479 28.8344 18.7479 29.9604C18.7479 31.0865 19.6607 31.9993 20.7868 31.9993H21.2094V34.1026C21.2094 34.2723 21.2378 34.4353 21.2902 34.5872H20.6927H20.2402L20.2403 34.577C20.2403 33.698 19.9569 32.9726 19.468 32.4638C19.1002 32.081 18.6338 31.8397 18.1312 31.7442V27.3536C18.4647 27.3619 18.8029 27.3451 19.1442 27.3017C19.7556 27.2239 20.3398 27.0646 20.8886 26.8347C20.9468 26.8104 20.9981 26.7763 21.0414 26.7353C21.2681 26.8222 21.5142 26.8698 21.7714 26.8698H22.1939ZM28.5415 34.5872H29.1668C29.1144 34.4353 29.0859 34.2723 29.0859 34.1026V31.9993H24.1785V34.1026C24.1785 34.2723 24.15 34.4353 24.0976 34.5872H28.5415ZM30.0859 34.1026C30.0859 34.3702 30.3029 34.5872 30.5705 34.5872C30.8381 34.5872 31.0551 34.3702 31.0551 34.1026V32.339H30.0859V34.1026ZM22.6939 34.5872C22.4263 34.5872 22.2094 34.3702 22.2094 34.1026V32.339H23.1785V34.1026C23.1785 34.3702 22.9615 34.5872 22.6939 34.5872ZM13.622 34.5872H19.2404L19.2403 34.577C19.2403 33.9171 19.0314 33.4528 18.7469 33.1566C18.4609 32.859 18.067 32.6976 17.6312 32.6976C17.2685 32.6976 16.8745 32.7059 16.5313 32.9031L16.0846 33.1598L15.8414 32.7056C15.7337 32.5046 15.3288 32.0534 14.6879 32.0534C14.2589 32.0534 13.931 32.2036 13.7106 32.4276C13.4888 32.653 13.3483 32.9814 13.3483 33.3857C13.3483 33.9089 13.4994 34.3381 13.622 34.5872ZM20.7325 24.831C20.7325 24.2572 21.1976 23.7921 21.7714 23.7921H31.493C32.0668 23.7921 32.5319 24.2572 32.5319 24.831C32.5319 25.4047 32.0668 25.8698 31.493 25.8698H21.7714C21.1976 25.8698 20.7325 25.4047 20.7325 24.831ZM20.7868 28.9216C20.213 28.9216 19.7479 29.3867 19.7479 29.9604C19.7479 30.5342 20.213 30.9993 20.7868 30.9993H32.4775C33.0513 30.9993 33.5164 30.5342 33.5164 29.9604C33.5164 29.3867 33.0513 28.9216 32.4775 28.9216H20.7868Z" fill="white"/>
</svg>
