<svg width="47" height="75" viewBox="0 0 47 75" fill="none" xmlns="http://www.w3.org/2000/svg">
<path d="M23.6094 3.15772e-06C35.8511 3.15772e-06 46.6937 7.73114 46.6937 22.4906C46.6937 25.583 45.0615 30.1046 44.2454 31.9788L23.6094 74.5L2.97305 31.9788C2.15694 30.1046 0.524712 25.583 0.524712 22.4906C0.524712 7.73113 11.3677 3.15772e-06 23.6094 3.15772e-06Z" fill="#EFF0F7"/>
<path fill-rule="evenodd" clip-rule="evenodd" d="M11.5 16C11.5 14.6193 12.6193 13.5 14 13.5H23.4062C24.787 13.5 25.9062 14.6193 25.9062 16V25.5154H27.399C28.9477 25.5154 30.2031 26.7708 30.2031 28.3195V33.8516C30.2031 34.762 30.9412 35.5 31.8516 35.5C32.762 35.5 33.5 34.762 33.5 33.8516V23.6589C32.9625 24.4672 32.0435 25 31 25C29.3431 25 28 23.6569 28 22C28 20.3431 29.3431 19 31 19C31.504 19 31.979 19.1243 32.3959 19.3439C32.2637 19.1442 32.1203 18.9511 31.9661 18.7655L28.9748 15.1657C28.7983 14.9533 28.8274 14.6381 29.0398 14.4616C29.2522 14.2851 29.5674 14.3142 29.7439 14.5266L32.7352 18.1263C33.8757 19.4988 34.5 21.227 34.5 23.0115V33.8516C34.5 35.3143 33.3143 36.5 31.8516 36.5C30.3889 36.5 29.2031 35.3143 29.2031 33.8516V28.3195C29.2031 27.3231 28.3954 26.5154 27.399 26.5154H25.9062V36V36.5H25.4062H12H11.5V36V16ZM14 14.5C13.1716 14.5 12.5 15.1716 12.5 16V35.5H24.9062V26.0154V16C24.9062 15.1716 24.2347 14.5 23.4062 14.5H14ZM14.5938 17.8769C14.5938 17.0485 15.2653 16.3769 16.0938 16.3769H21.4844C22.3128 16.3769 22.9844 17.0485 22.9844 17.8769V22.8V23.3H22.4844H15.0938H14.5938V22.8V17.8769ZM16.0938 17.3769C15.8176 17.3769 15.5938 17.6008 15.5938 17.8769V22.3H21.9844V17.8769C21.9844 17.6008 21.7605 17.3769 21.4844 17.3769H16.0938ZM18.5 32.5C19.0369 32.5 19.5478 32.2951 19.9215 31.9364C20.2945 31.5783 20.5 31.0972 20.5 30.6C20.5 29.9051 19.9984 29.1292 19.3831 28.4647C19.0886 28.1466 18.7923 27.8798 18.569 27.6922C18.5451 27.6721 18.5221 27.653 18.5 27.6348C18.4779 27.653 18.4549 27.6721 18.431 27.6922C18.2077 27.8798 17.9114 28.1466 17.6169 28.4647C17.0016 29.1292 16.5 29.9051 16.5 30.6C16.5 31.0972 16.7055 31.5783 17.0785 31.9364C17.4522 32.2951 17.9631 32.5 18.5 32.5ZM18.5 27C18.7922 26.5942 18.7923 26.5943 18.7924 26.5944L18.7926 26.5946L18.7934 26.5951L18.7955 26.5966L18.8024 26.6017L18.8265 26.6195C18.847 26.6348 18.8762 26.6567 18.9128 26.685C18.986 26.7414 19.0891 26.8231 19.2122 26.9265C19.4577 27.1327 19.7864 27.4284 20.1169 27.7853C20.7516 28.4708 21.5 29.4949 21.5 30.6C21.5 31.3759 21.1788 32.1156 20.614 32.6577C20.05 33.1992 19.2892 33.5 18.5 33.5C17.7108 33.5 16.95 33.1992 16.386 32.6577C15.8212 32.1156 15.5 31.3759 15.5 30.6C15.5 29.4949 16.2484 28.4708 16.8831 27.7853C17.2136 27.4284 17.5423 27.1327 17.7878 26.9265C17.9109 26.8231 18.014 26.7414 18.0872 26.685C18.1238 26.6567 18.153 26.6348 18.1735 26.6195L18.1976 26.6017L18.2045 26.5966L18.2066 26.5951L18.2074 26.5946L18.2076 26.5944C18.2077 26.5943 18.2078 26.5942 18.5 27ZM18.5 27L18.2078 26.5942C18.3824 26.4686 18.6176 26.4686 18.7922 26.5942L18.5 27ZM33 22C33 23.1046 32.1046 24 31 24C29.8954 24 29 23.1046 29 22C29 20.8954 29.8954 20 31 20C32.1046 20 33 20.8954 33 22Z" fill="#1A1A1D"/>
</svg>
