<svg width="24" height="24" viewBox="0 0 24 24" fill="none" xmlns="http://www.w3.org/2000/svg">
<path fill-rule="evenodd" clip-rule="evenodd" d="M0.5 3C0.5 1.61929 1.61929 0.5 3 0.5H12.4062C13.787 0.5 14.9062 1.61929 14.9062 3V12.5154H16.399C17.9477 12.5154 19.2031 13.7708 19.2031 15.3195V20.8516C19.2031 21.762 19.9412 22.5 20.8516 22.5C21.762 22.5 22.5 21.762 22.5 20.8516V10.6589C21.9625 11.4672 21.0435 12 20 12C18.3431 12 17 10.6569 17 9C17 7.34315 18.3431 6 20 6C20.504 6 20.979 6.12428 21.3959 6.34387C21.2637 6.14423 21.1203 5.95109 20.9661 5.76545L17.9748 2.16571C17.7983 1.95332 17.8274 1.63808 18.0398 1.4616C18.2522 1.28511 18.5674 1.31421 18.7439 1.5266L21.7352 5.12634C22.8757 6.4988 23.5 8.22702 23.5 10.0115V20.8516C23.5 22.3143 22.3143 23.5 20.8516 23.5C19.3889 23.5 18.2031 22.3143 18.2031 20.8516V15.3195C18.2031 14.3231 17.3954 13.5154 16.399 13.5154H14.9062V23V23.5H14.4062H1H0.5V23V3ZM3 1.5C2.17157 1.5 1.5 2.17157 1.5 3V22.5H13.9062V13.0154V3C13.9062 2.17157 13.2347 1.5 12.4062 1.5H3ZM3.59375 4.87692C3.59375 4.0485 4.26532 3.37692 5.09375 3.37692H10.4844C11.3128 3.37692 11.9844 4.04849 11.9844 4.87692V9.8V10.3H11.4844H4.09375H3.59375V9.8V4.87692ZM5.09375 4.37692C4.81761 4.37692 4.59375 4.60078 4.59375 4.87692V9.3H10.9844V4.87692C10.9844 4.60078 10.7605 4.37692 10.4844 4.37692H5.09375ZM7.5 19.5C8.03687 19.5 8.54785 19.2951 8.9215 18.9364C9.29446 18.5783 9.5 18.0972 9.5 17.6C9.5 16.9051 8.99842 16.1292 8.38312 15.4647C8.08855 15.1466 7.7923 14.8798 7.56903 14.6922C7.54511 14.6721 7.52207 14.653 7.5 14.6348C7.47794 14.653 7.45489 14.6721 7.43097 14.6922C7.2077 14.8798 6.91145 15.1466 6.61688 15.4647C6.00158 16.1292 5.5 16.9051 5.5 17.6C5.5 18.0972 5.70554 18.5783 6.0785 18.9364C6.45215 19.2951 6.96313 19.5 7.5 19.5ZM7.5 14C7.79215 13.5942 7.79226 13.5943 7.79237 13.5944L7.79264 13.5946L7.79336 13.5951L7.79549 13.5966L7.8024 13.6017L7.82653 13.6195C7.84704 13.6348 7.87622 13.6567 7.91282 13.685C7.98599 13.7414 8.08911 13.8231 8.21222 13.9265C8.4577 14.1327 8.78645 14.4284 9.11688 14.7853C9.75158 15.4708 10.5 16.4949 10.5 17.6C10.5 18.3759 10.1788 19.1156 9.61403 19.6577C9.05 20.1992 8.28921 20.5 7.5 20.5C6.71079 20.5 5.95 20.1992 5.38597 19.6577C4.82124 19.1156 4.5 18.3759 4.5 17.6C4.5 16.4949 5.24842 15.4708 5.88312 14.7853C6.21355 14.4284 6.5423 14.1327 6.78778 13.9265C6.91089 13.8231 7.01401 13.7414 7.08718 13.685C7.12378 13.6567 7.15296 13.6348 7.17347 13.6195L7.1976 13.6017L7.20452 13.5966L7.20664 13.5951L7.20736 13.5946L7.20763 13.5944C7.20774 13.5943 7.20785 13.5942 7.5 14ZM7.5 14L7.20785 13.5942C7.38235 13.4686 7.61765 13.4686 7.79215 13.5942L7.5 14ZM22 9C22 10.1046 21.1046 11 20 11C18.8954 11 18 10.1046 18 9C18 7.89543 18.8954 7 20 7C21.1046 7 22 7.89543 22 9Z" fill="#979AAF"/>
</svg>
