<svg width="47" height="75" viewBox="0 0 47 75" fill="none" xmlns="http://www.w3.org/2000/svg">
<path d="M23.609 3.15772e-06C35.8507 3.15772e-06 46.6934 7.73114 46.6934 22.4906C46.6934 25.583 45.0611 30.1046 44.245 31.9788L23.609 74.5L2.97268 31.9788C2.15657 30.1046 0.524345 25.583 0.524345 22.4906C0.524345 7.73113 11.3673 3.15772e-06 23.609 3.15772e-06Z" fill="#404F44"/>
<path fill-rule="evenodd" clip-rule="evenodd" d="M31.2307 17.1053C31.3033 17.0822 31.3988 17.1285 31.4943 17.2557C31.4943 17.2557 31.4943 17.2557 35.8107 21.5198C36.0628 21.7743 36.0628 22.1598 35.8107 22.3487C35.8107 22.3487 35.8107 22.3487 31.4943 26.6784C31.3988 26.8056 31.3033 26.8364 31.2307 26.7979C31.1581 26.7593 31.1123 26.6475 31.1123 26.4856V17.3829C31.1123 17.2249 31.1581 17.1285 31.2307 17.1053Z" fill="white"/>
<path fill-rule="evenodd" clip-rule="evenodd" d="M23.8476 10H24.1532L24.4473 10.1234C24.4473 10.1234 24.4473 10.1234 28.8898 14.5802C29.0808 14.8347 29.0158 15.0275 28.6988 15.0275C28.6988 15.0275 28.6988 15.0275 26.8576 15.0275C26.5406 15.0275 26.2885 15.2819 26.2885 15.6019C26.2885 15.6019 26.2885 15.6019 26.2885 18.9099C26.2885 19.2299 26.0325 19.4843 25.6506 19.4843C25.6506 19.4843 25.6506 19.4843 22.4152 19.4843C22.0981 19.4843 21.8422 19.2299 21.8422 18.9099C21.8422 18.9099 21.8422 18.9099 21.8422 15.6019C21.8422 15.2819 21.5901 15.0275 21.2692 15.0275H19.302C18.9849 15.0275 18.92 14.8347 19.111 14.5802C19.111 14.5802 19.111 14.5802 23.5573 10.1234L23.8476 10Z" fill="white"/>
<path fill-rule="evenodd" clip-rule="evenodd" d="M16.8875 17.0097C16.9677 17.0482 17.0173 17.16 17.0173 17.322V26.6135C17.0173 26.7755 16.9677 26.8718 16.8875 26.9027C16.8111 26.9335 16.7003 26.9027 16.5704 26.8063C16.5704 26.8063 16.5704 26.8063 12.1891 22.3494C11.937 22.1605 11.937 21.775 12.1891 21.5205C12.1891 21.5205 12.1891 21.5205 16.5704 17.1292C16.7003 17.002 16.8111 16.9711 16.8875 17.0097Z" fill="white"/>
<path fill-rule="evenodd" clip-rule="evenodd" d="M22.4147 24.3223C22.4147 24.3223 22.4147 24.3223 25.6501 24.3223C26.0321 24.3223 26.288 24.5767 26.288 24.8967C26.288 24.8967 26.288 24.8967 26.288 28.3974C26.288 28.7791 26.5401 29.0336 26.8571 29.0336H28.5722C28.8893 29.0336 29.0153 29.2225 28.7632 29.4153C28.7632 29.4153 28.7632 29.4153 24.4468 33.8066C24.3169 33.9338 24.1603 33.9994 23.9999 33.9994C23.8433 33.9994 23.6829 33.9338 23.5568 33.8066C23.5568 33.8066 23.5568 33.8066 19.2404 29.4153C18.9845 29.2225 19.1105 29.0336 19.4276 29.0336C19.4276 29.0336 19.4276 29.0336 21.2687 29.0336C21.5896 29.0336 21.8417 28.7791 21.8417 28.3974C21.8417 28.3974 21.8417 28.3974 21.8417 24.8967C21.8417 24.5767 22.0976 24.3223 22.4147 24.3223Z" fill="white"/>
</svg>
