<svg width="47" height="75" viewBox="0 0 47 75" fill="none" xmlns="http://www.w3.org/2000/svg">
<path d="M23.6093 3.15772e-06C35.851 3.15772e-06 46.6936 7.73114 46.6936 22.4906C46.6936 25.583 45.0614 30.1046 44.2453 31.9788L23.6093 74.5L2.97293 31.9788C2.15681 30.1046 0.52459 25.583 0.52459 22.4906C0.52459 7.73113 11.3675 3.15772e-06 23.6093 3.15772e-06Z" fill="#AB876F"/>
<path fill-rule="evenodd" clip-rule="evenodd" d="M11.9996 12C11.7235 12 11.4996 12.2239 11.4996 12.5C11.4996 12.7761 11.7235 13 11.9996 13H13.987L14.5302 14.8589L15.8918 19.518L17.2533 24.1772L18.161 27.2833L18.2662 27.643H18.641H31.9369C32.2131 27.643 32.4369 27.4192 32.4369 27.143C32.4369 26.8669 32.2131 26.643 31.9369 26.643H19.0158L18.4003 24.5369H21.8503H27.8106H32.3954H32.8L32.8844 24.1412L34.8712 14.8229L35 14.2186H34.3822H28.5747H20.9334H15.385L14.8417 12.3598L14.7366 12H14.3618H11.9996ZM21.2987 23.5369H18.1081L17.0387 19.8778H20.9386L21.2987 23.5369ZM20.8402 18.8778H16.7465L15.6772 15.2186H20.4802L20.8402 18.8778ZM21.8451 18.8778L21.485 15.2186H28.032L27.732 18.8778H21.8451ZM28.7353 18.8778L29.0354 15.2186H33.7643L32.9841 18.8778H28.7353ZM28.6533 19.8778H32.7709L31.9908 23.5369H28.3533L28.6533 19.8778ZM27.65 19.8778L27.3499 23.5369H22.3036L21.9435 19.8778H27.65ZM29.0992 29.5315L29.0992 29.5315C29.3517 29.2719 29.6905 29.1193 30.0603 29.1193C30.4301 29.1193 30.7689 29.2719 31.0213 29.5315C31.2743 29.7916 31.4336 30.1531 31.4336 30.5598C31.4336 30.9665 31.2743 31.328 31.0214 31.588C30.7689 31.8477 30.43 32.0003 30.0603 32.0003C29.6904 32.0003 29.3517 31.8477 29.0992 31.5881C28.8463 31.328 28.687 30.9664 28.687 30.5598C28.687 30.153 28.8463 29.7916 29.0992 29.5315ZM20.2055 29.5321L20.2061 29.5315C20.4585 29.2719 20.7974 29.1193 21.1671 29.1193C21.5369 29.1193 21.8758 29.2719 22.1282 29.5315L22.1282 29.5315C22.3811 29.7916 22.5405 30.1531 22.5405 30.5598C22.5405 30.9665 22.3811 31.328 22.1282 31.588L22.1282 31.5881C21.8757 31.8477 21.5369 32.0003 21.1671 32.0003C20.7973 32.0003 20.4585 31.8477 20.2061 31.5881L20.2061 31.5881C19.9531 31.328 19.7938 30.9664 19.7938 30.5598C19.7938 30.1526 19.9534 29.7908 20.2055 29.5321ZM23.5405 30.5598C23.5405 31.2336 23.2749 31.8433 22.8451 32.2852C22.4154 32.7271 21.8223 33.0003 21.1671 33.0003C20.5119 33.0003 19.9189 32.7271 19.4892 32.2852C19.0594 31.8433 18.7938 31.2335 18.7938 30.5598C18.7938 29.886 19.0594 29.2755 19.4892 28.8343C19.9189 28.3924 20.5119 28.1193 21.1671 28.1193C21.8223 28.1193 22.4154 28.3924 22.8451 28.8343C23.2749 29.2762 23.5405 29.886 23.5405 30.5598ZM28.3823 28.8343C28.8121 28.3924 29.4051 28.1193 30.0603 28.1193C30.7155 28.1193 31.3085 28.3924 31.7383 28.8343C32.168 29.2762 32.4336 29.886 32.4336 30.5598C32.4336 31.2336 32.168 31.8433 31.7383 32.2852C31.3085 32.7271 30.7155 33.0003 30.0603 33.0003C29.405 33.0003 28.8121 32.7271 28.3823 32.2852C27.9526 31.8433 27.687 31.2335 27.687 30.5598C27.687 29.886 27.9526 29.2762 28.3823 28.8343Z" fill="white"/>
</svg>
