<svg width="24" height="24" viewBox="0 0 24 24" fill="none" xmlns="http://www.w3.org/2000/svg">
<path fill-rule="evenodd" clip-rule="evenodd" d="M17.8821 4H15.8261C14.9977 4 14.3261 4.67157 14.3261 5.5V9.00185H9.67102V5.5C9.67102 4.67157 8.99945 4 8.17102 4H6.11508C5.44641 4 4.87993 4.43753 4.68632 5.04192C4.57336 5.01474 4.45543 5.00033 4.33414 5.00033H3.29684C2.46842 5.00033 1.79684 5.67191 1.79684 6.50033V9.00185H1.49716C0.668736 9.00185 -0.00283813 9.67342 -0.00283813 10.5018V12.503C-0.00283813 13.3314 0.668734 14.003 1.49716 14.003H1.79684V16.5044C1.79684 17.3328 2.46842 18.0044 3.29684 18.0044H4.33414C4.45543 18.0044 4.57335 17.99 4.68629 17.9628C4.87989 18.5673 5.44639 19.0048 6.11508 19.0048H8.17102C8.99945 19.0048 9.67102 18.3332 9.67102 17.5048V14.003H14.3261V17.5048C14.3261 18.3332 14.9977 19.0048 15.8261 19.0048H17.8821C18.5508 19.0048 19.1173 18.5673 19.3109 17.9628C19.4238 17.99 19.5418 18.0044 19.6631 18.0044H20.7003C21.5288 18.0044 22.2003 17.3328 22.2003 16.5044V14.003H22.5C23.3284 14.003 24 13.3314 24 12.503V10.5018C24 9.67342 23.3284 9.00185 22.5 9.00185H22.2003V6.50033C22.2003 5.67191 21.5288 5.00033 20.7003 5.00033H19.6631C19.5417 5.00033 19.4238 5.01473 19.3108 5.04192C19.1172 4.43753 18.5507 4 17.8821 4ZM2.79684 9.00185H3.01581V10.0018V13.003V14.003H2.79684V16.5044C2.79684 16.7805 3.0207 17.0044 3.29684 17.0044H4.33414C4.43829 17.0044 4.53501 16.9726 4.61508 16.9181V6.08667C4.53501 6.03218 4.43829 6.00033 4.33414 6.00033H3.29684C3.0207 6.00033 2.79684 6.22419 2.79684 6.50033V9.00185ZM1.79684 13.003H1.49716C1.26807 13.003 1.07496 12.8489 1.01581 12.6387C1.00366 12.5955 0.997162 12.55 0.997162 12.503V10.5018C0.997162 10.4548 1.00366 10.4093 1.01581 10.3661C1.07496 10.1559 1.26807 10.0018 1.49716 10.0018H1.79684V13.003ZM5.61508 5.5V5.71942C5.75405 5.94689 5.83414 6.21426 5.83414 6.50033V16.5044C5.83414 16.7905 5.75405 17.0578 5.61508 17.2853V17.5048C5.61508 17.781 5.83894 18.0048 6.11508 18.0048H8.17102C8.44716 18.0048 8.67102 17.781 8.67102 17.5048V14.003H8.45187V13.003V10.0018V9.00185H8.67102V5.5C8.67102 5.22386 8.44716 5 8.17102 5H6.11508C5.83894 5 5.61508 5.22386 5.61508 5.5ZM9.67102 10.0018V13.003H10.4519H13.5451H14.3261V10.0018H13.5451H10.4519H9.67102ZM15.3261 5.5V9.00185H15.5451V10.0018V13.003V14.003H15.3261V17.5048C15.3261 17.781 15.55 18.0048 15.8261 18.0048H17.8821C18.1582 18.0048 18.3821 17.781 18.3821 17.5048V17.2853C18.2431 17.0578 18.1631 16.7905 18.1631 16.5044V6.50033C18.1631 6.21428 18.2431 5.94693 18.3821 5.71947V5.5C18.3821 5.22386 18.1582 5 17.8821 5H15.8261C15.55 5 15.3261 5.22386 15.3261 5.5ZM19.3821 6.08669C19.4622 6.03219 19.5589 6.00033 19.6631 6.00033H20.7003C20.9765 6.00033 21.2003 6.22419 21.2003 6.50033V9.00185H20.9814V10.0018V13.003V14.003H21.2003V16.5044C21.2003 16.7805 20.9765 17.0044 20.7003 17.0044H19.6631C19.5589 17.0044 19.4622 16.9726 19.3821 16.918V6.08669ZM22.5 10.0018H22.2003V13.003H22.5C22.7291 13.003 22.9222 12.8489 22.9814 12.6387C22.9935 12.5955 23 12.55 23 12.503V10.5018C23 10.4548 22.9935 10.4093 22.9814 10.3661C22.9222 10.1559 22.7291 10.0018 22.5 10.0018Z" fill="#979AAF"/>
</svg>
