<svg width="47" height="75" viewBox="0 0 47 75" fill="none" xmlns="http://www.w3.org/2000/svg">
<path d="M23.609 3.15772e-06C35.8507 3.15772e-06 46.6934 7.73114 46.6934 22.4906C46.6934 25.583 45.0611 30.1046 44.245 31.9788L23.609 74.5L2.97268 31.9788C2.15657 30.1046 0.524345 25.583 0.524345 22.4906C0.524345 7.73113 11.3673 3.15772e-06 23.609 3.15772e-06Z" fill="#EFF0F7"/>
<path fill-rule="evenodd" clip-rule="evenodd" d="M29.8821 14H27.8261C26.9977 14 26.3261 14.6716 26.3261 15.5V19.0018H21.671V15.5C21.671 14.6716 20.9994 14 20.171 14H18.1151C17.4464 14 16.8799 14.4375 16.6863 15.0419C16.5734 15.0147 16.4554 15.0003 16.3341 15.0003H15.2968C14.4684 15.0003 13.7968 15.6719 13.7968 16.5003V19.0018H13.4972C12.6687 19.0018 11.9972 19.6734 11.9972 20.5018V22.503C11.9972 23.3314 12.6687 24.003 13.4972 24.003H13.7968V26.5044C13.7968 27.3328 14.4684 28.0044 15.2968 28.0044H16.3341C16.4554 28.0044 16.5733 27.99 16.6863 27.9628C16.8799 28.5673 17.4464 29.0048 18.1151 29.0048H20.171C20.9994 29.0048 21.671 28.3332 21.671 27.5048V24.003H26.3261V27.5048C26.3261 28.3332 26.9977 29.0048 27.8261 29.0048H29.8821C30.5508 29.0048 31.1173 28.5673 31.3109 27.9628C31.4238 27.99 31.5418 28.0044 31.6631 28.0044H32.7003C33.5288 28.0044 34.2003 27.3328 34.2003 26.5044V24.003H34.5C35.3284 24.003 36 23.3314 36 22.503V20.5018C36 19.6734 35.3284 19.0018 34.5 19.0018H34.2003V16.5003C34.2003 15.6719 33.5288 15.0003 32.7003 15.0003H31.6631C31.5417 15.0003 31.4238 15.0147 31.3108 15.0419C31.1172 14.4375 30.5507 14 29.8821 14ZM14.7968 19.0018H15.0158V20.0018V23.003V24.003H14.7968V26.5044C14.7968 26.7805 15.0207 27.0044 15.2968 27.0044H16.3341C16.4383 27.0044 16.535 26.9726 16.6151 26.9181V16.0867C16.535 16.0322 16.4383 16.0003 16.3341 16.0003H15.2968C15.0207 16.0003 14.7968 16.2242 14.7968 16.5003V19.0018ZM13.7968 23.003H13.4972C13.2681 23.003 13.075 22.8489 13.0158 22.6387C13.0037 22.5955 12.9972 22.55 12.9972 22.503V20.5018C12.9972 20.4548 13.0037 20.4093 13.0158 20.3661C13.075 20.1559 13.2681 20.0018 13.4972 20.0018H13.7968V23.003ZM17.6151 15.5V15.7194C17.7541 15.9469 17.8341 16.2143 17.8341 16.5003V26.5044C17.8341 26.7905 17.7541 27.0578 17.6151 27.2853V27.5048C17.6151 27.781 17.8389 28.0048 18.1151 28.0048H20.171C20.4472 28.0048 20.671 27.781 20.671 27.5048V24.003H20.4519V23.003V20.0018V19.0018H20.671V15.5C20.671 15.2239 20.4472 15 20.171 15H18.1151C17.8389 15 17.6151 15.2239 17.6151 15.5ZM21.671 20.0018V23.003H22.4519H25.5451H26.3261V20.0018H25.5451H22.4519H21.671ZM27.3261 15.5V19.0018H27.5451V20.0018V23.003V24.003H27.3261V27.5048C27.3261 27.781 27.55 28.0048 27.8261 28.0048H29.8821C30.1582 28.0048 30.3821 27.781 30.3821 27.5048V27.2853C30.2431 27.0578 30.1631 26.7905 30.1631 26.5044V16.5003C30.1631 16.2143 30.2431 15.9469 30.3821 15.7195V15.5C30.3821 15.2239 30.1582 15 29.8821 15H27.8261C27.55 15 27.3261 15.2239 27.3261 15.5ZM31.3821 16.0867C31.4622 16.0322 31.5589 16.0003 31.6631 16.0003H32.7003C32.9765 16.0003 33.2003 16.2242 33.2003 16.5003V19.0018H32.9814V20.0018V23.003V24.003H33.2003V26.5044C33.2003 26.7805 32.9765 27.0044 32.7003 27.0044H31.6631C31.5589 27.0044 31.4622 26.9726 31.3821 26.918V16.0867ZM34.5 20.0018H34.2003V23.003H34.5C34.7291 23.003 34.9222 22.8489 34.9814 22.6387C34.9935 22.5955 35 22.55 35 22.503V20.5018C35 20.4548 34.9935 20.4093 34.9814 20.3661C34.9222 20.1559 34.7291 20.0018 34.5 20.0018Z" fill="#1A1A1D"/>
</svg>
