<svg width="24" height="24" viewBox="0 0 24 24" fill="none" xmlns="http://www.w3.org/2000/svg">
<path fill-rule="evenodd" clip-rule="evenodd" d="M0.999619 1C0.723476 1 0.499619 1.22386 0.499619 1.5C0.499619 1.77614 0.723476 2 0.999619 2H2.98702L3.53024 3.85889L4.89179 8.51804L6.25334 13.1772L7.16104 16.2833L7.26617 16.643H7.64097H20.9369C21.2131 16.643 21.4369 16.4192 21.4369 16.143C21.4369 15.8669 21.2131 15.643 20.9369 15.643H8.01577L7.4003 13.5369H10.8503H16.8106H21.3954H21.8L21.8844 13.1412L23.8712 3.8229L24 3.21864H23.3822H17.5747H9.93338H4.38497L3.84174 1.35975L3.73661 1H3.36181H0.999619ZM10.2987 12.5369H7.10807L6.03875 8.87779H9.93864L10.2987 12.5369ZM9.84024 7.87779H5.74652L4.6772 4.21864H9.48016L9.84024 7.87779ZM10.8451 7.87779L10.485 4.21864H17.032L16.732 7.87779H10.8451ZM17.7353 7.87779L18.0354 4.21864H22.7643L21.9841 7.87779H17.7353ZM17.6533 8.87779H21.7709L20.9908 12.5369H17.3533L17.6533 8.87779ZM16.65 8.87779L16.3499 12.5369H11.3036L10.9435 8.87779H16.65ZM18.0992 18.5315L18.0992 18.5315C18.3517 18.2719 18.6905 18.1193 19.0603 18.1193C19.4301 18.1193 19.7689 18.2719 20.0213 18.5315C20.2743 18.7916 20.4336 19.1531 20.4336 19.5598C20.4336 19.9665 20.2743 20.328 20.0214 20.588C19.7689 20.8477 19.43 21.0003 19.0603 21.0003C18.6904 21.0003 18.3517 20.8477 18.0992 20.5881C17.8463 20.328 17.687 19.9664 17.687 19.5598C17.687 19.153 17.8463 18.7916 18.0992 18.5315ZM9.2055 18.5321L9.20608 18.5315C9.45855 18.2719 9.79736 18.1193 10.1671 18.1193C10.5369 18.1193 10.8758 18.2719 11.1282 18.5315L11.1282 18.5315C11.3811 18.7916 11.5405 19.1531 11.5405 19.5598C11.5405 19.9665 11.3811 20.328 11.1282 20.588L11.1282 20.5881C10.8757 20.8477 10.5369 21.0003 10.1671 21.0003C9.79734 21.0003 9.45853 20.8477 9.2061 20.5881L9.20608 20.5881C8.95315 20.328 8.79381 19.9664 8.79381 19.5598C8.79381 19.1526 8.95344 18.7908 9.2055 18.5321ZM12.5405 19.5598C12.5405 20.2336 12.2749 20.8433 11.8451 21.2852C11.4154 21.7271 10.8223 22.0003 10.1671 22.0003C9.51194 22.0003 8.91891 21.7271 8.48918 21.2852C8.05942 20.8433 7.79381 20.2335 7.79381 19.5598C7.79381 18.886 8.05942 18.2755 8.48918 17.8343C8.91893 17.3924 9.51194 17.1193 10.1671 17.1193C10.8223 17.1193 11.4154 17.3924 11.8451 17.8343C12.2749 18.2762 12.5405 18.886 12.5405 19.5598ZM17.3823 17.8343C17.8121 17.3924 18.4051 17.1193 19.0603 17.1193C19.7155 17.1193 20.3085 17.3924 20.7383 17.8343C21.168 18.2762 21.4336 18.886 21.4336 19.5598C21.4336 20.2336 21.168 20.8433 20.7383 21.2852C20.3085 21.7271 19.7155 22.0003 19.0603 22.0003C18.405 22.0003 17.8121 21.7271 17.3823 21.2852C16.9526 20.8433 16.687 20.2335 16.687 19.5598C16.687 18.886 16.9526 18.2762 17.3823 17.8343Z" fill="#979AAF"/>
</svg>
