<svg width="47" height="75" viewBox="0 0 47 75" fill="none" xmlns="http://www.w3.org/2000/svg">
<path d="M23.609 3.15772e-06C35.8507 3.15772e-06 46.6934 7.73114 46.6934 22.4906C46.6934 25.583 45.0611 30.1046 44.245 31.9788L23.609 74.5L2.97268 31.9788C2.15657 30.1046 0.524345 25.583 0.524345 22.4906C0.524345 7.73113 11.3673 3.15772e-06 23.609 3.15772e-06Z" fill="#EFF0F7"/>
<path fill-rule="evenodd" clip-rule="evenodd" d="M14.3383 15.3947H14.4167H19.5278H28.8958C28.8251 14.9235 28.6541 14.6127 28.4506 14.4111C28.1802 14.1432 27.7839 14 27.2813 14H27.2603H27.2392H27.218H27.1969H27.1757H27.1545H27.1333H27.1121H27.0908H27.0695H27.0482H27.0268H27.0055H26.9841H26.9627H26.9412H26.9197H26.8983H26.8767H26.8552H26.8337H26.8121H26.7905H26.7689H26.7472H26.7255H26.7038H26.6821H26.6604H26.6386H26.6169H26.595H26.5732H26.5514H26.5295H26.5076H26.4857H26.4638H26.4418H26.4199H26.3979H26.3759H26.3538H26.3318H26.3097H26.2876H26.2655H26.2434H26.2212H26.1991H26.1769H26.1547H26.1324H26.1102H26.0879H26.0656H26.0433H26.021H25.9987H25.9763H25.954H25.9316H25.9092H25.8867H25.8643H25.8418H25.8193H25.7968H25.7743H25.7518H25.7293H25.7067H25.6841H25.6615H25.6389H25.6163H25.5936H25.571H25.5483H25.5256H25.5029H25.4802H25.4574H25.4347H25.4119H25.3891H25.3664H25.3435H25.3207H25.2979H25.275H25.2522H25.2293H25.2064H25.1835H25.1606H25.1376H25.1147H25.0917H25.0687H25.0458H25.0228H24.9998H24.9767H24.9537H24.9306H24.9076H24.8845H24.8614H24.8383H24.8152H24.7921H24.769H24.7458H24.7227H24.6995H24.6764H24.6532H24.63H24.6068H24.5836H24.5603H24.5371H24.5139H24.4906H24.4673H24.4441H24.4208H24.3975H24.3742H24.3509H24.3276H24.3042H24.2809H24.2576H24.2342H24.2108H24.1875H24.1641H24.1407H24.1173H24.0939H24.0705H24.0471H24.0237H24.0003H23.9768H23.9534H23.9299H23.9065H23.883H23.8595H23.8361H23.8126H23.7891H23.7656H23.7421H23.7186H23.6951H23.6716H23.6481H23.6246H23.601H23.5775H23.554H23.5304H23.5069H23.4833H23.4598H23.4362H23.4126H23.3891H23.3655H23.3419H23.3184H23.2948H23.2712H23.2476H23.224H23.2004H23.1769H23.1533H23.1297H23.1061H23.0825H23.0589H23.0353H23.0116H22.988H22.9644H22.9408H22.9172H22.8936H22.87H22.8464H22.8228H22.7991H22.7755H22.7519H22.7283H22.7047H22.6811H22.6574H22.6338H22.6102H22.5866H22.563H22.5394H22.5158H22.4922H22.4686H22.4449H22.4213H22.3977H22.3741H22.3505H22.3269H22.3033H22.2798H22.2562H22.2326H22.209H22.1854H22.1618H22.1383H22.1147H22.0911H22.0675H22.044H22.0204H21.9969H21.9733H21.9498H21.9262H21.9027H21.8792H21.8556H21.8321H21.8086H21.7851H21.7616H21.7381H21.7146H21.6911H21.6676H21.6441H21.6207H21.5972H21.5737H21.5503H21.5268H21.5034H21.4799H21.4565H21.4331H21.4097H21.3863H21.3629H21.3395H21.3161H21.2927H21.2694H21.246H21.2226H21.1993H21.176H21.1526H21.1293H21.106H21.0827H21.0594H21.0361H21.0129H20.9896H20.9663H20.9431H20.9199H20.8966H20.8734H20.8502H20.827H20.8038H20.7807H20.7575H20.7344H20.7112H20.6881H20.665H20.6419H20.6188H20.5957H20.5726H20.5495H20.5265H20.5035H20.4804H20.4574H20.4344H20.4114H20.3885H20.3655H20.3426H20.3196H20.2967H20.2738H20.2509H20.228H20.2052H20.1823H20.1595H20.1366H20.1138H20.091H20.0683H20.0455H20.0227H20H19.9773H19.9546H19.9319H19.9092H19.8866H19.8639H19.8413H19.8187H19.7961H19.7735H19.7509H19.7284H19.7059H19.6834H19.6609H19.6384H19.6159H19.5935H19.571H19.5486H19.5262H19.5039H19.4815H19.4592H19.4369H19.4146H19.3923H19.37H19.3478H19.3255H19.3033H19.2811H19.259H19.2368H19.2147H19.1926H19.1705H19.1484H19.1264H19.1043H19.0823H19.0603H19.0384H19.0164H18.9945H18.9726H18.9507H18.9288H18.907H18.8851H18.8633H18.8416H18.8198H18.7981H18.7764H18.7547H18.733H18.7113H18.6897H18.6681H18.6465H18.625H18.6034H18.5819H18.5604H18.539H18.5175H18.4961H18.4747H18.4534H18.432H18.4107H18.3894H18.3681H18.3469H18.3257H18.3045H18.2833H18.2621H18.241H18.2199H18.1989H18.1778H18.1568H18.1358H18.1148H18.0939H18.073H18.0521H18.0312H18.0104H17.9896H17.9688H17.948H17.9273H17.9066H17.8859H17.8653H17.8447H17.8241H17.8035H17.783H17.7625H17.742H17.7216H17.7011H17.6808H17.6604H17.6401H17.6198H17.5995H17.5792H17.559H17.5388H17.5187H17.4985H17.4784H17.4584H17.4383H17.4183H17.3984H17.3784H17.3585H17.3386H17.3188H17.2989H17.2792H17.2594H17.2397H17.22H17.2003H17.1807H17.1611H17.1415H17.122H17.1025H17.083H17.0636H17.0442H17.0248H17.0055H16.9861H16.9669H16.9476H16.9284H16.9093H16.8901H16.871H16.852H16.8329H16.8139H16.795H16.776H16.7571H16.7383H16.7194H16.7006H16.6819H16.6632H16.6445H16.6258H16.6072H16.5886H16.5701H16.5516H16.5331H16.5147H16.4963H16.4779H16.4596H16.4413H16.4231H16.4049H16.3867H16.3686H16.3505H16.3324H16.3144H16.2964H16.2784H16.2605H16.2427H16.2248H16.207H16.1893H16.1716H16.1539H16.1362H16.1186H16.1011H16.0836H16.0661H16.0486H16.0312H16.0139C15.2973 14 14.889 14.3065 14.6399 14.677C14.4892 14.9011 14.3933 15.1564 14.3383 15.3947ZM29.4085 14C29.6749 14.3742 29.8422 14.8418 29.9038 15.3947H33.5833H33.6617C33.6067 15.1564 33.5108 14.9011 33.3601 14.677C33.111 14.3065 32.7027 14 31.9861 14H31.9821H31.978H31.974H31.9699H31.9658H31.9616H31.9574H31.9532H31.949H31.9448H31.9405H31.9362H31.9319H31.9275H31.9231H31.9187H31.9143H31.9099H31.9054H31.9009H31.8964H31.8918H31.8873H31.8827H31.878H31.8734H31.8687H31.864H31.8593H31.8546H31.8498H31.845H31.8402H31.8353H31.8305H31.8256H31.8207H31.8157H31.8107H31.8058H31.8007H31.7957H31.7906H31.7856H31.7805H31.7753H31.7702H31.765H31.7598H31.7545H31.7493H31.744H31.7387H31.7334H31.728H31.7227H31.7173H31.7118H31.7064H31.7009H31.6954H31.6899H31.6844H31.6788H31.6732H31.6676H31.662H31.6563H31.6507H31.645H31.6392H31.6335H31.6277H31.6219H31.6161H31.6103H31.6044H31.5985H31.5926H31.5867H31.5807H31.5747H31.5687H31.5627H31.5566H31.5506H31.5445H31.5384H31.5322H31.526H31.5199H31.5137H31.5074H31.5012H31.4949H31.4886H31.4823H31.4759H31.4696H31.4632H31.4568H31.4503H31.4439H31.4374H31.4309H31.4244H31.4178H31.4113H31.4047H31.3981H31.3914H31.3848H31.3781H31.3714H31.3647H31.3579H31.3512H31.3444H31.3376H31.3307H31.3239H31.317H31.3101H31.3032H31.2963H31.2893H31.2823H31.2753H31.2683H31.2612H31.2542H31.2471H31.24H31.2328H31.2257H31.2185H31.2113H31.2041H31.1968H31.1896H31.1823H31.175H31.1677H31.1603H31.153H31.1456H31.1382H31.1307H31.1233H31.1158H31.1083H31.1008H31.0933H31.0857H31.0782H31.0706H31.0629H31.0553H31.0476H31.04H31.0323H31.0246H31.0168H31.0091H31.0013H30.9935H30.9856H30.9778H30.9699H30.9621H30.9542H30.9462H30.9383H30.9303H30.9223H30.9143H30.9063H30.8983H30.8902H30.8821H30.874H30.8659H30.8578H30.8496H30.8414H30.8332H30.825H30.8167H30.8085H30.8002H30.7919H30.7836H30.7752H30.7669H30.7585H30.7501H30.7417H30.7332H30.7248H30.7163H30.7078H30.6993H30.6908H30.6822H30.6736H30.665H30.6564H30.6478H30.6391H30.6305H30.6218H30.6131H30.6044H30.5956H30.5868H30.5781H30.5693H30.5604H30.5516H30.5427H30.5339H30.525H30.5161H30.5071H30.4982H30.4892H30.4802H30.4712H30.4622H30.4531H30.4441H30.435H30.4259H30.4168H30.4076H30.3985H30.3893H30.3801H30.3709H30.3617H30.3524H30.3432H30.3339H30.3246H30.3153H30.3059H30.2966H30.2872H30.2778H30.2684H30.259H30.2496H30.2401H30.2306H30.2211H30.2116H30.2021H30.1925H30.183H30.1734H30.1638H30.1542H30.1445H30.1349H30.1252H30.1155H30.1058H30.0961H30.0863H30.0766H30.0668H30.057H30.0472H30.0374H30.0275H30.0177H30.0078H29.9979H29.988H29.9781H29.9681H29.9582H29.9482H29.9382H29.9282H29.9181H29.9081H29.898H29.888H29.8779H29.8677H29.8576H29.8475H29.8373H29.8271H29.8169H29.8067H29.7965H29.7863H29.776H29.7657H29.7554H29.7451H29.7348H29.7244H29.7141H29.7037H29.6933H29.6829H29.6725H29.6621H29.6516H29.6411H29.6307H29.6201H29.6096H29.5991H29.5885H29.578H29.5674H29.5568H29.5462H29.5356H29.5249H29.5143H29.5036H29.4929H29.4822H29.4715H29.4607H29.45H29.4392H29.4284H29.4176H29.4085ZM34.0833 16.3947H34.2222H34.7222V15.8947C34.7222 15.4222 34.5937 14.7196 34.1899 14.1191C33.7682 13.4917 33.0584 13 31.9861 13H31.9821H31.978H31.974H31.9699H31.9658H31.9616H31.9574H31.9532H31.949H31.9448H31.9405H31.9362H31.9319H31.9275H31.9231H31.9187H31.9143H31.9099H31.9054H31.9009H31.8964H31.8918H31.8873H31.8827H31.878H31.8734H31.8687H31.864H31.8593H31.8546H31.8498H31.845H31.8402H31.8353H31.8305H31.8256H31.8207H31.8157H31.8107H31.8058H31.8007H31.7957H31.7906H31.7856H31.7805H31.7753H31.7702H31.765H31.7598H31.7545H31.7493H31.744H31.7387H31.7334H31.728H31.7227H31.7173H31.7118H31.7064H31.7009H31.6954H31.6899H31.6844H31.6788H31.6732H31.6676H31.662H31.6563H31.6507H31.645H31.6392H31.6335H31.6277H31.6219H31.6161H31.6103H31.6044H31.5985H31.5926H31.5867H31.5807H31.5747H31.5687H31.5627H31.5566H31.5506H31.5445H31.5384H31.5322H31.526H31.5199H31.5137H31.5074H31.5012H31.4949H31.4886H31.4823H31.4759H31.4696H31.4632H31.4568H31.4503H31.4439H31.4374H31.4309H31.4244H31.4178H31.4113H31.4047H31.3981H31.3914H31.3848H31.3781H31.3714H31.3647H31.3579H31.3512H31.3444H31.3376H31.3307H31.3239H31.317H31.3101H31.3032H31.2963H31.2893H31.2823H31.2753H31.2683H31.2612H31.2542H31.2471H31.24H31.2328H31.2257H31.2185H31.2113H31.2041H31.1968H31.1896H31.1823H31.175H31.1677H31.1603H31.153H31.1456H31.1382H31.1307H31.1233H31.1158H31.1083H31.1008H31.0933H31.0857H31.0782H31.0706H31.0629H31.0553H31.0476H31.04H31.0323H31.0246H31.0168H31.0091H31.0013H30.9935H30.9856H30.9778H30.9699H30.9621H30.9542H30.9462H30.9383H30.9303H30.9223H30.9143H30.9063H30.8983H30.8902H30.8821H30.874H30.8659H30.8578H30.8496H30.8414H30.8332H30.825H30.8167H30.8085H30.8002H30.7919H30.7836H30.7752H30.7669H30.7585H30.7501H30.7417H30.7332H30.7248H30.7163H30.7078H30.6993H30.6908H30.6822H30.6736H30.665H30.6564H30.6478H30.6391H30.6305H30.6218H30.6131H30.6044H30.5956H30.5868H30.5781H30.5693H30.5604H30.5516H30.5427H30.5339H30.525H30.5161H30.5071H30.4982H30.4892H30.4802H30.4712H30.4622H30.4531H30.4441H30.435H30.4259H30.4168H30.4076H30.3985H30.3893H30.3801H30.3709H30.3617H30.3524H30.3432H30.3339H30.3246H30.3153H30.3059H30.2966H30.2872H30.2778H30.2684H30.259H30.2496H30.2401H30.2306H30.2211H30.2116H30.2021H30.1925H30.183H30.1734H30.1638H30.1542H30.1445H30.1349H30.1252H30.1155H30.1058H30.0961H30.0863H30.0766H30.0668H30.057H30.0472H30.0374H30.0275H30.0177H30.0078H29.9979H29.988H29.9781H29.9681H29.9582H29.9482H29.9382H29.9282H29.9181H29.9081H29.898H29.888H29.8779H29.8677H29.8576H29.8475H29.8373H29.8271H29.8169H29.8067H29.7965H29.7863H29.776H29.7657H29.7554H29.7451H29.7348H29.7244H29.7141H29.7037H29.6933H29.6829H29.6725H29.6621H29.6516H29.6411H29.6307H29.6201H29.6096H29.5991H29.5885H29.578H29.5674H29.5568H29.5462H29.5356H29.5249H29.5143H29.5036H29.4929H29.4822H29.4715H29.4607H29.45H29.4392H29.4284H29.4176H29.4068H29.396H29.3852H29.3743H29.3634H29.3525H29.3416H29.3307H29.3198H29.3088H29.2979H29.2869H29.2759H29.2649H29.2539H29.2428H29.2318H29.2207H29.2096H29.1985H29.1874H29.1763H29.1652H29.154H29.1428H29.1316H29.1204H29.1092H29.098H29.0868H29.0755H29.0642H29.053H29.0417H29.0303H29.019H29.0077H28.9963H28.9849H28.9736H28.9622H28.9508H28.9393H28.9279H28.9164H28.905H28.8935H28.882H28.8705H28.859H28.8474H28.8359H28.8243H28.8127H28.8011H28.7895H28.7779H28.7663H28.7546H28.743H28.7313H28.7196H28.7079H28.6962H28.6845H28.6727H28.661H28.6492H28.6375H28.6257H28.6139H28.602H28.5902H28.5784H28.5665H28.5546H28.5428H28.5309H28.5189H28.507H28.4951H28.4831H28.4712H28.4592H28.4472H28.4352H28.4232H28.4112H28.3992H28.3871H28.3751H28.363H28.3509H28.3388H28.3267H28.3146H28.3024H28.2903H28.2781H28.2659H28.2538H28.2416H28.2294H28.2171H28.2049H28.1927H28.1804H28.1681H28.1559H28.1436H28.1313H28.1189H28.1066H28.0943H28.0819H28.0696H28.0572H28.0448H28.0324H28.02H28.0076H27.9951H27.9827H27.9702H27.9578H27.9453H27.9328H27.9203H27.9078H27.8952H27.8827H27.8702H27.8576H27.845H27.8325H27.8199H27.8073H27.7946H27.782H27.7694H27.7567H27.7441H27.7314H27.7187H27.706H27.6933H27.6806H27.6679H27.6552H27.6424H27.6297H27.6169H27.6041H27.5913H27.5785H27.5657H27.5529H27.5401H27.5272H27.5144H27.5015H27.4887H27.4758H27.4629H27.45H27.4371H27.4241H27.4112H27.3983H27.3853H27.3724H27.3594H27.3464H27.3334H27.3204H27.3074H27.2944H27.2813H27.2603H27.2392H27.218H27.1969H27.1757H27.1545H27.1333H27.1121H27.0908H27.0695H27.0482H27.0268H27.0055H26.9841H26.9627H26.9412H26.9197H26.8983H26.8767H26.8552H26.8337H26.8121H26.7905H26.7689H26.7472H26.7255H26.7038H26.6821H26.6604H26.6386H26.6169H26.595H26.5732H26.5514H26.5295H26.5076H26.4857H26.4638H26.4418H26.4199H26.3979H26.3759H26.3538H26.3318H26.3097H26.2876H26.2655H26.2434H26.2212H26.1991H26.1769H26.1547H26.1324H26.1102H26.0879H26.0656H26.0433H26.021H25.9987H25.9763H25.954H25.9316H25.9092H25.8867H25.8643H25.8418H25.8193H25.7968H25.7743H25.7518H25.7293H25.7067H25.6841H25.6615H25.6389H25.6163H25.5936H25.571H25.5483H25.5256H25.5029H25.4802H25.4574H25.4347H25.4119H25.3891H25.3664H25.3435H25.3207H25.2979H25.275H25.2522H25.2293H25.2064H25.1835H25.1606H25.1376H25.1147H25.0917H25.0687H25.0458H25.0228H24.9998H24.9767H24.9537H24.9306H24.9076H24.8845H24.8614H24.8383H24.8152H24.7921H24.769H24.7458H24.7227H24.6995H24.6764H24.6532H24.63H24.6068H24.5836H24.5603H24.5371H24.5139H24.4906H24.4673H24.4441H24.4208H24.3975H24.3742H24.3509H24.3276H24.3042H24.2809H24.2576H24.2342H24.2108H24.1875H24.1641H24.1407H24.1173H24.0939H24.0705H24.0471H24.0237H24.0003H23.9768H23.9534H23.9299H23.9065H23.883H23.8595H23.8361H23.8126H23.7891H23.7656H23.7421H23.7186H23.6951H23.6716H23.6481H23.6246H23.601H23.5775H23.554H23.5304H23.5069H23.4833H23.4598H23.4362H23.4126H23.3891H23.3655H23.3419H23.3184H23.2948H23.2712H23.2476H23.224H23.2004H23.1769H23.1533H23.1297H23.1061H23.0825H23.0589H23.0353H23.0116H22.988H22.9644H22.9408H22.9172H22.8936H22.87H22.8464H22.8228H22.7991H22.7755H22.7519H22.7283H22.7047H22.6811H22.6574H22.6338H22.6102H22.5866H22.563H22.5394H22.5158H22.4922H22.4686H22.4449H22.4213H22.3977H22.3741H22.3505H22.3269H22.3033H22.2798H22.2562H22.2326H22.209H22.1854H22.1618H22.1383H22.1147H22.0911H22.0675H22.044H22.0204H21.9969H21.9733H21.9498H21.9262H21.9027H21.8792H21.8556H21.8321H21.8086H21.7851H21.7616H21.7381H21.7146H21.6911H21.6676H21.6441H21.6207H21.5972H21.5737H21.5503H21.5268H21.5034H21.4799H21.4565H21.4331H21.4097H21.3863H21.3629H21.3395H21.3161H21.2927H21.2694H21.246H21.2226H21.1993H21.176H21.1526H21.1293H21.106H21.0827H21.0594H21.0361H21.0129H20.9896H20.9663H20.9431H20.9199H20.8966H20.8734H20.8502H20.827H20.8038H20.7807H20.7575H20.7344H20.7112H20.6881H20.665H20.6419H20.6188H20.5957H20.5726H20.5495H20.5265H20.5035H20.4804H20.4574H20.4344H20.4114H20.3885H20.3655H20.3426H20.3196H20.2967H20.2738H20.2509H20.228H20.2052H20.1823H20.1595H20.1366H20.1138H20.091H20.0683H20.0455H20.0227H20H19.9773H19.9546H19.9319H19.9092H19.8866H19.8639H19.8413H19.8187H19.7961H19.7735H19.7509H19.7284H19.7059H19.6834H19.6609H19.6384H19.6159H19.5935H19.571H19.5486H19.5262H19.5039H19.4815H19.4592H19.4369H19.4146H19.3923H19.37H19.3478H19.3255H19.3033H19.2811H19.259H19.2368H19.2147H19.1926H19.1705H19.1484H19.1264H19.1043H19.0823H19.0603H19.0384H19.0164H18.9945H18.9726H18.9507H18.9288H18.907H18.8851H18.8633H18.8416H18.8198H18.7981H18.7764H18.7547H18.733H18.7113H18.6897H18.6681H18.6465H18.625H18.6034H18.5819H18.5604H18.539H18.5175H18.4961H18.4747H18.4534H18.432H18.4107H18.3894H18.3681H18.3469H18.3257H18.3045H18.2833H18.2621H18.241H18.2199H18.1989H18.1778H18.1568H18.1358H18.1148H18.0939H18.073H18.0521H18.0312H18.0104H17.9896H17.9688H17.948H17.9273H17.9066H17.8859H17.8653H17.8447H17.8241H17.8035H17.783H17.7625H17.742H17.7216H17.7011H17.6808H17.6604H17.6401H17.6198H17.5995H17.5792H17.559H17.5388H17.5187H17.4985H17.4784H17.4584H17.4383H17.4183H17.3984H17.3784H17.3585H17.3386H17.3188H17.2989H17.2792H17.2594H17.2397H17.22H17.2003H17.1807H17.1611H17.1415H17.122H17.1025H17.083H17.0636H17.0442H17.0248H17.0055H16.9861H16.9669H16.9476H16.9284H16.9093H16.8901H16.871H16.852H16.8329H16.8139H16.795H16.776H16.7571H16.7383H16.7194H16.7006H16.6819H16.6632H16.6445H16.6258H16.6072H16.5886H16.5701H16.5516H16.5331H16.5147H16.4963H16.4779H16.4596H16.4413H16.4231H16.4049H16.3867H16.3686H16.3505H16.3324H16.3144H16.2964H16.2784H16.2605H16.2427H16.2248H16.207H16.1893H16.1716H16.1539H16.1362H16.1186H16.1011H16.0836H16.0661H16.0486H16.0312H16.0139C14.9416 13 14.2318 13.4917 13.8101 14.1191C13.4063 14.7196 13.2778 15.4222 13.2778 15.8947V16.3947H13.7778H13.9167V28H12.5C12.2239 28 12 28.2239 12 28.5C12 28.7761 12.2239 29 12.5 29H14.4167H19.5278H22.3611H25.5972H29.1111H33.5833H35.5C35.7761 29 36 28.7761 36 28.5C36 28.2239 35.7761 28 35.5 28H34.0833V16.3947ZM33.0833 16.3947H29.6111V23.4211V28H33.0833V16.3947ZM28.6111 28V23.9211H26.1769L25.486 24.9076L26.0185 28H28.6111ZM25.0038 28L24.4656 24.8743L24.4306 24.6714L24.5488 24.5027L25.4167 23.2634V20.9349L24.7009 20.4007L24.5 20.2507V20V20V20V19.9999V19.9999V19.9998V19.9997V19.9997V19.9996V19.9995V19.9994V19.9993V19.9991V19.999V19.9988V19.9987V19.9985V19.9983V19.9981V19.9979V19.9977V19.9975V19.9973V19.9971V19.9968V19.9965V19.9963V19.996V19.9957V19.9954V19.9951V19.9948V19.9945V19.9941V19.9938V19.9934V19.993V19.9927V19.9923V19.9919V19.9915V19.9911V19.9906V19.9902V19.9898V19.9893V19.9888V19.9884V19.9879V19.9874V19.9869V19.9864V19.9858V19.9853V19.9848V19.9842V19.9837V19.9831V19.9825V19.9819V19.9813V19.9807V19.9801V19.9795V19.9788V19.9782V19.9775V19.9769V19.9762V19.9755V19.9748V19.9741V19.9734V19.9727V19.972V19.9713V19.9705V19.9698V19.969V19.9682V19.9674V19.9666V19.9658V19.965V19.9642V19.9634V19.9625V19.9617V19.9608V19.96V19.9591V19.9582V19.9573V19.9564V19.9555V19.9546V19.9537V19.9528V19.9518V19.9509V19.9499V19.9489V19.948V19.947V19.946V19.945V19.944V19.9429V19.9419V19.9409V19.9398V19.9388V19.9377V19.9366V19.9356V19.9345V19.9334V19.9323V19.9311V19.93V19.9289V19.9277V19.9266V19.9254V19.9243V19.9231V19.9219V19.9207V19.9195V19.9183V19.9171V19.9159V19.9146V19.9134V19.9122V19.9109V19.9096V19.9084V19.9071V19.9058V19.9045V19.9032V19.9019V19.9006V19.8992V19.8979V19.8965V19.8952V19.8938V19.8925V19.8911V19.8897V19.8883V19.8869V19.8855V19.8841V19.8826V19.8812V19.8798V19.8783V19.8769V19.8754V19.8739V19.8724V19.871V19.8695V19.868V19.8664V19.8649V19.8634V19.8619V19.8603V19.8588V19.8572V19.8557V19.8541V19.8525V19.8509V19.8493V19.8477V19.8461V19.8445V19.8429V19.8412V19.8396V19.838V19.8363V19.8346V19.833V19.8313V19.8296V19.8279V19.8262V19.8245V19.8228V19.8211V19.8194V19.8176V19.8159V19.8141V19.8124V19.8106V19.8088V19.8071V19.8053V19.8035V19.8017V19.7999V19.7981V19.7963V19.7944V19.7926V19.7908V19.7889V19.7871V19.7852V19.7833V19.7815V19.7796V19.7777V19.7758V19.7739V19.772V19.7701V19.7681V19.7662V19.7643V19.7623V19.7604V19.7584V19.7565V19.7545V19.7525V19.7505V19.7485V19.7465V19.7445V19.7425V19.7405V19.7385V19.7365V19.7344V19.7324V19.7303V19.7283V19.7262V19.7242V19.7221V19.72V19.7179V19.7158V19.7137V19.7116V19.7095V19.7074V19.7053V19.7031V19.701V19.6989V19.6967V19.6945V19.6924V19.6902V19.688V19.6859V19.6837V19.6815V19.6793V19.6771V19.6749V19.6726V19.6704V19.6682V19.666V19.6637V19.6615V19.6592V19.657V19.6547V19.6524V19.6502V19.6479V19.6456V19.6433V19.641V19.6387V19.6364V19.6341V19.6317V19.6294V19.6271V19.6247V19.6224V19.62V19.6177V19.6153V19.6129V19.6106V19.6082V19.6058V19.6034V19.601V19.5986V19.5962V19.5938V19.5914V19.5889V19.5865V19.5841V19.5816V19.5792V19.5767V19.5743V19.5718V19.5694V19.5669V19.5644V19.5619V19.5594V19.5569V19.5545V19.5519V19.5494V19.5469V19.5444V19.5419V19.5393V19.5368V19.5343V19.5317V19.5292V19.5266V19.5241V19.5215V19.5189V19.5164V19.5138V19.5112V19.5086V19.506V19.5034V19.5008V19.4982V19.4956V19.493V19.4903V19.4877V19.4851V19.4824V19.4798V19.4771V19.4745V19.4718V19.4692V19.4665V19.4638V19.4611V19.4585V19.4558V19.4531V19.4504V19.4477V19.445V19.4423V19.4396V19.4368V19.4341V19.4314V19.4287V19.4259V19.4232V19.4204V19.4177V19.4149V19.4122V19.4094V19.4067V19.4039V19.4011V19.3983V19.3955V19.3928V19.39V19.3872V19.3844V19.3816V19.3788V19.3759V19.3731V19.3703V19.3675V19.3646V19.3618V19.359V19.3561V19.3533V19.3504V19.3476V19.3447V19.3419V19.339V19.3361V19.3333V19.3304V19.3275V19.3246V19.3217V19.3188V19.3159V19.313V19.3101V19.3072V19.3043V19.3014V19.2985V19.2955V19.2926V19.2897V19.2868V19.2838V19.2809V19.2779V19.275V19.272V19.2691V19.2661V19.2631V19.2602V19.2572V19.2542V19.2513V19.2483V19.2453V19.2423V19.2393V19.2363V19.2333V19.2303V19.2273V19.2243V19.2213V19.2183V19.2153V19.2122V19.2092V19.2062V19.2032V19.2001V19.1971V19.194V19.191V19.188V19.1849V19.1819V19.1788V19.1757V19.1727V19.1696V19.1665V19.1635V19.1604V19.1573V19.1542V19.1512V19.1481V19.145V19.1419V19.1388V19.1357V19.1326V19.1295V19.1264V19.1233V19.1202V19.117V19.1139V19.1108V19.1077V19.1046V19.1014V19.0983V19.0952V19.092V19.0889V19.0858V19.0826V19.0795V19.0763V19.0732V19.07V19.0668V19.0637V19.0605V19.0574V19.0542V19.051V19.0479V19.0447V19.0415V19.0383V19.0351V19.032V19.0288V19.0256V19.0224V19.0192V19.016V19.0128V19.0096V19.0064V19.0032V19C24.5 18.7904 24.4287 18.6816 24.3578 18.6193C24.2763 18.5479 24.15 18.5 24 18.5C23.9126 18.5 23.7834 18.5487 23.6661 18.6661C23.5487 18.7834 23.5 18.9126 23.5 19V19.0029V19.0059V19.0088V19.0117V19.0146V19.0176V19.0205V19.0234V19.0264V19.0293V19.0322V19.0351V19.0381V19.041V19.0439V19.0469V19.0498V19.0527V19.0556V19.0586V19.0615V19.0644V19.0673V19.0703V19.0732V19.0761V19.079V19.0819V19.0849V19.0878V19.0907V19.0936V19.0965V19.0995V19.1024V19.1053V19.1082V19.1111V19.114V19.1169V19.1199V19.1228V19.1257V19.1286V19.1315V19.1344V19.1373V19.1402V19.1431V19.146V19.1489V19.1518V19.1547V19.1576V19.1605V19.1634V19.1663V19.1692V19.1721V19.175V19.1779V19.1808V19.1836V19.1865V19.1894V19.1923V19.1952V19.198V19.2009V19.2038V19.2067V19.2095V19.2124V19.2153V19.2182V19.221V19.2239V19.2267V19.2296V19.2325V19.2353V19.2382V19.241V19.2439V19.2467V19.2496V19.2524V19.2553V19.2581V19.261V19.2638V19.2666V19.2695V19.2723V19.2751V19.278V19.2808V19.2836V19.2864V19.2892V19.2921V19.2949V19.2977V19.3005V19.3033V19.3061V19.3089V19.3117V19.3145V19.3173V19.3201V19.3229V19.3257V19.3285V19.3312V19.334V19.3368V19.3396V19.3424V19.3451V19.3479V19.3507V19.3534V19.3562V19.3589V19.3617V19.3644V19.3672V19.3699V19.3727V19.3754V19.3782V19.3809V19.3836V19.3863V19.3891V19.3918V19.3945V19.3972V19.3999V19.4026V19.4053V19.4081V19.4108V19.4134V19.4161V19.4188V19.4215V19.4242V19.4269V19.4296V19.4322V19.4349V19.4376V19.4402V19.4429V19.4455V19.4482V19.4508V19.4535V19.4561V19.4588V19.4614V19.464V19.4667V19.4693V19.4719V19.4745V19.4771V19.4797V19.4823V19.485V19.4875V19.4901V19.4927V19.4953V19.4979V19.5005V19.503V19.5056V19.5082V19.5107V19.5133V19.5159V19.5184V19.521V19.5235V19.526V19.5286V19.5311V19.5336V19.5361V19.5386V19.5412V19.5437V19.5462V19.5487V19.5512V19.5537V19.5561V19.5586V19.5611V19.5636V19.566V19.5685V19.571V19.5734V19.5759V19.5783V19.5807V19.5832V19.5856V19.588V19.5904V19.5929V19.5953V19.5977V19.6001V19.6025V19.6049V19.6073V19.6096V19.612V19.6144V19.6167V19.6191V19.6215V19.6238V19.6262V19.6285V19.6308V19.6332V19.6355V19.6378V19.6401V19.6424V19.6447V19.647V19.6493V19.6516V19.6539V19.6562V19.6585V19.6607V19.663V19.6652V19.6675V19.6697V19.672V19.6742V19.6764V19.6787V19.6809V19.6831V19.6853V19.6875V19.6897V19.6919V19.6941V19.6962V19.6984V19.7006V19.7027V19.7049V19.707V19.7092V19.7113V19.7134V19.7156V19.7177V19.7198V19.7219V19.724V19.7261V19.7282V19.7303V19.7323V19.7344V19.7365V19.7385V19.7406V19.7426V19.7447V19.7467V19.7487V19.7507V19.7528V19.7548V19.7568V19.7588V19.7607V19.7627V19.7647V19.7667V19.7686V19.7706V19.7725V19.7745V19.7764V19.7783V19.7802V19.7822V19.7841V19.786V19.7879V19.7897V19.7916V19.7935V19.7954V19.7972V19.7991V19.8009V19.8028V19.8046V19.8064V19.8082V19.81V19.8118V19.8136V19.8154V19.8172V19.819V19.8208V19.8225V19.8243V19.826V19.8278V19.8295V19.8312V19.8329V19.8346V19.8363V19.838V19.8397V19.8414V19.8431V19.8447V19.8464V19.848V19.8497V19.8513V19.8529V19.8546V19.8562V19.8578V19.8594V19.861V19.8625V19.8641V19.8657V19.8672V19.8688V19.8703V19.8718V19.8734V19.8749V19.8764V19.8779V19.8794V19.8809V19.8824V19.8838V19.8853V19.8867V19.8882V19.8896V19.8911V19.8925V19.8939V19.8953V19.8967V19.8981V19.8994V19.9008V19.9022V19.9035V19.9049V19.9062V19.9075V19.9089V19.9102V19.9115V19.9128V19.9141V19.9153V19.9166V19.9179V19.9191V19.9204V19.9216V19.9228V19.924V19.9252V19.9264V19.9276V19.9288V19.93V19.9312V19.9323V19.9335V19.9346V19.9357V19.9368V19.938V19.9391V19.9401V19.9412V19.9423V19.9434V19.9444V19.9455V19.9465V19.9475V19.9486V19.9496V19.9506V19.9516V19.9525V19.9535V19.9545V19.9554V19.9564V19.9573V19.9582V19.9591V19.96V19.9609V19.9618V19.9627V19.9636V19.9644V19.9653V19.9661V19.967V19.9678V19.9686V19.9694V19.9702V19.971V19.9717V19.9725V19.9732V19.974V19.9747V19.9754V19.9761V19.9768V19.9775V19.9782V19.9789V19.9796V19.9802V19.9808V19.9815V19.9821V19.9827V19.9833V19.9839V19.9845V19.9851V19.9856V19.9862V19.9867V19.9872V19.9877V19.9883V19.9888V19.9892V19.9897V19.9902V19.9906V19.9911V19.9915V19.9919V19.9924V19.9928V19.9932V19.9935V19.9939V19.9943V19.9946V19.995V19.9953V19.9956V19.9959V19.9962V19.9965V19.9968V19.997V19.9973V19.9975V19.9977V19.998V19.9982V19.9984V19.9986V19.9987V19.9989V19.999V19.9992V19.9993V19.9994V19.9995V19.9996V19.9997V19.9998V19.9999V19.9999V19.9999V20V20V20.2574L23.2905 20.4069L22.5417 20.9416V23.4211V23.4786L22.5286 23.5347L22.2322 24.8045L22.7824 28H25.0038ZM21.7677 28L21.2295 24.8743L21.2123 24.7745L21.2353 24.6758L21.4115 23.9211H20.0278V28H21.7677ZM19.0278 28V23.9211H16.5694C16.2933 23.9211 16.0694 23.6972 16.0694 23.4211C16.0694 23.1449 16.2933 22.9211 16.5694 22.9211H19.0278V16.3947H14.9167V28H19.0278ZM20.0278 16.3947V22.9211H21.5417V20.6842V20.4268L21.7511 20.2773L22.5 19.7426V19.7406V19.7385V19.7365V19.7344V19.7323V19.7303V19.7282V19.7261V19.724V19.7219V19.7198V19.7177V19.7156V19.7134V19.7113V19.7092V19.707V19.7049V19.7027V19.7006V19.6984V19.6962V19.6941V19.6919V19.6897V19.6875V19.6853V19.6831V19.6809V19.6787V19.6764V19.6742V19.672V19.6697V19.6675V19.6652V19.663V19.6607V19.6585V19.6562V19.6539V19.6516V19.6493V19.647V19.6447V19.6424V19.6401V19.6378V19.6355V19.6332V19.6308V19.6285V19.6262V19.6238V19.6215V19.6191V19.6167V19.6144V19.612V19.6096V19.6073V19.6049V19.6025V19.6001V19.5977V19.5953V19.5929V19.5904V19.588V19.5856V19.5832V19.5807V19.5783V19.5759V19.5734V19.571V19.5685V19.566V19.5636V19.5611V19.5586V19.5561V19.5537V19.5512V19.5487V19.5462V19.5437V19.5412V19.5386V19.5361V19.5336V19.5311V19.5286V19.526V19.5235V19.521V19.5184V19.5159V19.5133V19.5107V19.5082V19.5056V19.503V19.5005V19.4979V19.4953V19.4927V19.4901V19.4875V19.485V19.4823V19.4797V19.4771V19.4745V19.4719V19.4693V19.4667V19.464V19.4614V19.4588V19.4561V19.4535V19.4508V19.4482V19.4455V19.4429V19.4402V19.4376V19.4349V19.4322V19.4296V19.4269V19.4242V19.4215V19.4188V19.4161V19.4134V19.4108V19.4081V19.4053V19.4026V19.3999V19.3972V19.3945V19.3918V19.3891V19.3863V19.3836V19.3809V19.3782V19.3754V19.3727V19.3699V19.3672V19.3644V19.3617V19.3589V19.3562V19.3534V19.3507V19.3479V19.3451V19.3424V19.3396V19.3368V19.334V19.3312V19.3285V19.3257V19.3229V19.3201V19.3173V19.3145V19.3117V19.3089V19.3061V19.3033V19.3005V19.2977V19.2949V19.2921V19.2892V19.2864V19.2836V19.2808V19.278V19.2751V19.2723V19.2695V19.2666V19.2638V19.261V19.2581V19.2553V19.2524V19.2496V19.2467V19.2439V19.241V19.2382V19.2353V19.2325V19.2296V19.2267V19.2239V19.221V19.2182V19.2153V19.2124V19.2095V19.2067V19.2038V19.2009V19.198V19.1952V19.1923V19.1894V19.1865V19.1836V19.1808V19.1779V19.175V19.1721V19.1692V19.1663V19.1634V19.1605V19.1576V19.1547V19.1518V19.1489V19.146V19.1431V19.1402V19.1373V19.1344V19.1315V19.1286V19.1257V19.1228V19.1199V19.1169V19.114V19.1111V19.1082V19.1053V19.1024V19.0995V19.0965V19.0936V19.0907V19.0878V19.0849V19.0819V19.079V19.0761V19.0732V19.0703V19.0673V19.0644V19.0615V19.0586V19.0556V19.0527V19.0498V19.0469V19.0439V19.041V19.0381V19.0351V19.0322V19.0293V19.0264V19.0234V19.0205V19.0176V19.0146V19.0117V19.0088V19.0059V19.0029V19C22.5 18.5874 22.7013 18.2166 22.9589 17.9589C23.2166 17.7013 23.5874 17.5 24 17.5C24.35 17.5 24.7237 17.61 25.0172 17.8675C25.3213 18.1342 25.5 18.5254 25.5 19V19.0032V19.0064V19.0096V19.0128V19.016V19.0192V19.0224V19.0256V19.0288V19.032V19.0351V19.0383V19.0415V19.0447V19.0479V19.051V19.0542V19.0574V19.0605V19.0637V19.0668V19.07V19.0732V19.0763V19.0795V19.0826V19.0858V19.0889V19.092V19.0952V19.0983V19.1014V19.1046V19.1077V19.1108V19.1139V19.117V19.1202V19.1233V19.1264V19.1295V19.1326V19.1357V19.1388V19.1419V19.145V19.1481V19.1512V19.1542V19.1573V19.1604V19.1635V19.1665V19.1696V19.1727V19.1757V19.1788V19.1819V19.1849V19.188V19.191V19.194V19.1971V19.2001V19.2032V19.2062V19.2092V19.2122V19.2153V19.2183V19.2213V19.2243V19.2273V19.2303V19.2333V19.2363V19.2393V19.2423V19.2453V19.2483V19.2513V19.2542V19.2572V19.2602V19.2631V19.2661V19.2691V19.272V19.275V19.2779V19.2809V19.2838V19.2868V19.2897V19.2926V19.2955V19.2985V19.3014V19.3043V19.3072V19.3101V19.313V19.3159V19.3188V19.3217V19.3246V19.3275V19.3304V19.3333V19.3361V19.339V19.3419V19.3447V19.3476V19.3504V19.3533V19.3561V19.359V19.3618V19.3646V19.3675V19.3703V19.3731V19.3759V19.3788V19.3816V19.3844V19.3872V19.39V19.3928V19.3955V19.3983V19.4011V19.4039V19.4067V19.4094V19.4122V19.4149V19.4177V19.4204V19.4232V19.4259V19.4287V19.4314V19.4341V19.4368V19.4396V19.4423V19.445V19.4477V19.4504V19.4531V19.4558V19.4585V19.4611V19.4638V19.4665V19.4692V19.4718V19.4745V19.4771V19.4798V19.4824V19.4851V19.4877V19.4903V19.493V19.4956V19.4982V19.5008V19.5034V19.506V19.5086V19.5112V19.5138V19.5164V19.5189V19.5215V19.5241V19.5266V19.5292V19.5317V19.5343V19.5368V19.5393V19.5419V19.5444V19.5469V19.5494V19.5519V19.5545V19.5569V19.5594V19.5619V19.5644V19.5669V19.5694V19.5718V19.5743V19.5767V19.5792V19.5816V19.5841V19.5865V19.5889V19.5914V19.5938V19.5962V19.5986V19.601V19.6034V19.6058V19.6082V19.6106V19.6129V19.6153V19.6177V19.62V19.6224V19.6247V19.6271V19.6294V19.6317V19.6341V19.6364V19.6387V19.641V19.6433V19.6456V19.6479V19.6502V19.6524V19.6547V19.657V19.6592V19.6615V19.6637V19.666V19.6682V19.6704V19.6726V19.6749V19.6771V19.6793V19.6815V19.6837V19.6859V19.688V19.6902V19.6924V19.6945V19.6967V19.6989V19.701V19.7031V19.7053V19.7074V19.7095V19.7116V19.7137V19.7158V19.7179V19.72V19.7221V19.7242V19.7262V19.7283V19.7303V19.7324V19.7344V19.7365V19.7385V19.7405V19.7425V19.7445V19.7465V19.7485V19.7493L26.2157 20.2835L26.4167 20.4335V20.6842V22.9211H28.6111V16.3947H20.0278Z" fill="#1A1A1D"/>
</svg>
