<svg width="24" height="24" viewBox="0 0 24 24" fill="none" xmlns="http://www.w3.org/2000/svg">
<path fill-rule="evenodd" clip-rule="evenodd" d="M2.3383 6.39474H2.41667H7.52778H16.8958C16.8251 5.92346 16.6541 5.61272 16.4506 5.41111C16.1802 5.14323 15.7839 5 15.2813 5H15.2603H15.2392H15.218H15.1969H15.1757H15.1545H15.1333H15.1121H15.0908H15.0695H15.0482H15.0268H15.0055H14.9841H14.9627H14.9412H14.9197H14.8983H14.8767H14.8552H14.8337H14.8121H14.7905H14.7689H14.7472H14.7255H14.7038H14.6821H14.6604H14.6386H14.6169H14.595H14.5732H14.5514H14.5295H14.5076H14.4857H14.4638H14.4418H14.4199H14.3979H14.3759H14.3538H14.3318H14.3097H14.2876H14.2655H14.2434H14.2212H14.1991H14.1769H14.1547H14.1324H14.1102H14.0879H14.0656H14.0433H14.021H13.9987H13.9763H13.954H13.9316H13.9092H13.8867H13.8643H13.8418H13.8193H13.7968H13.7743H13.7518H13.7293H13.7067H13.6841H13.6615H13.6389H13.6163H13.5936H13.571H13.5483H13.5256H13.5029H13.4802H13.4574H13.4347H13.4119H13.3891H13.3664H13.3435H13.3207H13.2979H13.275H13.2522H13.2293H13.2064H13.1835H13.1606H13.1376H13.1147H13.0917H13.0687H13.0458H13.0228H12.9998H12.9767H12.9537H12.9306H12.9076H12.8845H12.8614H12.8383H12.8152H12.7921H12.769H12.7458H12.7227H12.6995H12.6764H12.6532H12.63H12.6068H12.5836H12.5603H12.5371H12.5139H12.4906H12.4673H12.4441H12.4208H12.3975H12.3742H12.3509H12.3276H12.3042H12.2809H12.2576H12.2342H12.2108H12.1875H12.1641H12.1407H12.1173H12.0939H12.0705H12.0471H12.0237H12.0003H11.9768H11.9534H11.9299H11.9065H11.883H11.8595H11.8361H11.8126H11.7891H11.7656H11.7421H11.7186H11.6951H11.6716H11.6481H11.6246H11.601H11.5775H11.554H11.5304H11.5069H11.4833H11.4598H11.4362H11.4126H11.3891H11.3655H11.3419H11.3184H11.2948H11.2712H11.2476H11.224H11.2004H11.1769H11.1533H11.1297H11.1061H11.0825H11.0589H11.0353H11.0116H10.988H10.9644H10.9408H10.9172H10.8936H10.87H10.8464H10.8228H10.7991H10.7755H10.7519H10.7283H10.7047H10.6811H10.6574H10.6338H10.6102H10.5866H10.563H10.5394H10.5158H10.4922H10.4686H10.4449H10.4213H10.3977H10.3741H10.3505H10.3269H10.3033H10.2798H10.2562H10.2326H10.209H10.1854H10.1618H10.1383H10.1147H10.0911H10.0675H10.044H10.0204H9.99688H9.97333H9.94978H9.92624H9.9027H9.87917H9.85564H9.83212H9.8086H9.78509H9.76158H9.73808H9.71458H9.69109H9.66761H9.64413H9.62065H9.59719H9.57372H9.55027H9.52682H9.50338H9.47994H9.45652H9.43309H9.40968H9.38627H9.36287H9.33948H9.3161H9.29272H9.26935H9.24599H9.22264H9.1993H9.17596H9.15263H9.12931H9.106H9.0827H9.05941H9.03613H9.01286H8.98959H8.96634H8.94309H8.91986H8.89663H8.87342H8.85021H8.82702H8.80384H8.78066H8.7575H8.73435H8.71121H8.68808H8.66496H8.64186H8.61876H8.59568H8.57261H8.54955H8.5265H8.50346H8.48044H8.45743H8.43443H8.41144H8.38847H8.36551H8.34256H8.31963H8.29671H8.2738H8.25091H8.22803H8.20516H8.18231H8.15947H8.13665H8.11384H8.09104H8.06826H8.0455H8.02275H8.00001H7.97729H7.95458H7.93189H7.90922H7.88656H7.86392H7.84129H7.81868H7.79608H7.7735H7.75094H7.72839H7.70586H7.68335H7.66086H7.63838H7.61591H7.59347H7.57104H7.54863H7.52624H7.50387H7.48151H7.45917H7.43685H7.41455H7.39227H7.37H7.34776H7.32553H7.30332H7.28113H7.25896H7.23681H7.21468H7.19257H7.17048H7.14841H7.12636H7.10432H7.08231H7.06032H7.03835H7.0164H6.99447H6.97256H6.95068H6.92881H6.90697H6.88514H6.86334H6.84156H6.8198H6.79806H6.77635H6.75466H6.73299H6.71134H6.68971H6.66811H6.64653H6.62498H6.60344H6.58193H6.56044H6.53898H6.51754H6.49612H6.47473H6.45336H6.43202H6.4107H6.3894H6.36813H6.34688H6.32566H6.30447H6.28329H6.26215H6.24102H6.21993H6.19886H6.17781H6.15679H6.1358H6.11483H6.09389H6.07297H6.05209H6.03122H6.01039H5.98958H5.9688H5.94804H5.92732H5.90661H5.88594H5.8653H5.84468H5.82409H5.80353H5.78299H5.76249H5.74201H5.72156H5.70114H5.68075H5.66039H5.64006H5.61975H5.59948H5.57923H5.55901H5.53883H5.51867H5.49854H5.47845H5.45838H5.43834H5.41834H5.39836H5.37841H5.3585H5.33862H5.31876H5.29894H5.27915H5.25939H5.23967H5.21997H5.20031H5.18068H5.16108H5.14151H5.12198H5.10247H5.083H5.06357H5.04416H5.02479H5.00545H4.98615H4.96688H4.94764H4.92843H4.90926H4.89012H4.87102H4.85195H4.83292H4.81392H4.79495H4.77602H4.75712H4.73826H4.71944H4.70064H4.68189H4.66317H4.64448H4.62583H4.60722H4.58864H4.5701H4.55159H4.53313H4.51469H4.4963H4.47794H4.45961H4.44133H4.42308H4.40487H4.38669H4.36856H4.35046H4.3324H4.31437H4.29639H4.27844H4.26053H4.24266H4.22483H4.20703H4.18928H4.17156H4.15389H4.13625H4.11865H4.10109H4.08357H4.06609H4.04865H4.03125H4.01389C3.29731 5 2.889 5.30654 2.63994 5.67699C2.48924 5.90115 2.3933 6.15636 2.3383 6.39474ZM17.4085 5C17.6749 5.37418 17.8422 5.84184 17.9038 6.39474H21.5833H21.6617C21.6067 6.15636 21.5108 5.90115 21.3601 5.67699C21.111 5.30654 20.7027 5 19.9861 5H19.9821H19.978H19.974H19.9699H19.9658H19.9616H19.9574H19.9532H19.949H19.9448H19.9405H19.9362H19.9319H19.9275H19.9231H19.9187H19.9143H19.9099H19.9054H19.9009H19.8964H19.8918H19.8873H19.8827H19.878H19.8734H19.8687H19.864H19.8593H19.8546H19.8498H19.845H19.8402H19.8353H19.8305H19.8256H19.8207H19.8157H19.8107H19.8058H19.8007H19.7957H19.7906H19.7856H19.7805H19.7753H19.7702H19.765H19.7598H19.7545H19.7493H19.744H19.7387H19.7334H19.728H19.7227H19.7173H19.7118H19.7064H19.7009H19.6954H19.6899H19.6844H19.6788H19.6732H19.6676H19.662H19.6563H19.6507H19.645H19.6392H19.6335H19.6277H19.6219H19.6161H19.6103H19.6044H19.5985H19.5926H19.5867H19.5807H19.5747H19.5687H19.5627H19.5566H19.5506H19.5445H19.5384H19.5322H19.526H19.5199H19.5137H19.5074H19.5012H19.4949H19.4886H19.4823H19.4759H19.4696H19.4632H19.4568H19.4503H19.4439H19.4374H19.4309H19.4244H19.4178H19.4113H19.4047H19.3981H19.3914H19.3848H19.3781H19.3714H19.3647H19.3579H19.3512H19.3444H19.3376H19.3307H19.3239H19.317H19.3101H19.3032H19.2963H19.2893H19.2823H19.2753H19.2683H19.2612H19.2542H19.2471H19.24H19.2328H19.2257H19.2185H19.2113H19.2041H19.1968H19.1896H19.1823H19.175H19.1677H19.1603H19.153H19.1456H19.1382H19.1307H19.1233H19.1158H19.1083H19.1008H19.0933H19.0857H19.0782H19.0706H19.0629H19.0553H19.0476H19.04H19.0323H19.0246H19.0168H19.0091H19.0013H18.9935H18.9856H18.9778H18.9699H18.9621H18.9542H18.9462H18.9383H18.9303H18.9223H18.9143H18.9063H18.8983H18.8902H18.8821H18.874H18.8659H18.8578H18.8496H18.8414H18.8332H18.825H18.8167H18.8085H18.8002H18.7919H18.7836H18.7752H18.7669H18.7585H18.7501H18.7417H18.7332H18.7248H18.7163H18.7078H18.6993H18.6908H18.6822H18.6736H18.665H18.6564H18.6478H18.6391H18.6305H18.6218H18.6131H18.6044H18.5956H18.5868H18.5781H18.5693H18.5604H18.5516H18.5427H18.5339H18.525H18.5161H18.5071H18.4982H18.4892H18.4802H18.4712H18.4622H18.4531H18.4441H18.435H18.4259H18.4168H18.4076H18.3985H18.3893H18.3801H18.3709H18.3617H18.3524H18.3432H18.3339H18.3246H18.3153H18.3059H18.2966H18.2872H18.2778H18.2684H18.259H18.2496H18.2401H18.2306H18.2211H18.2116H18.2021H18.1925H18.183H18.1734H18.1638H18.1542H18.1445H18.1349H18.1252H18.1155H18.1058H18.0961H18.0863H18.0766H18.0668H18.057H18.0472H18.0374H18.0275H18.0177H18.0078H17.9979H17.988H17.9781H17.9681H17.9582H17.9482H17.9382H17.9282H17.9181H17.9081H17.898H17.888H17.8779H17.8677H17.8576H17.8475H17.8373H17.8271H17.8169H17.8067H17.7965H17.7863H17.776H17.7657H17.7554H17.7451H17.7348H17.7244H17.7141H17.7037H17.6933H17.6829H17.6725H17.6621H17.6516H17.6411H17.6307H17.6201H17.6096H17.5991H17.5885H17.578H17.5674H17.5568H17.5462H17.5356H17.5249H17.5143H17.5036H17.4929H17.4822H17.4715H17.4607H17.45H17.4392H17.4284H17.4176H17.4085ZM22.0833 7.39474H22.2222H22.7222V6.89474C22.7222 6.42221 22.5937 5.71963 22.1899 5.11906C21.7682 4.49171 21.0584 4 19.9861 4H19.9821H19.978H19.974H19.9699H19.9658H19.9616H19.9574H19.9532H19.949H19.9448H19.9405H19.9362H19.9319H19.9275H19.9231H19.9187H19.9143H19.9099H19.9054H19.9009H19.8964H19.8918H19.8873H19.8827H19.878H19.8734H19.8687H19.864H19.8593H19.8546H19.8498H19.845H19.8402H19.8353H19.8305H19.8256H19.8207H19.8157H19.8107H19.8058H19.8007H19.7957H19.7906H19.7856H19.7805H19.7753H19.7702H19.765H19.7598H19.7545H19.7493H19.744H19.7387H19.7334H19.728H19.7227H19.7173H19.7118H19.7064H19.7009H19.6954H19.6899H19.6844H19.6788H19.6732H19.6676H19.662H19.6563H19.6507H19.645H19.6392H19.6335H19.6277H19.6219H19.6161H19.6103H19.6044H19.5985H19.5926H19.5867H19.5807H19.5747H19.5687H19.5627H19.5566H19.5506H19.5445H19.5384H19.5322H19.526H19.5199H19.5137H19.5074H19.5012H19.4949H19.4886H19.4823H19.4759H19.4696H19.4632H19.4568H19.4503H19.4439H19.4374H19.4309H19.4244H19.4178H19.4113H19.4047H19.3981H19.3914H19.3848H19.3781H19.3714H19.3647H19.3579H19.3512H19.3444H19.3376H19.3307H19.3239H19.317H19.3101H19.3032H19.2963H19.2893H19.2823H19.2753H19.2683H19.2612H19.2542H19.2471H19.24H19.2328H19.2257H19.2185H19.2113H19.2041H19.1968H19.1896H19.1823H19.175H19.1677H19.1603H19.153H19.1456H19.1382H19.1307H19.1233H19.1158H19.1083H19.1008H19.0933H19.0857H19.0782H19.0706H19.0629H19.0553H19.0476H19.04H19.0323H19.0246H19.0168H19.0091H19.0013H18.9935H18.9856H18.9778H18.9699H18.9621H18.9542H18.9462H18.9383H18.9303H18.9223H18.9143H18.9063H18.8983H18.8902H18.8821H18.874H18.8659H18.8578H18.8496H18.8414H18.8332H18.825H18.8167H18.8085H18.8002H18.7919H18.7836H18.7752H18.7669H18.7585H18.7501H18.7417H18.7332H18.7248H18.7163H18.7078H18.6993H18.6908H18.6822H18.6736H18.665H18.6564H18.6478H18.6391H18.6305H18.6218H18.6131H18.6044H18.5956H18.5868H18.5781H18.5693H18.5604H18.5516H18.5427H18.5339H18.525H18.5161H18.5071H18.4982H18.4892H18.4802H18.4712H18.4622H18.4531H18.4441H18.435H18.4259H18.4168H18.4076H18.3985H18.3893H18.3801H18.3709H18.3617H18.3524H18.3432H18.3339H18.3246H18.3153H18.3059H18.2966H18.2872H18.2778H18.2684H18.259H18.2496H18.2401H18.2306H18.2211H18.2116H18.2021H18.1925H18.183H18.1734H18.1638H18.1542H18.1445H18.1349H18.1252H18.1155H18.1058H18.0961H18.0863H18.0766H18.0668H18.057H18.0472H18.0374H18.0275H18.0177H18.0078H17.9979H17.988H17.9781H17.9681H17.9582H17.9482H17.9382H17.9282H17.9181H17.9081H17.898H17.888H17.8779H17.8677H17.8576H17.8475H17.8373H17.8271H17.8169H17.8067H17.7965H17.7863H17.776H17.7657H17.7554H17.7451H17.7348H17.7244H17.7141H17.7037H17.6933H17.6829H17.6725H17.6621H17.6516H17.6411H17.6307H17.6201H17.6096H17.5991H17.5885H17.578H17.5674H17.5568H17.5462H17.5356H17.5249H17.5143H17.5036H17.4929H17.4822H17.4715H17.4607H17.45H17.4392H17.4284H17.4176H17.4068H17.396H17.3852H17.3743H17.3634H17.3525H17.3416H17.3307H17.3198H17.3088H17.2979H17.2869H17.2759H17.2649H17.2539H17.2428H17.2318H17.2207H17.2096H17.1985H17.1874H17.1763H17.1652H17.154H17.1428H17.1316H17.1204H17.1092H17.098H17.0868H17.0755H17.0642H17.053H17.0417H17.0303H17.019H17.0077H16.9963H16.9849H16.9736H16.9622H16.9508H16.9393H16.9279H16.9164H16.905H16.8935H16.882H16.8705H16.859H16.8474H16.8359H16.8243H16.8127H16.8011H16.7895H16.7779H16.7663H16.7546H16.743H16.7313H16.7196H16.7079H16.6962H16.6845H16.6727H16.661H16.6492H16.6375H16.6257H16.6139H16.602H16.5902H16.5784H16.5665H16.5546H16.5428H16.5309H16.5189H16.507H16.4951H16.4831H16.4712H16.4592H16.4472H16.4352H16.4232H16.4112H16.3992H16.3871H16.3751H16.363H16.3509H16.3388H16.3267H16.3146H16.3024H16.2903H16.2781H16.2659H16.2538H16.2416H16.2294H16.2171H16.2049H16.1927H16.1804H16.1681H16.1559H16.1436H16.1313H16.1189H16.1066H16.0943H16.0819H16.0696H16.0572H16.0448H16.0324H16.02H16.0076H15.9951H15.9827H15.9702H15.9578H15.9453H15.9328H15.9203H15.9078H15.8952H15.8827H15.8702H15.8576H15.845H15.8325H15.8199H15.8073H15.7946H15.782H15.7694H15.7567H15.7441H15.7314H15.7187H15.706H15.6933H15.6806H15.6679H15.6552H15.6424H15.6297H15.6169H15.6041H15.5913H15.5785H15.5657H15.5529H15.5401H15.5272H15.5144H15.5015H15.4887H15.4758H15.4629H15.45H15.4371H15.4241H15.4112H15.3983H15.3853H15.3724H15.3594H15.3464H15.3334H15.3204H15.3074H15.2944H15.2813H15.2603H15.2392H15.218H15.1969H15.1757H15.1545H15.1333H15.1121H15.0908H15.0695H15.0482H15.0268H15.0055H14.9841H14.9627H14.9412H14.9197H14.8983H14.8767H14.8552H14.8337H14.8121H14.7905H14.7689H14.7472H14.7255H14.7038H14.6821H14.6604H14.6386H14.6169H14.595H14.5732H14.5514H14.5295H14.5076H14.4857H14.4638H14.4418H14.4199H14.3979H14.3759H14.3538H14.3318H14.3097H14.2876H14.2655H14.2434H14.2212H14.1991H14.1769H14.1547H14.1324H14.1102H14.0879H14.0656H14.0433H14.021H13.9987H13.9763H13.954H13.9316H13.9092H13.8867H13.8643H13.8418H13.8193H13.7968H13.7743H13.7518H13.7293H13.7067H13.6841H13.6615H13.6389H13.6163H13.5936H13.571H13.5483H13.5256H13.5029H13.4802H13.4574H13.4347H13.4119H13.3891H13.3664H13.3435H13.3207H13.2979H13.275H13.2522H13.2293H13.2064H13.1835H13.1606H13.1376H13.1147H13.0917H13.0687H13.0458H13.0228H12.9998H12.9767H12.9537H12.9306H12.9076H12.8845H12.8614H12.8383H12.8152H12.7921H12.769H12.7458H12.7227H12.6995H12.6764H12.6532H12.63H12.6068H12.5836H12.5603H12.5371H12.5139H12.4906H12.4673H12.4441H12.4208H12.3975H12.3742H12.3509H12.3276H12.3042H12.2809H12.2576H12.2342H12.2108H12.1875H12.1641H12.1407H12.1173H12.0939H12.0705H12.0471H12.0237H12.0003H11.9768H11.9534H11.9299H11.9065H11.883H11.8595H11.8361H11.8126H11.7891H11.7656H11.7421H11.7186H11.6951H11.6716H11.6481H11.6246H11.601H11.5775H11.554H11.5304H11.5069H11.4833H11.4598H11.4362H11.4126H11.3891H11.3655H11.3419H11.3184H11.2948H11.2712H11.2476H11.224H11.2004H11.1769H11.1533H11.1297H11.1061H11.0825H11.0589H11.0353H11.0116H10.988H10.9644H10.9408H10.9172H10.8936H10.87H10.8464H10.8228H10.7991H10.7755H10.7519H10.7283H10.7047H10.6811H10.6574H10.6338H10.6102H10.5866H10.563H10.5394H10.5158H10.4922H10.4686H10.4449H10.4213H10.3977H10.3741H10.3505H10.3269H10.3033H10.2798H10.2562H10.2326H10.209H10.1854H10.1618H10.1383H10.1147H10.0911H10.0675H10.044H10.0204H9.99688H9.97333H9.94978H9.92624H9.9027H9.87917H9.85564H9.83212H9.8086H9.78509H9.76158H9.73808H9.71458H9.69109H9.66761H9.64413H9.62065H9.59719H9.57372H9.55027H9.52682H9.50338H9.47994H9.45652H9.43309H9.40968H9.38627H9.36287H9.33948H9.3161H9.29272H9.26935H9.24599H9.22264H9.1993H9.17596H9.15263H9.12931H9.106H9.0827H9.05941H9.03613H9.01286H8.98959H8.96634H8.94309H8.91986H8.89663H8.87342H8.85021H8.82702H8.80384H8.78066H8.7575H8.73435H8.71121H8.68808H8.66496H8.64186H8.61876H8.59568H8.57261H8.54955H8.5265H8.50346H8.48044H8.45743H8.43443H8.41144H8.38847H8.36551H8.34256H8.31963H8.29671H8.2738H8.25091H8.22803H8.20516H8.18231H8.15947H8.13665H8.11384H8.09104H8.06826H8.0455H8.02275H8.00001H7.97729H7.95458H7.93189H7.90922H7.88656H7.86392H7.84129H7.81868H7.79608H7.7735H7.75094H7.72839H7.70586H7.68335H7.66086H7.63838H7.61591H7.59347H7.57104H7.54863H7.52624H7.50387H7.48151H7.45917H7.43685H7.41455H7.39227H7.37H7.34776H7.32553H7.30332H7.28113H7.25896H7.23681H7.21468H7.19257H7.17048H7.14841H7.12636H7.10432H7.08231H7.06032H7.03835H7.0164H6.99447H6.97256H6.95068H6.92881H6.90697H6.88514H6.86334H6.84156H6.8198H6.79806H6.77635H6.75466H6.73299H6.71134H6.68971H6.66811H6.64653H6.62498H6.60344H6.58193H6.56044H6.53898H6.51754H6.49612H6.47473H6.45336H6.43202H6.4107H6.3894H6.36813H6.34688H6.32566H6.30447H6.28329H6.26215H6.24102H6.21993H6.19886H6.17781H6.15679H6.1358H6.11483H6.09389H6.07297H6.05209H6.03122H6.01039H5.98958H5.9688H5.94804H5.92732H5.90661H5.88594H5.8653H5.84468H5.82409H5.80353H5.78299H5.76249H5.74201H5.72156H5.70114H5.68075H5.66039H5.64006H5.61975H5.59948H5.57923H5.55901H5.53883H5.51867H5.49854H5.47845H5.45838H5.43834H5.41834H5.39836H5.37841H5.3585H5.33862H5.31876H5.29894H5.27915H5.25939H5.23967H5.21997H5.20031H5.18068H5.16108H5.14151H5.12198H5.10247H5.083H5.06357H5.04416H5.02479H5.00545H4.98615H4.96688H4.94764H4.92843H4.90926H4.89012H4.87102H4.85195H4.83292H4.81392H4.79495H4.77602H4.75712H4.73826H4.71944H4.70064H4.68189H4.66317H4.64448H4.62583H4.60722H4.58864H4.5701H4.55159H4.53313H4.51469H4.4963H4.47794H4.45961H4.44133H4.42308H4.40487H4.38669H4.36856H4.35046H4.3324H4.31437H4.29639H4.27844H4.26053H4.24266H4.22483H4.20703H4.18928H4.17156H4.15389H4.13625H4.11865H4.10109H4.08357H4.06609H4.04865H4.03125H4.01389C2.94158 4 2.23183 4.49171 1.81006 5.11906C1.40629 5.71963 1.27778 6.42221 1.27778 6.89474V7.39474H1.77778H1.91667V19H0.5C0.223858 19 0 19.2239 0 19.5C0 19.7761 0.223858 20 0.5 20H2.41667H7.52778H10.3611H13.5972H17.1111H21.5833H23.5C23.7761 20 24 19.7761 24 19.5C24 19.2239 23.7761 19 23.5 19H22.0833V7.39474ZM21.0833 7.39474H17.6111V14.4211V19H21.0833V7.39474ZM16.6111 19V14.9211H14.1769L13.486 15.9076L14.0185 19H16.6111ZM13.0038 19L12.4656 15.8743L12.4306 15.6714L12.5488 15.5027L13.4167 14.2634V11.9349L12.7009 11.4007L12.5 11.2507V11V11V11V10.9999V10.9999V10.9998V10.9997V10.9997V10.9996V10.9995V10.9994V10.9993V10.9991V10.999V10.9988V10.9987V10.9985V10.9983V10.9981V10.9979V10.9977V10.9975V10.9973V10.9971V10.9968V10.9965V10.9963V10.996V10.9957V10.9954V10.9951V10.9948V10.9945V10.9941V10.9938V10.9934V10.993V10.9927V10.9923V10.9919V10.9915V10.9911V10.9906V10.9902V10.9898V10.9893V10.9888V10.9884V10.9879V10.9874V10.9869V10.9864V10.9858V10.9853V10.9848V10.9842V10.9837V10.9831V10.9825V10.9819V10.9813V10.9807V10.9801V10.9795V10.9788V10.9782V10.9775V10.9769V10.9762V10.9755V10.9748V10.9741V10.9734V10.9727V10.972V10.9713V10.9705V10.9698V10.969V10.9682V10.9674V10.9666V10.9658V10.965V10.9642V10.9634V10.9625V10.9617V10.9608V10.96V10.9591V10.9582V10.9573V10.9564V10.9555V10.9546V10.9537V10.9528V10.9518V10.9509V10.9499V10.9489V10.948V10.947V10.946V10.945V10.944V10.9429V10.9419V10.9409V10.9398V10.9388V10.9377V10.9366V10.9356V10.9345V10.9334V10.9323V10.9311V10.93V10.9289V10.9277V10.9266V10.9254V10.9243V10.9231V10.9219V10.9207V10.9195V10.9183V10.9171V10.9159V10.9146V10.9134V10.9122V10.9109V10.9096V10.9084V10.9071V10.9058V10.9045V10.9032V10.9019V10.9006V10.8992V10.8979V10.8965V10.8952V10.8938V10.8925V10.8911V10.8897V10.8883V10.8869V10.8855V10.8841V10.8826V10.8812V10.8798V10.8783V10.8769V10.8754V10.8739V10.8724V10.871V10.8695V10.868V10.8664V10.8649V10.8634V10.8619V10.8603V10.8588V10.8572V10.8557V10.8541V10.8525V10.8509V10.8493V10.8477V10.8461V10.8445V10.8429V10.8412V10.8396V10.838V10.8363V10.8346V10.833V10.8313V10.8296V10.8279V10.8262V10.8245V10.8228V10.8211V10.8194V10.8176V10.8159V10.8141V10.8124V10.8106V10.8088V10.8071V10.8053V10.8035V10.8017V10.7999V10.7981V10.7963V10.7944V10.7926V10.7908V10.7889V10.7871V10.7852V10.7833V10.7815V10.7796V10.7777V10.7758V10.7739V10.772V10.7701V10.7681V10.7662V10.7643V10.7623V10.7604V10.7584V10.7565V10.7545V10.7525V10.7505V10.7485V10.7465V10.7445V10.7425V10.7405V10.7385V10.7365V10.7344V10.7324V10.7303V10.7283V10.7262V10.7242V10.7221V10.72V10.7179V10.7158V10.7137V10.7116V10.7095V10.7074V10.7053V10.7031V10.701V10.6989V10.6967V10.6945V10.6924V10.6902V10.688V10.6859V10.6837V10.6815V10.6793V10.6771V10.6749V10.6726V10.6704V10.6682V10.666V10.6637V10.6615V10.6592V10.657V10.6547V10.6524V10.6502V10.6479V10.6456V10.6433V10.641V10.6387V10.6364V10.6341V10.6317V10.6294V10.6271V10.6247V10.6224V10.62V10.6177V10.6153V10.6129V10.6106V10.6082V10.6058V10.6034V10.601V10.5986V10.5962V10.5938V10.5914V10.5889V10.5865V10.5841V10.5816V10.5792V10.5767V10.5743V10.5718V10.5694V10.5669V10.5644V10.5619V10.5594V10.5569V10.5545V10.5519V10.5494V10.5469V10.5444V10.5419V10.5393V10.5368V10.5343V10.5317V10.5292V10.5266V10.5241V10.5215V10.5189V10.5164V10.5138V10.5112V10.5086V10.506V10.5034V10.5008V10.4982V10.4956V10.493V10.4903V10.4877V10.4851V10.4824V10.4798V10.4771V10.4745V10.4718V10.4692V10.4665V10.4638V10.4611V10.4585V10.4558V10.4531V10.4504V10.4477V10.445V10.4423V10.4396V10.4368V10.4341V10.4314V10.4287V10.4259V10.4232V10.4204V10.4177V10.4149V10.4122V10.4094V10.4067V10.4039V10.4011V10.3983V10.3955V10.3928V10.39V10.3872V10.3844V10.3816V10.3788V10.3759V10.3731V10.3703V10.3675V10.3646V10.3618V10.359V10.3561V10.3533V10.3504V10.3476V10.3447V10.3419V10.339V10.3361V10.3333V10.3304V10.3275V10.3246V10.3217V10.3188V10.3159V10.313V10.3101V10.3072V10.3043V10.3014V10.2985V10.2955V10.2926V10.2897V10.2868V10.2838V10.2809V10.2779V10.275V10.272V10.2691V10.2661V10.2631V10.2602V10.2572V10.2542V10.2513V10.2483V10.2453V10.2423V10.2393V10.2363V10.2333V10.2303V10.2273V10.2243V10.2213V10.2183V10.2153V10.2122V10.2092V10.2062V10.2032V10.2001V10.1971V10.194V10.191V10.188V10.1849V10.1819V10.1788V10.1757V10.1727V10.1696V10.1665V10.1635V10.1604V10.1573V10.1542V10.1512V10.1481V10.145V10.1419V10.1388V10.1357V10.1326V10.1295V10.1264V10.1233V10.1202V10.117V10.1139V10.1108V10.1077V10.1046V10.1014V10.0983V10.0952V10.092V10.0889V10.0858V10.0826V10.0795V10.0763V10.0732V10.07V10.0668V10.0637V10.0605V10.0574V10.0542V10.051V10.0479V10.0447V10.0415V10.0383V10.0351V10.032V10.0288V10.0256V10.0224V10.0192V10.016V10.0128V10.0096V10.0064V10.0032V10C12.5 9.79043 12.4287 9.68155 12.3578 9.6193C12.2763 9.54786 12.15 9.5 12 9.5C11.9126 9.5 11.7834 9.54873 11.6661 9.66605C11.5487 9.78338 11.5 9.91262 11.5 10V10.0029V10.0059V10.0088V10.0117V10.0146V10.0176V10.0205V10.0234V10.0264V10.0293V10.0322V10.0351V10.0381V10.041V10.0439V10.0469V10.0498V10.0527V10.0556V10.0586V10.0615V10.0644V10.0673V10.0703V10.0732V10.0761V10.079V10.0819V10.0849V10.0878V10.0907V10.0936V10.0965V10.0995V10.1024V10.1053V10.1082V10.1111V10.114V10.1169V10.1199V10.1228V10.1257V10.1286V10.1315V10.1344V10.1373V10.1402V10.1431V10.146V10.1489V10.1518V10.1547V10.1576V10.1605V10.1634V10.1663V10.1692V10.1721V10.175V10.1779V10.1808V10.1836V10.1865V10.1894V10.1923V10.1952V10.198V10.2009V10.2038V10.2067V10.2095V10.2124V10.2153V10.2182V10.221V10.2239V10.2267V10.2296V10.2325V10.2353V10.2382V10.241V10.2439V10.2467V10.2496V10.2524V10.2553V10.2581V10.261V10.2638V10.2666V10.2695V10.2723V10.2751V10.278V10.2808V10.2836V10.2864V10.2892V10.2921V10.2949V10.2977V10.3005V10.3033V10.3061V10.3089V10.3117V10.3145V10.3173V10.3201V10.3229V10.3257V10.3285V10.3312V10.334V10.3368V10.3396V10.3424V10.3451V10.3479V10.3507V10.3534V10.3562V10.3589V10.3617V10.3644V10.3672V10.3699V10.3727V10.3754V10.3782V10.3809V10.3836V10.3863V10.3891V10.3918V10.3945V10.3972V10.3999V10.4026V10.4053V10.4081V10.4108V10.4134V10.4161V10.4188V10.4215V10.4242V10.4269V10.4296V10.4322V10.4349V10.4376V10.4402V10.4429V10.4455V10.4482V10.4508V10.4535V10.4561V10.4588V10.4614V10.464V10.4667V10.4693V10.4719V10.4745V10.4771V10.4797V10.4823V10.485V10.4875V10.4901V10.4927V10.4953V10.4979V10.5005V10.503V10.5056V10.5082V10.5107V10.5133V10.5159V10.5184V10.521V10.5235V10.526V10.5286V10.5311V10.5336V10.5361V10.5386V10.5412V10.5437V10.5462V10.5487V10.5512V10.5537V10.5561V10.5586V10.5611V10.5636V10.566V10.5685V10.571V10.5734V10.5759V10.5783V10.5807V10.5832V10.5856V10.588V10.5904V10.5929V10.5953V10.5977V10.6001V10.6025V10.6049V10.6073V10.6096V10.612V10.6144V10.6167V10.6191V10.6215V10.6238V10.6262V10.6285V10.6308V10.6332V10.6355V10.6378V10.6401V10.6424V10.6447V10.647V10.6493V10.6516V10.6539V10.6562V10.6585V10.6607V10.663V10.6652V10.6675V10.6697V10.672V10.6742V10.6764V10.6787V10.6809V10.6831V10.6853V10.6875V10.6897V10.6919V10.6941V10.6962V10.6984V10.7006V10.7027V10.7049V10.707V10.7092V10.7113V10.7134V10.7156V10.7177V10.7198V10.7219V10.724V10.7261V10.7282V10.7303V10.7323V10.7344V10.7365V10.7385V10.7406V10.7426V10.7447V10.7467V10.7487V10.7507V10.7528V10.7548V10.7568V10.7588V10.7607V10.7627V10.7647V10.7667V10.7686V10.7706V10.7725V10.7745V10.7764V10.7783V10.7802V10.7822V10.7841V10.786V10.7879V10.7897V10.7916V10.7935V10.7954V10.7972V10.7991V10.8009V10.8028V10.8046V10.8064V10.8082V10.81V10.8118V10.8136V10.8154V10.8172V10.819V10.8208V10.8225V10.8243V10.826V10.8278V10.8295V10.8312V10.8329V10.8346V10.8363V10.838V10.8397V10.8414V10.8431V10.8447V10.8464V10.848V10.8497V10.8513V10.8529V10.8546V10.8562V10.8578V10.8594V10.861V10.8625V10.8641V10.8657V10.8672V10.8688V10.8703V10.8718V10.8734V10.8749V10.8764V10.8779V10.8794V10.8809V10.8824V10.8838V10.8853V10.8867V10.8882V10.8896V10.8911V10.8925V10.8939V10.8953V10.8967V10.8981V10.8994V10.9008V10.9022V10.9035V10.9049V10.9062V10.9075V10.9089V10.9102V10.9115V10.9128V10.9141V10.9153V10.9166V10.9179V10.9191V10.9204V10.9216V10.9228V10.924V10.9252V10.9264V10.9276V10.9288V10.93V10.9312V10.9323V10.9335V10.9346V10.9357V10.9368V10.938V10.9391V10.9401V10.9412V10.9423V10.9434V10.9444V10.9455V10.9465V10.9475V10.9486V10.9496V10.9506V10.9516V10.9525V10.9535V10.9545V10.9554V10.9564V10.9573V10.9582V10.9591V10.96V10.9609V10.9618V10.9627V10.9636V10.9644V10.9653V10.9661V10.967V10.9678V10.9686V10.9694V10.9702V10.971V10.9717V10.9725V10.9732V10.974V10.9747V10.9754V10.9761V10.9768V10.9775V10.9782V10.9789V10.9796V10.9802V10.9808V10.9815V10.9821V10.9827V10.9833V10.9839V10.9845V10.9851V10.9856V10.9862V10.9867V10.9872V10.9877V10.9883V10.9888V10.9892V10.9897V10.9902V10.9906V10.9911V10.9915V10.9919V10.9924V10.9928V10.9932V10.9935V10.9939V10.9943V10.9946V10.995V10.9953V10.9956V10.9959V10.9962V10.9965V10.9968V10.997V10.9973V10.9975V10.9977V10.998V10.9982V10.9984V10.9986V10.9987V10.9989V10.999V10.9992V10.9993V10.9994V10.9995V10.9996V10.9997V10.9998V10.9999V10.9999V10.9999V11V11V11.2574L11.2905 11.4069L10.5417 11.9416V14.4211V14.4786L10.5286 14.5347L10.2322 15.8045L10.7824 19H13.0038ZM9.76766 19L9.22947 15.8743L9.21228 15.7745L9.23531 15.6758L9.4115 14.9211H8.02778V19H9.76766ZM7.02778 19V14.9211H4.56944C4.2933 14.9211 4.06944 14.6972 4.06944 14.4211C4.06944 14.1449 4.2933 13.9211 4.56944 13.9211H7.02778V7.39474H2.91667V19H7.02778ZM8.02778 7.39474V13.9211H9.54167V11.6842V11.4268L9.75114 11.2773L10.5 10.7426V10.7406V10.7385V10.7365V10.7344V10.7323V10.7303V10.7282V10.7261V10.724V10.7219V10.7198V10.7177V10.7156V10.7134V10.7113V10.7092V10.707V10.7049V10.7027V10.7006V10.6984V10.6962V10.6941V10.6919V10.6897V10.6875V10.6853V10.6831V10.6809V10.6787V10.6764V10.6742V10.672V10.6697V10.6675V10.6652V10.663V10.6607V10.6585V10.6562V10.6539V10.6516V10.6493V10.647V10.6447V10.6424V10.6401V10.6378V10.6355V10.6332V10.6308V10.6285V10.6262V10.6238V10.6215V10.6191V10.6167V10.6144V10.612V10.6096V10.6073V10.6049V10.6025V10.6001V10.5977V10.5953V10.5929V10.5904V10.588V10.5856V10.5832V10.5807V10.5783V10.5759V10.5734V10.571V10.5685V10.566V10.5636V10.5611V10.5586V10.5561V10.5537V10.5512V10.5487V10.5462V10.5437V10.5412V10.5386V10.5361V10.5336V10.5311V10.5286V10.526V10.5235V10.521V10.5184V10.5159V10.5133V10.5107V10.5082V10.5056V10.503V10.5005V10.4979V10.4953V10.4927V10.4901V10.4875V10.485V10.4823V10.4797V10.4771V10.4745V10.4719V10.4693V10.4667V10.464V10.4614V10.4588V10.4561V10.4535V10.4508V10.4482V10.4455V10.4429V10.4402V10.4376V10.4349V10.4322V10.4296V10.4269V10.4242V10.4215V10.4188V10.4161V10.4134V10.4108V10.4081V10.4053V10.4026V10.3999V10.3972V10.3945V10.3918V10.3891V10.3863V10.3836V10.3809V10.3782V10.3754V10.3727V10.3699V10.3672V10.3644V10.3617V10.3589V10.3562V10.3534V10.3507V10.3479V10.3451V10.3424V10.3396V10.3368V10.334V10.3312V10.3285V10.3257V10.3229V10.3201V10.3173V10.3145V10.3117V10.3089V10.3061V10.3033V10.3005V10.2977V10.2949V10.2921V10.2892V10.2864V10.2836V10.2808V10.278V10.2751V10.2723V10.2695V10.2666V10.2638V10.261V10.2581V10.2553V10.2524V10.2496V10.2467V10.2439V10.241V10.2382V10.2353V10.2325V10.2296V10.2267V10.2239V10.221V10.2182V10.2153V10.2124V10.2095V10.2067V10.2038V10.2009V10.198V10.1952V10.1923V10.1894V10.1865V10.1836V10.1808V10.1779V10.175V10.1721V10.1692V10.1663V10.1634V10.1605V10.1576V10.1547V10.1518V10.1489V10.146V10.1431V10.1402V10.1373V10.1344V10.1315V10.1286V10.1257V10.1228V10.1199V10.1169V10.114V10.1111V10.1082V10.1053V10.1024V10.0995V10.0965V10.0936V10.0907V10.0878V10.0849V10.0819V10.079V10.0761V10.0732V10.0703V10.0673V10.0644V10.0615V10.0586V10.0556V10.0527V10.0498V10.0469V10.0439V10.041V10.0381V10.0351V10.0322V10.0293V10.0264V10.0234V10.0205V10.0176V10.0146V10.0117V10.0088V10.0059V10.0029V10C10.5 9.58738 10.7013 9.21662 10.9589 8.95895C11.2166 8.70127 11.5874 8.5 12 8.5C12.35 8.5 12.7237 8.61003 13.0172 8.86754C13.3213 9.13424 13.5 9.52536 13.5 10V10.0032V10.0064V10.0096V10.0128V10.016V10.0192V10.0224V10.0256V10.0288V10.032V10.0351V10.0383V10.0415V10.0447V10.0479V10.051V10.0542V10.0574V10.0605V10.0637V10.0668V10.07V10.0732V10.0763V10.0795V10.0826V10.0858V10.0889V10.092V10.0952V10.0983V10.1014V10.1046V10.1077V10.1108V10.1139V10.117V10.1202V10.1233V10.1264V10.1295V10.1326V10.1357V10.1388V10.1419V10.145V10.1481V10.1512V10.1542V10.1573V10.1604V10.1635V10.1665V10.1696V10.1727V10.1757V10.1788V10.1819V10.1849V10.188V10.191V10.194V10.1971V10.2001V10.2032V10.2062V10.2092V10.2122V10.2153V10.2183V10.2213V10.2243V10.2273V10.2303V10.2333V10.2363V10.2393V10.2423V10.2453V10.2483V10.2513V10.2542V10.2572V10.2602V10.2631V10.2661V10.2691V10.272V10.275V10.2779V10.2809V10.2838V10.2868V10.2897V10.2926V10.2955V10.2985V10.3014V10.3043V10.3072V10.3101V10.313V10.3159V10.3188V10.3217V10.3246V10.3275V10.3304V10.3333V10.3361V10.339V10.3419V10.3447V10.3476V10.3504V10.3533V10.3561V10.359V10.3618V10.3646V10.3675V10.3703V10.3731V10.3759V10.3788V10.3816V10.3844V10.3872V10.39V10.3928V10.3955V10.3983V10.4011V10.4039V10.4067V10.4094V10.4122V10.4149V10.4177V10.4204V10.4232V10.4259V10.4287V10.4314V10.4341V10.4368V10.4396V10.4423V10.445V10.4477V10.4504V10.4531V10.4558V10.4585V10.4611V10.4638V10.4665V10.4692V10.4718V10.4745V10.4771V10.4798V10.4824V10.4851V10.4877V10.4903V10.493V10.4956V10.4982V10.5008V10.5034V10.506V10.5086V10.5112V10.5138V10.5164V10.5189V10.5215V10.5241V10.5266V10.5292V10.5317V10.5343V10.5368V10.5393V10.5419V10.5444V10.5469V10.5494V10.5519V10.5545V10.5569V10.5594V10.5619V10.5644V10.5669V10.5694V10.5718V10.5743V10.5767V10.5792V10.5816V10.5841V10.5865V10.5889V10.5914V10.5938V10.5962V10.5986V10.601V10.6034V10.6058V10.6082V10.6106V10.6129V10.6153V10.6177V10.62V10.6224V10.6247V10.6271V10.6294V10.6317V10.6341V10.6364V10.6387V10.641V10.6433V10.6456V10.6479V10.6502V10.6524V10.6547V10.657V10.6592V10.6615V10.6637V10.666V10.6682V10.6704V10.6726V10.6749V10.6771V10.6793V10.6815V10.6837V10.6859V10.688V10.6902V10.6924V10.6945V10.6967V10.6989V10.701V10.7031V10.7053V10.7074V10.7095V10.7116V10.7137V10.7158V10.7179V10.72V10.7221V10.7242V10.7262V10.7283V10.7303V10.7324V10.7344V10.7365V10.7385V10.7405V10.7425V10.7445V10.7465V10.7485V10.7493L14.2157 11.2835L14.4167 11.4335V11.6842V13.9211H16.6111V7.39474H8.02778Z" fill="#979AAF"/>
</svg>
