<svg width="24" height="24" viewBox="0 0 24 24" fill="none" xmlns="http://www.w3.org/2000/svg">
<path fill-rule="evenodd" clip-rule="evenodd" d="M5.49526 0C5.77141 0 5.99526 0.223858 5.99526 0.5V4.60008H7.97552V0.5C7.97552 0.223858 8.19937 0 8.47552 0C8.75166 0 8.97552 0.223858 8.97552 0.5V4.60008H10.9558V1.07501V0.5C10.9558 0.223858 11.1796 0 11.4558 0C11.7319 0 11.9558 0.223858 11.9558 0.5V1.07501V5.10008V8.12952C11.9558 8.91622 11.574 9.65399 10.9317 10.1083C10.5545 10.3752 10.3302 10.8086 10.3302 11.2708V22.1457C10.3302 23.17 9.49982 24.0004 8.47552 24.0004C7.45122 24.0004 6.62086 23.17 6.62086 22.1457V11.2708C6.62086 10.8086 6.39657 10.3752 6.01929 10.1083C5.37706 9.65399 4.99526 8.91622 4.99526 8.12952V5.10008V0.5C4.99526 0.223858 5.21912 0 5.49526 0ZM10.9558 5.60008H8.47552H5.99526V8.12952C5.99526 8.59166 6.21955 9.02507 6.59683 9.29197C7.23906 9.74632 7.62086 10.4841 7.62086 11.2708V22.1457C7.62086 22.6177 8.0035 23.0004 8.47552 23.0004C8.94753 23.0004 9.33018 22.6177 9.33018 22.1457V11.2708C9.33018 10.4841 9.71197 9.74632 10.3542 9.29197C10.7315 9.02507 10.9558 8.59166 10.9558 8.12952V5.60008ZM14.5443 0.946091C15.1017 0.532271 15.8586 0.443807 16.5517 0.90135C17.8331 1.7472 19 3.25312 19 5.67509V5.69207V5.70907V5.72607V5.74308V5.76009V5.77711V5.79414V5.81118V5.82822V5.84526V5.86232V5.87938V5.89645V5.91352V5.9306V5.94768V5.96477V5.98187V5.99897V6.01608V6.0332V6.05032V6.06744V6.08457V6.10171V6.11885V6.136V6.15315V6.17031V6.18747V6.20464V6.22182V6.23899V6.25618V6.27337V6.29056V6.30776V6.32496V6.34216V6.35938V6.37659V6.39381V6.41103V6.42826V6.4455V6.46273V6.47997V6.49722V6.51446V6.53172V6.54897V6.56623V6.5835V6.60076V6.61803V6.63531V6.65258V6.66986V6.68715V6.70443V6.72172V6.73902V6.75631V6.77361V6.79091V6.80822V6.82552V6.84283V6.86014V6.87746V6.89477V6.91209V6.92942V6.94674V6.96407V6.98139V6.99872V7.01606V7.03339V7.05072V7.06806V7.0854V7.10274V7.12008V7.13743V7.15477V7.17212V7.18947V7.20682V7.22417V7.24152V7.25887V7.27622V7.29358V7.31093V7.32829V7.34564V7.363V7.38036V7.39772V7.41507V7.43243V7.44979V7.46715V7.48451V7.50187V7.51923V7.53659V7.55395V7.57131V7.58867V7.60602V7.62338V7.64074V7.6581V7.67545V7.69281V7.71017V7.72752V7.74487V7.76223V7.77958V7.79693V7.81428V7.83163V7.84898V7.86632V7.88367V7.90101V7.91835V7.93569V7.95303V7.97037V7.9877V8.00503V8.02236V8.03969V8.05702V8.07435V8.09167V8.10899V8.12631V8.14362V8.16094V8.17825V8.19556V8.21286V8.23016V8.24746V8.26476V8.28206V8.29935V8.31664V8.33392V8.3512V8.36848V8.38576V8.40303V8.4203V8.43756V8.45483V8.47208V8.48934V8.50659V8.52384V8.54108V8.55832V8.57555V8.59278V8.61001V8.62723V8.64445V8.66166V8.67887V8.69608V8.71328V8.73047V8.74766V8.76485V8.78203V8.79921V8.81638V8.83355V8.85071V8.86786V8.88501V8.90216V8.9193V8.93643V8.95356V8.97069V8.9878V9.00492V9.02202V9.03912V9.05622V9.07331V9.09039V9.10747V9.12454V9.1416V9.15866V9.17571V9.19275V9.20979V9.22683V9.24385V9.26087V9.27788V9.29489V9.31188V9.32888V9.34586V9.36284V9.37981V9.39677V9.41372V9.43067V9.44761V9.46455V9.48147V9.49839V9.5153V9.5322V9.5491V9.56598V9.58286V9.59973V9.61659V9.63345V9.65029V9.66713V9.68396V9.70078V9.7176V9.7344V9.75119V9.76798V9.78476V9.80153V9.81829V9.83504V9.85178V9.86851V9.88524V9.90195V9.91866V9.93535V9.95204V9.96872V9.98538V10.002V10.0187V10.0353V10.052V10.0686V10.0852V10.1018V10.1184V10.1349V10.1515V10.1681V10.1846V10.2012V10.2177V10.2342V10.2507V10.2672V10.2837V10.3002V10.3166V10.3331V10.3495V10.3659V10.3824V10.3988V10.4152V10.4315V10.4479V10.4643V10.4806V10.497V10.5133V10.5296V10.5459V10.5622V10.5785V10.5947V10.611V10.6272V10.6435V10.6597V10.6759V10.6921V10.7083V10.7244V10.7406V10.7567V10.7729V10.789V10.8051V10.8212V10.8373V10.8533V10.8694V10.8854V10.9014V10.9175V10.9335V10.9494V10.9654V10.9814V10.9973V11.0132V11.0292V11.0451V11.0609V11.0768V11.0927V11.1085V11.1244V11.1402V11.156V11.1718V11.1875V11.2033V11.2191V11.2348V11.2505V11.2662V11.2819V11.2976V11.3132V11.3289V11.3445V11.3601V11.3757V11.3913V11.4068V11.4224V11.4379V11.4534V11.4689V11.4844V11.4999V11.5154V11.5308V11.5462V11.5616V11.577V11.5924V11.6077V11.6231V11.6384V11.6537V11.669V11.6843V11.6996V11.7148V11.73V11.7452V11.7604V11.7756V11.7908V11.8059V11.821V11.8361V11.8512V11.8663V11.8813V11.8964V11.9114V11.9264V11.9414V11.9563V11.9713V11.9862V12.0011V12.016V12.0309V12.0458V12.0606V12.0754V12.0902V12.105V12.1198V12.1345V12.1492V12.164V12.1786V12.1933V12.208V12.2226V12.2372V12.2518V12.2664V12.2809V12.2955V12.31V12.3245V12.339V12.3534V12.3679V12.3823V12.3967V12.4111V12.4254V12.4398V12.4541V12.4684V12.4827V12.4969V12.5112V12.5254V12.5396V12.5538V12.5679V12.5821V12.5962V12.6103V12.6243V12.6384V12.6524V12.6664V12.6804V12.6944V12.7083V12.7223V12.7362V12.7501V12.7639V12.7778V12.7916V12.8054V12.8191V12.8329V12.8466V12.8603V12.874V12.8877V12.9013V12.9149V12.9285V12.9421V12.9557V12.9692V12.9827V12.9962V13.0097V13.0231V13.0365V13.0499V13.0633V13.0766V13.0899V13.1032V13.1165V13.1298V13.143V13.1562V13.1694V13.1826V13.1957V13.2088V13.2219V13.235V13.248V13.261V13.274V13.287V13.2999V13.3129V13.3257V13.3386V13.3515V13.3643V13.3771V13.3899V13.4026V13.4153V13.428V13.4407V13.4534V13.466V13.4786V13.4912V13.5037V13.5162V13.5287V13.5412V13.5536V13.5661V13.5785V13.5908V13.6032V13.6155V13.6278V13.64V13.6523V13.6645V13.6767V13.6888V13.701V13.7131V13.7252V13.7372V13.7493V13.7613V13.7732V13.7852V13.7971V13.809C19 14.6604 18.4265 15.3766 17.6453 15.5946V22.0103C17.6453 23.1094 16.7543 24.0004 15.6552 24.0004C14.5561 24.0004 13.6651 23.1094 13.6651 22.0103V15.1627V2.78281C13.6651 2.03157 14.0066 1.34525 14.5443 0.946091ZM16.6453 15.6627H14.6651V22.0103C14.6651 22.5571 15.1084 23.0004 15.6552 23.0004C16.202 23.0004 16.6453 22.5571 16.6453 22.0103V15.6627ZM14.6651 14.6627H17.1453C17.6178 14.6627 18 14.2806 18 13.809V13.7971V13.7852V13.7732V13.7613V13.7493V13.7372V13.7252V13.7131V13.701V13.6888V13.6767V13.6645V13.6523V13.64V13.6278V13.6155V13.6032V13.5908V13.5785V13.5661V13.5536V13.5412V13.5287V13.5162V13.5037V13.4912V13.4786V13.466V13.4534V13.4407V13.428V13.4153V13.4026V13.3899V13.3771V13.3643V13.3515V13.3386V13.3257V13.3129V13.2999V13.287V13.274V13.261V13.248V13.235V13.2219V13.2088V13.1957V13.1826V13.1694V13.1562V13.143V13.1298V13.1165V13.1032V13.0899V13.0766V13.0633V13.0499V13.0365V13.0231V13.0097V12.9962V12.9827V12.9692V12.9557V12.9421V12.9285V12.9149V12.9013V12.8877V12.874V12.8603V12.8466V12.8329V12.8191V12.8054V12.7916V12.7778V12.7639V12.7501V12.7362V12.7223V12.7083V12.6944V12.6804V12.6664V12.6524V12.6384V12.6243V12.6103V12.5962V12.5821V12.5679V12.5538V12.5396V12.5254V12.5112V12.4969V12.4827V12.4684V12.4541V12.4398V12.4254V12.4111V12.3967V12.3823V12.3679V12.3534V12.339V12.3245V12.31V12.2955V12.2809V12.2664V12.2518V12.2372V12.2226V12.208V12.1933V12.1786V12.164V12.1492V12.1345V12.1198V12.105V12.0902V12.0754V12.0606V12.0458V12.0309V12.016V12.0011V11.9862V11.9713V11.9563V11.9414V11.9264V11.9114V11.8964V11.8813V11.8663V11.8512V11.8361V11.821V11.8059V11.7908V11.7756V11.7604V11.7452V11.73V11.7148V11.6996V11.6843V11.669V11.6537V11.6384V11.6231V11.6077V11.5924V11.577V11.5616V11.5462V11.5308V11.5154V11.4999V11.4844V11.4689V11.4534V11.4379V11.4224V11.4068V11.3913V11.3757V11.3601V11.3445V11.3289V11.3132V11.2976V11.2819V11.2662V11.2505V11.2348V11.2191V11.2033V11.1875V11.1718V11.156V11.1402V11.1244V11.1085V11.0927V11.0768V11.0609V11.0451V11.0292V11.0132V10.9973V10.9814V10.9654V10.9494V10.9335V10.9175V10.9014V10.8854V10.8694V10.8533V10.8373V10.8212V10.8051V10.789V10.7729V10.7567V10.7406V10.7244V10.7083V10.6921V10.6759V10.6597V10.6435V10.6272V10.611V10.5947V10.5785V10.5622V10.5459V10.5296V10.5133V10.497V10.4806V10.4643V10.4479V10.4315V10.4152V10.3988V10.3824V10.3659V10.3495V10.3331V10.3166V10.3002V10.2837V10.2672V10.2507V10.2342V10.2177V10.2012V10.1846V10.1681V10.1515V10.1349V10.1184V10.1018V10.0852V10.0686V10.052V10.0353V10.0187V10.002V9.98538V9.96872V9.95204V9.93535V9.91866V9.90195V9.88524V9.86851V9.85178V9.83504V9.81829V9.80153V9.78476V9.76798V9.75119V9.7344V9.7176V9.70078V9.68396V9.66713V9.65029V9.63345V9.61659V9.59973V9.58286V9.56598V9.5491V9.5322V9.5153V9.49839V9.48147V9.46455V9.44761V9.43067V9.41372V9.39677V9.37981V9.36284V9.34586V9.32888V9.31188V9.29489V9.27788V9.26087V9.24385V9.22683V9.20979V9.19275V9.17571V9.15866V9.1416V9.12454V9.10747V9.09039V9.07331V9.05622V9.03912V9.02202V9.00492V8.9878V8.97069V8.95356V8.93643V8.9193V8.90216V8.88501V8.86786V8.85071V8.83355V8.81638V8.79921V8.78203V8.76485V8.74766V8.73047V8.71328V8.69608V8.67887V8.66166V8.64445V8.62723V8.61001V8.59278V8.57555V8.55832V8.54108V8.52384V8.50659V8.48934V8.47208V8.45483V8.43756V8.4203V8.40303V8.38576V8.36848V8.3512V8.33392V8.31664V8.29935V8.28206V8.26476V8.24746V8.23016V8.21286V8.19556V8.17825V8.16094V8.14362V8.12631V8.10899V8.09167V8.07435V8.05702V8.03969V8.02236V8.00503V7.9877V7.97037V7.95303V7.93569V7.91835V7.90101V7.88367V7.86632V7.84898V7.83163V7.81428V7.79693V7.77958V7.76223V7.74487V7.72752V7.71017V7.69281V7.67545V7.6581V7.64074V7.62338V7.60602V7.58867V7.57131V7.55395V7.53659V7.51923V7.50187V7.48451V7.46715V7.44979V7.43243V7.41507V7.39772V7.38036V7.363V7.34564V7.32829V7.31093V7.29358V7.27622V7.25887V7.24152V7.22417V7.20682V7.18947V7.17212V7.15477V7.13743V7.12008V7.10274V7.0854V7.06806V7.05072V7.03339V7.01606V6.99872V6.98139V6.96407V6.94674V6.92942V6.91209V6.89477V6.87746V6.86014V6.84283V6.82552V6.80822V6.79091V6.77361V6.75631V6.73902V6.72172V6.70443V6.68715V6.66986V6.65258V6.63531V6.61803V6.60076V6.5835V6.56623V6.54897V6.53172V6.51446V6.49722V6.47997V6.46273V6.4455V6.42826V6.41103V6.39381V6.37659V6.35938V6.34216V6.32496V6.30776V6.29056V6.27337V6.25618V6.23899V6.22182V6.20464V6.18747V6.17031V6.15315V6.136V6.11885V6.10171V6.08457V6.06744V6.05032V6.0332V6.01608V5.99897V5.98187V5.96477V5.94768V5.9306V5.91352V5.89645V5.87938V5.86232V5.84526V5.82822V5.81118V5.79414V5.77711V5.76009V5.74308V5.72607V5.70907V5.69207V5.67509C18 3.63098 17.0387 2.42101 16.0008 1.73592C15.685 1.52741 15.3862 1.56652 15.1403 1.74904C14.8747 1.94623 14.6651 2.32502 14.6651 2.78281V14.6627Z" fill="#979AAF"/>
</svg>
