<svg width="55" height="54" viewBox="0 0 55 54" fill="none" xmlns="http://www.w3.org/2000/svg">
<path fill-rule="evenodd" clip-rule="evenodd" d="M7.16669 7.5H7.66669H21.1847H21.6847V8V9.54696H26.0033V8H27.0033V9.54696H31.4326V8H32.4326V9.54696H36.7512V8H37.7512V9.54696H42.2913V8H43.2913V9.54696H46.1154V10.547H43.2913V15.0414H46.1154V16.0414H43.2913V20.5359H46.1154V21.5359H43.2913V25.7072H46.1154V26.7072H43.2913V31.0939H46.1154V32.0939H43.2913V34.5414H47.6667H48.1667V35.0414V47V47.5H47.6667H7.66669H7.16669V47V8V7.5ZM42.2913 34.5414V32.0939H37.7512V34.5414H42.2913ZM36.7512 34.5414V32.0939H32.4326V34.5414H36.7512ZM31.4326 34.5414V32.0939H28.9977V32.2403V34.5414H31.4326ZM32.4326 31.0939H36.7512V26.7072H32.4326V31.0939ZM31.4326 26.7072V31.0939H28.0359L27.0033 30.0899V26.7072H31.4326ZM32.4326 25.7072H36.7512V21.5359H32.4326V25.7072ZM31.4326 21.5359V25.7072H27.0033V21.5359H31.4326ZM32.4326 20.5359H36.7512V16.0414H32.4326V20.5359ZM31.4326 16.0414V20.5359H27.0033V16.0414H31.4326ZM32.4326 15.0414H36.7512V10.547H32.4326V15.0414ZM31.4326 10.547V15.0414H27.0033V10.547H31.4326ZM26.0033 10.547H21.6847V15.0414H26.0033V10.547ZM26.0033 16.0414H21.6847V20.5359H26.0033V16.0414ZM26.0033 21.5359H21.6847V24.9186L22.4957 25.7072H26.0033V21.5359ZM26.0033 26.7072H23.5242L26.0033 29.1176V26.7072ZM37.7512 10.547V15.0414H42.2913V10.547H37.7512ZM42.2913 16.0414H37.7512V20.5359H42.2913V16.0414ZM42.2913 21.5359H37.7512V25.7072H42.2913V21.5359ZM42.2913 26.7072H37.7512V31.0939H42.2913V26.7072ZM8.16669 8.5V46.5H47.1667V35.5414H42.7913H37.2512H31.9326H28.4977H27.9977V35.0414V32.4516L27.4843 31.9524L26.1547 30.6596L21.9442 26.5657L20.8361 25.4883L20.6847 25.3411V25.1298V21.0359V15.5414V10.047V8.5H8.16669Z" fill="url(#paint0_linear_95_540)"/>
<defs>
<linearGradient id="paint0_linear_95_540" x1="48.1667" y1="7.5" x2="0.34058" y2="18.9248" gradientUnits="userSpaceOnUse">
<stop stop-color="#E0DD00"/>
<stop offset="1" stop-color="#7DB928"/>
</linearGradient>
</defs>
</svg>
