<svg width="55" height="54" viewBox="0 0 55 54" fill="none" xmlns="http://www.w3.org/2000/svg">
<path fill-rule="evenodd" clip-rule="evenodd" d="M19.4908 6L17.9886 13.2964C20.6699 11.5288 23.8815 10.5 27.3333 10.5C30.785 10.5 33.9966 11.5288 36.6779 13.2964L35.1757 6H19.4908ZM16.8435 13.8992L17.0707 13.9459C12.9772 17.0502 10.3333 21.9663 10.3333 27.5C10.3333 33.0337 12.9772 37.9498 17.0707 41.0541L16.8435 41.1008L18.5935 49.6008L18.6757 50H19.0833H35.5833H35.9908L36.073 49.6008L37.823 41.1008L37.5958 41.0541C41.6893 37.9498 44.3333 33.0337 44.3333 27.5C44.3333 21.9663 41.6893 17.0502 37.5958 13.9459L37.823 13.8992L36.073 5.39917L35.9908 5H35.5833H19.0833H18.6757L18.5935 5.39917L16.8435 13.8992ZM27.3333 43.5C18.4967 43.5 11.3333 36.3366 11.3333 27.5C11.3333 18.6634 18.4967 11.5 27.3333 11.5C36.1698 11.5 43.3333 18.6634 43.3333 27.5C43.3333 32.8184 40.7394 37.5308 36.7434 40.4417C34.1026 42.3653 30.8519 43.5 27.3333 43.5ZM17.9886 41.7036C20.6699 43.4712 23.8815 44.5 27.3333 44.5C30.785 44.5 33.9966 43.4712 36.6779 41.7036L35.1757 49H19.4908L17.9886 41.7036ZM17.3331 20.5H37.8331V27.5H17.3331V20.5ZM16.3331 19.5H17.3331H37.8331H38.8331V20.5V27.5V28.5H37.8331H17.3331H16.3331V27.5V20.5V19.5ZM21.8335 24H19.3335V23H21.8335V24ZM23.8333 24H26.3333V23H23.8333V24ZM30.8334 24H28.3334V23H30.8334V24ZM32.8331 24H35.3331V23H32.8331V24ZM25.1894 34.0117C25.7815 33.0558 26.489 32.1811 26.9647 31.6621L27.3333 32L27.7018 31.6621C28.1775 32.1811 28.885 33.0558 29.4771 34.0117C30.0546 34.9441 30.5833 36.0486 30.5833 37C30.5833 39.2192 29.1631 40.75 27.3333 40.75C25.5034 40.75 24.0833 39.2192 24.0833 37C24.0833 36.0486 24.6119 34.9441 25.1894 34.0117ZM25.0833 37C25.0833 38.7808 26.1631 39.75 27.3333 39.75C28.5034 39.75 29.5833 38.7808 29.5833 37C29.5833 36.3514 29.1953 35.4559 28.6269 34.5383C28.2118 33.8681 27.7328 33.2366 27.3333 32.7597C26.9337 33.2366 26.4547 33.8681 26.0396 34.5383C25.4712 35.4559 25.0833 36.3514 25.0833 37Z" fill="url(#paint0_linear_95_1099)"/>
<defs>
<linearGradient id="paint0_linear_95_1099" x1="44.3333" y1="5" x2="3.67017" y2="12.1602" gradientUnits="userSpaceOnUse">
<stop stop-color="#E0DD00"/>
<stop offset="1" stop-color="#7DB928"/>
</linearGradient>
</defs>
</svg>
