<svg width="55" height="54" viewBox="0 0 55 54" fill="none" xmlns="http://www.w3.org/2000/svg">
<path d="M12.6667 42.5V48.5C12.6667 50.7091 14.4575 52.5 16.6667 52.5H39.6667C41.8758 52.5 43.6667 50.7091 43.6667 48.5V15.5C43.6667 13.2909 41.8758 11.5 39.6667 11.5H31.6667M12.6667 42.5V15.5C12.6667 13.2909 14.4575 11.5 16.6667 11.5H24.6667M12.6667 42.5C17.0953 40 22.0159 38.5 28.4127 38.5C34.8095 38.5 39.2381 40 43.6667 42.5M40.6667 45.5C40.6667 43.8431 39.3235 42.5 37.6667 42.5C36.0098 42.5 34.6667 43.8431 34.6667 45.5C34.6667 47.1569 36.0098 48.5 37.6667 48.5C39.3235 48.5 40.6667 47.1569 40.6667 45.5ZM40.6667 45.5H38.1667M28.1667 42.5C26.5098 42.5 25.1667 43.8431 25.1667 45.5C25.1667 47.1569 26.5098 48.5 28.1667 48.5C29.8235 48.5 31.1667 47.1569 31.1667 45.5C31.1667 43.8431 29.8235 42.5 28.1667 42.5ZM28.1667 42.5V45M15.6667 45.5C15.6667 47.1569 17.0098 48.5 18.6667 48.5C20.3235 48.5 21.6667 47.1569 21.6667 45.5C21.6667 43.8431 20.3235 42.5 18.6667 42.5C17.0098 42.5 15.6667 43.8431 15.6667 45.5ZM15.6667 45.5H18.1667M24.6667 11.5V9.5C24.6667 8.94772 25.1144 8.5 25.6667 8.5H26.1667M24.6667 11.5H31.6667M31.6667 11.5V9.5C31.6667 8.94772 31.219 8.5 30.6667 8.5H30.1667M26.1667 8.5V3C26.1667 2.44772 26.6144 2 27.1667 2H29.1667C29.719 2 30.1667 2.44772 30.1667 3V8.5M26.1667 8.5H30.1667M25.6667 32.6056C26.4745 32.857 27.4633 33 28.6667 33C29.7689 33 30.6912 32.8575 31.4592 32.6056M25.6667 32.6056C20.4332 30.9769 22.8004 24.7994 23.6667 23.5C24.4667 22.3 24.6667 21 24.6667 20.5C25.3333 20.6667 26.6667 21.4 26.6667 23C27.6667 21.5 28.6667 19.5 28.6667 18C31.1667 20 32.6667 22 31.6667 25.5C32.6667 25 33.6667 23.5 33.6667 22.5C34.5442 23.3775 36.9619 30.8005 31.4592 32.6056M25.6667 32.6056C25.6667 30 26.1667 28 28.6667 26.5C29.6667 27.5 31.7517 28.7112 31.4592 32.6056" stroke="url(#paint0_linear_95_565)"/>
<defs>
<linearGradient id="paint0_linear_95_565" x1="12.6667" y1="2" x2="50.1248" y2="7.3589" gradientUnits="userSpaceOnUse">
<stop stop-color="#E0DD00"/>
<stop offset="1" stop-color="#7DB928"/>
</linearGradient>
</defs>
</svg>
