<svg width="54" height="54" viewBox="0 0 54 54" fill="none" xmlns="http://www.w3.org/2000/svg">
<path fill-rule="evenodd" clip-rule="evenodd" d="M32.0267 9.07562C31.8986 7.87225 32.1532 6.52529 33.1535 5L33.9897 5.54843C33.1065 6.89513 32.9193 8.01307 33.0211 8.96974C33.1255 9.95023 33.5352 10.8028 33.9413 11.6379L33.9414 11.6382L33.9425 11.6405L33.9426 11.6406L33.9639 11.6845C34.3225 12.423 34.6786 13.1564 34.7658 13.9474C34.8588 14.7911 34.6459 15.6488 33.99 16.6511L33.9894 16.6521C33.8588 16.8507 33.9144 17.1176 34.1037 17.2463L33.5414 18.0732C32.8982 17.6358 32.7247 16.7557 33.1536 16.1031C33.7113 15.2506 33.8341 14.6221 33.7718 14.0569C33.7054 13.4546 33.4276 12.8697 33.0429 12.0772L33.0429 12.0772L33.042 12.0752L33.0418 12.0749L33.03 12.0507C32.6347 11.2378 32.1511 10.2434 32.0267 9.07562ZM25.8254 5C24.8251 6.52529 24.5705 7.87225 24.6986 9.07562C24.8229 10.2434 25.3065 11.2378 25.7019 12.0507L25.7137 12.0749L25.7138 12.0752L25.7148 12.0772L25.7148 12.0772C26.0995 12.8697 26.3773 13.4546 26.4437 14.0569C26.506 14.6221 26.3832 15.2506 25.8255 16.1031C25.3966 16.7557 25.5701 17.6358 26.2133 18.0732L26.7756 17.2463C26.5863 17.1176 26.5306 16.8507 26.6613 16.6521L26.6619 16.6511C27.3178 15.6488 27.5307 14.7911 27.4377 13.9474C27.3504 13.1564 26.9944 12.423 26.6358 11.6845L26.6144 11.6406L26.6144 11.6405L26.6133 11.6382L26.6131 11.6379C26.207 10.8028 25.7974 9.95023 25.693 8.96974C25.5911 8.01307 25.7784 6.89513 26.6616 5.54843L25.8254 5ZM18.6555 5C17.6551 6.52529 17.4006 7.87225 17.5287 9.07561C17.653 10.2434 18.1366 11.2378 18.532 12.0507L18.5438 12.0749L18.5439 12.0752L18.5449 12.0772L18.5449 12.0772C18.9296 12.8697 19.2073 13.4546 19.2738 14.0569C19.3361 14.6221 19.2132 15.2506 18.6555 16.1031C18.2266 16.7557 18.4002 17.6358 19.0433 18.0732L19.6057 17.2463C19.4163 17.1176 19.3607 16.8507 19.4913 16.6521L19.492 16.6511C20.1479 15.6488 20.3607 14.7911 20.2677 13.9474C20.1805 13.1564 19.8244 12.423 19.4659 11.6845L19.4445 11.6405L19.4434 11.6382L19.4432 11.6379C19.0371 10.8028 18.6275 9.95023 18.5231 8.96974C18.4212 8.01307 18.6085 6.89513 19.4917 5.54843L18.6555 5ZM11.5454 20.6658H42.4546C44.3927 20.6658 46 22.2774 46 24.292V40.9468C46 42.9615 44.3928 44.5731 42.4546 44.5731H15.2584H11.5454C9.6073 44.5731 8 42.9614 8 40.9468V24.292C8 22.2774 9.60723 20.6658 11.5454 20.6658ZM42.4546 19.6658H11.5454C9.03813 19.6658 7 21.742 7 24.292V40.9468C7 43.4968 9.03821 45.5731 11.5454 45.5731H14.8416V49.2743H15.8416V45.5731H38.1583V49.2743H39.1583V45.5731H42.4546C44.9619 45.5731 47 43.4968 47 40.9468V24.292C47 21.742 44.9618 19.6658 42.4546 19.6658ZM12.8438 41.731V23.4239H13.8438V41.731H12.8438ZM18.3398 23.4239V41.731H19.3398V23.4239H18.3398ZM23.8358 41.731V23.4239H24.8358V41.731H23.8358ZM29.166 23.4239V41.731H30.166V23.4239H29.166ZM34.6621 41.731V23.4239H35.6621V41.731H34.6621ZM40.1582 23.4239V41.731H41.1582V23.4239H40.1582Z" fill="url(#paint0_linear_95_1058)"/>
<defs>
<linearGradient id="paint0_linear_95_1058" x1="47" y1="5" x2="-0.228408" y2="14.9443" gradientUnits="userSpaceOnUse">
<stop stop-color="#E0DD00"/>
<stop offset="1" stop-color="#7DB928"/>
</linearGradient>
</defs>
</svg>
