<svg width="54" height="54" viewBox="0 0 54 54" fill="none" xmlns="http://www.w3.org/2000/svg">
<path fill-rule="evenodd" clip-rule="evenodd" d="M40.1588 2.00002L40.404 2.17029L43.8029 4.52965L43.6436 4.75917C43.7705 4.65564 43.8969 4.55554 44.023 4.45966C44.7623 3.89754 45.5401 3.43963 46.3924 3.2705L46.4406 3.26093H46.4897C48.0349 3.26093 49.3577 3.56672 50.3749 4.40787C51.3933 5.25001 52.0243 6.56142 52.3326 8.39691C52.6393 10.2227 52.6367 12.4794 52.4868 14.5615C52.3368 16.6454 52.0363 18.5929 51.7299 19.8089C51.1601 22.0706 51.1535 25.512 52.3135 28.965C52.9185 30.766 53.2529 32.504 52.7675 34.2703C52.2811 36.04 50.9983 37.7465 48.5715 39.5526C46.1244 41.3737 43.9776 42.1324 41.7136 42.7315C41.1711 42.875 40.6255 43.0088 40.0689 43.1452C38.3012 43.5785 36.4235 44.0387 34.1912 44.9248C31.2891 46.0767 29.4036 47.5141 27.7832 48.8297C27.6331 48.9515 27.4847 49.0729 27.3374 49.1933C25.9086 50.3621 24.5835 51.446 22.8696 52.0129C22.6378 52.0895 22.4099 52.1666 22.1874 52.2418C21.7137 52.4019 21.2645 52.5538 20.8542 52.6762C20.2506 52.8563 19.6752 52.991 19.1542 52.9995C18.6859 53.0072 18.0853 52.9547 17.4865 52.7448C16.5928 52.5919 15.8471 52.4364 15.2278 52.2584C14.2745 51.9845 13.5613 51.6416 13.0628 51.1185C12.7967 50.8394 12.6068 50.525 12.4705 50.1755C12.424 50.2812 12.3409 50.3713 12.2285 50.425L10.1905 51.3992L9.98635 51.4968L9.7783 51.4079L2.3055 48.2129L2.00206 48.0831V47.7531V35.6122V34.8547L2.69862 35.1525L9.96337 38.2585L11.7973 37.3819C11.8687 37.3478 11.9442 37.3321 12.0183 37.3329C12.002 36.8147 12.0117 36.3194 12.0401 35.8444L9.84964 36.8827L9.63801 36.983L9.42547 36.8846L2.29234 33.5833L2.00235 33.4491V33.1295V21.6848V21.378L2.27594 21.239L39.8925 2.13522L40.1588 2.00002ZM12.1474 34.6869L10.1355 35.6406V25.8949L11.7575 25.09C11.7736 25.1125 11.7897 25.1349 11.8055 25.1571C12.2087 25.7223 12.5605 26.266 12.717 26.8869L12.7217 26.9056L12.7278 26.924C13.2743 28.5508 13.0109 30.0475 12.6374 31.9008L12.598 32.0956C12.4365 32.8946 12.2635 33.7502 12.1474 34.6869ZM11.1795 24.2605L9.64667 25.0211L3.57445 21.7012L40.0791 3.16204L43.0748 5.24149C42.7919 5.48883 42.5069 5.74703 42.2195 6.00739L42.2195 6.00746C42.0709 6.14208 41.9217 6.27727 41.7718 6.41185C40.2147 7.80979 38.5113 9.2065 36.2641 9.76397C33.8749 10.3566 30.7332 11.247 27.8099 12.3627C24.9071 13.4705 22.144 14.8279 20.5772 16.3826C19.1966 17.7525 17.6823 18.1706 16.1333 18.5365C16.0385 18.5589 15.9432 18.5812 15.8476 18.6035C14.4069 18.9397 12.8873 19.2944 11.6608 20.5115C11.1599 21.0084 10.8414 21.4931 10.6959 21.9865C10.5473 22.4898 10.592 22.9572 10.7399 23.3881C10.8429 23.6881 11.0012 23.98 11.1795 24.2605ZM12.0831 38.3536C12.0915 38.4409 12.1006 38.5287 12.1105 38.6172C12.4077 41.2719 12.4008 41.959 12.3334 42.5611C12.3204 42.6767 12.305 42.7912 12.2884 42.9147C12.2109 43.49 12.1073 44.259 12.1073 46.2295V46.2643C12.1073 47.4149 12.1073 48.3653 12.2143 49.1337C12.2345 49.2789 12.2588 49.4198 12.2881 49.5564C12.1466 49.4633 11.9612 49.4444 11.7973 49.5228L10.4749 50.1549V39.1224L12.0831 38.3536ZM9.13548 35.6485V25.8813L3.00235 22.5281V32.81L9.13548 35.6485ZM9.47486 50.1906V39.1372L3.00206 36.3698V47.4231L9.47486 50.1906ZM17.7437 51.7742C18.1793 51.8478 18.6555 51.9219 19.1766 51.9987C19.548 51.9866 20.0034 51.8865 20.5682 51.718C20.9612 51.6007 21.3819 51.4584 21.8449 51.3019C22.0711 51.2254 22.3074 51.1455 22.5556 51.0635C24.0844 50.5578 25.2649 49.594 26.7233 48.4034C26.8637 48.2887 27.0067 48.172 27.1529 48.0533C28.8017 46.7146 30.78 45.2028 33.8222 43.9953C36.1249 43.0814 38.0904 42.5999 39.8691 42.1641L39.8691 42.1641C40.4148 42.0304 40.9429 41.901 41.4577 41.7648C43.6519 41.1842 45.6661 40.4683 47.9744 38.7504C50.303 37.0174 51.398 35.4798 51.8032 34.0053C52.2094 32.5276 51.9494 31.0214 51.3655 29.2834C50.1478 25.6583 50.1412 22.0216 50.7602 19.5646C51.0483 18.4212 51.3422 16.5347 51.4894 14.4897C51.6342 12.4789 51.6342 10.3519 51.3613 8.65323C51.1101 8.23883 50.8622 8.01028 50.6356 7.89151C50.4038 7.77 50.1495 7.73969 49.8471 7.7997C49.1975 7.92862 48.4133 8.45332 47.4785 9.23246C47.071 9.57211 46.6522 9.9446 46.2175 10.3312L46.2174 10.3313L46.059 10.4721C45.5703 10.9064 45.0635 11.3533 44.5475 11.7713C43.5245 12.6001 42.4188 13.3556 41.2762 13.6795C40.1021 14.0124 39.4044 14.2594 38.6006 14.5441L38.6006 14.5441C38.3633 14.6281 38.1167 14.7154 37.8458 14.8092C36.6572 15.2207 35.0377 15.7432 31.7596 16.6303C28.5519 17.4984 26.9868 18.499 25.9364 19.4022C25.5773 19.7111 25.287 19.9994 24.9979 20.2865L24.9978 20.2865L24.9977 20.2866C24.846 20.4373 24.6946 20.5876 24.5338 20.7404C24.0801 21.1714 23.5927 21.5778 22.9348 21.9041C21.6552 22.539 20.7844 22.5889 19.9716 22.6351L19.9697 22.6352C19.2028 22.6788 18.4933 22.7192 17.3961 23.2635C16.8833 23.5179 16.5613 23.7828 16.3692 24.0419C16.2408 24.215 16.1624 24.3958 16.1274 24.5907C16.1268 24.6914 16.1197 24.795 16.1058 24.9016C16.1077 26.6741 16.2614 27.8316 16.5145 28.6843C16.7654 29.5301 17.1214 30.1013 17.5728 30.6985C18.39 31.7797 18.2217 33.1552 17.876 34.4063C17.7094 35.0096 17.4882 35.6275 17.2763 36.2195L17.2382 36.3259C17.0118 36.9589 16.8005 37.5594 16.6587 38.1221C16.3781 39.2358 16.3786 40.0551 16.4489 40.8153C16.4704 41.0488 16.501 41.2908 16.5327 41.5415L16.5327 41.5417C16.6008 42.0802 16.6739 42.6588 16.6739 43.2803C16.6739 44.0596 16.5008 45.3421 16.345 46.4958L16.3396 46.5361C16.2596 47.1289 16.1835 47.6925 16.1327 48.161C16.08 48.6473 16.0614 48.9762 16.0769 49.128L16.0781 49.1401L16.0788 49.1522C16.1476 50.4494 16.6528 51.1318 17.2212 51.5085C17.3866 51.6181 17.5629 51.7054 17.7437 51.7742ZM49.7376 5.17851C50.2179 5.5757 50.6166 6.13674 50.9176 6.92108C50.5054 6.75322 50.0765 6.73466 49.6524 6.81883C48.7231 7.00327 47.7611 7.69512 46.8383 8.46431C46.4176 8.81497 45.9861 9.19875 45.5532 9.58372L45.5531 9.5838L45.3948 9.72458C44.9059 10.159 44.4143 10.5922 43.9179 10.9944C42.9161 11.8061 41.9414 12.4515 41.0035 12.7174C39.7962 13.0597 39.0652 13.3186 38.2556 13.6053C38.021 13.6884 37.7799 13.7738 37.5186 13.8642C36.356 14.2668 34.759 14.7826 31.4984 15.665C28.1673 16.5665 26.4632 17.6304 25.2844 18.6441C24.9002 18.9745 24.562 19.3099 24.2576 19.6117C24.1128 19.7553 23.9757 19.8912 23.845 20.0155C23.4256 20.4139 23.0214 20.7449 22.4904 21.0083C21.3932 21.5527 20.6837 21.593 19.9168 21.6366L19.9149 21.6367C19.102 21.6829 18.2313 21.7328 16.9517 22.3677C16.4289 22.6271 16.0086 22.9274 15.7007 23.2793C15.5532 23.0772 15.3731 22.8948 15.1695 22.7309C14.5407 22.2245 13.6623 21.8684 12.7643 21.5714C12.5523 21.5013 12.3508 21.4556 12.1605 21.4374C12.2221 21.3677 12.2901 21.2957 12.3651 21.2213C13.3844 20.2099 14.6408 19.9146 16.1389 19.5626L16.3632 19.5098C17.9349 19.1384 19.69 18.6717 21.2815 17.0924C22.6869 15.6979 25.2736 14.401 28.1664 13.2969C31.0388 12.2007 34.1385 11.3216 36.5048 10.7345C39.013 10.1123 40.8762 8.5598 42.4398 7.15596C42.599 7.01306 42.7544 6.87229 42.9068 6.73429C43.5145 6.18383 44.0735 5.67749 44.6283 5.2557C45.3023 4.7432 45.922 4.39462 46.5403 4.26105C47.9416 4.26772 48.9806 4.55253 49.7376 5.17851ZM14.5424 23.5098C14.9118 23.8072 15.1096 24.1264 15.126 24.5243C15.1112 24.6379 15.1045 24.7533 15.1058 24.8703C15.1059 26.7094 15.263 27.9823 15.5558 28.9688C15.8523 29.9682 16.2805 30.6471 16.775 31.3014C17.2839 31.9747 17.2494 32.9195 16.9122 34.14C16.7557 34.7062 16.5462 35.2916 16.3309 35.8932L16.2966 35.9892C16.0725 36.6158 15.8445 37.2608 15.689 37.8778C15.3752 39.1234 15.3747 40.0596 15.4531 40.9073C15.481 41.2097 15.5161 41.4844 15.5501 41.7499C15.614 42.2507 15.6739 42.7192 15.6739 43.2803C15.6739 43.9841 15.5104 45.2035 15.3486 46.4024L15.3483 46.4046L15.3482 46.4049C15.2689 46.9927 15.191 47.5697 15.1386 48.0532C15.0888 48.5123 15.0551 48.9411 15.0808 49.2164C15.1295 50.1057 15.3567 50.8072 15.7003 51.3517C15.6332 51.3338 15.5677 51.3156 15.504 51.2973C14.6182 51.0428 14.1054 50.763 13.7866 50.4286C13.4775 50.1043 13.2991 49.6737 13.2047 48.9958C13.1084 48.3041 13.1073 47.4227 13.1073 46.2295C13.1073 44.3248 13.2043 43.6053 13.2807 43.0375L13.2808 43.0372C13.2976 42.9119 13.3135 42.794 13.3272 42.6724C13.4084 41.9473 13.4014 41.1598 13.1043 38.5059C12.8258 36.0186 13.2194 34.07 13.5828 32.2712L13.6176 32.0984C13.986 30.271 14.316 28.5287 13.6818 26.6236C13.4732 25.8126 13.0229 25.1417 12.6197 24.5764C12.5691 24.5055 12.5197 24.4367 12.4716 24.3698C12.1193 23.8795 11.8386 23.4887 11.6955 23.0912C11.6756 22.9895 11.6658 22.8731 11.674 22.7638C11.6832 22.6417 11.7123 22.5605 11.7427 22.5148C11.7641 22.4827 11.7933 22.4538 11.8693 22.4383C11.9619 22.4194 12.142 22.4188 12.4503 22.5208C13.3356 22.8136 14.0641 23.1247 14.5424 23.5098Z" fill="url(#paint0_linear_95_530)"/>
<defs>
<linearGradient id="paint0_linear_95_530" x1="53" y1="2" x2="-6.64396" y2="15.8998" gradientUnits="userSpaceOnUse">
<stop stop-color="#E0DD00"/>
<stop offset="1" stop-color="#7DB928"/>
</linearGradient>
</defs>
</svg>
