<svg width="55" height="54" viewBox="0 0 55 54" fill="none" xmlns="http://www.w3.org/2000/svg">
<path fill-rule="evenodd" clip-rule="evenodd" d="M20.9421 6.5H21.4421H33.0825H33.5825V7V17.8495H49.8333H50.3333V18.3495V23.3322V23.8322H49.8333H48.9137V46.5H49.8333V47.5H48.4137H22.2938H17.0415H6.39477H4.83325V46.5H5.89477V23.8322H4.83325H4.33325V23.3322V18.3495V17.8495H4.83325H20.9421V7V6.5ZM21.9421 17.8495H32.5825V7.5H21.9421V17.8495ZM6.89477 23.8322V46.5H16.5415V33.5744V23.8322H6.89477ZM17.5415 23.8322V33.0744H22.2938H22.7938V33.5744V38.0146L38.4691 33.0973L38.7684 34.0515L22.7938 39.0627V46.5H47.9137V23.8322H17.5415ZM21.7938 46.5V38.6955V34.0744H17.5415V46.5H21.7938ZM25.2008 9.40657H25.7008C26.8225 9.40657 27.7531 9.46851 28.4041 9.78586C28.751 9.95499 29.0307 10.2011 29.2157 10.5463C29.3959 10.8826 29.4657 11.2746 29.4657 11.7059C29.4657 12.1287 29.4073 12.5196 29.2484 12.8616C29.0846 13.2142 28.828 13.4845 28.4863 13.6798C27.9357 13.9945 27.1655 14.1104 26.2008 14.1371V15.5813H25.2008V13.6436V9.90657V9.40657ZM26.2008 13.1364C27.1088 13.1087 27.6602 13.0001 27.9901 12.8116C28.163 12.7128 28.2702 12.5938 28.3415 12.4403C28.4177 12.2763 28.4657 12.0443 28.4657 11.7059C28.4657 11.3759 28.4113 11.1624 28.3343 11.0186C28.262 10.8837 28.1513 10.7751 27.9659 10.6847C27.6159 10.5141 27.0597 10.4331 26.2008 10.4122V13.1364ZM5.33325 18.8495V22.8322H6.39477H17.0415H48.4137H49.3333V18.8495H33.0825H21.4421H5.33325ZM10.5793 34.8737H11.0793H13.3506H13.8506V35.3737V38.6955V39.1955H13.3506H11.0793H10.5793V38.6955V35.3737V34.8737ZM11.5793 35.8737V38.1955H12.8506V35.8737H11.5793Z" fill="url(#paint0_linear_95_536)"/>
<defs>
<linearGradient id="paint0_linear_95_536" x1="50.3333" y1="6.5" x2="-2.75748" y2="20.382" gradientUnits="userSpaceOnUse">
<stop stop-color="#E0DD00"/>
<stop offset="1" stop-color="#7DB928"/>
</linearGradient>
</defs>
</svg>
