<svg width="55" height="54" viewBox="0 0 55 54" fill="none" xmlns="http://www.w3.org/2000/svg">
<path d="M39.4765 35.0275C40.042 34.8543 40.6424 34.7612 41.2645 34.7612C42.2861 34.7612 43.2492 35.0124 44.0954 35.4565M39.4765 35.0275C38.0146 35.475 36.7856 36.4571 36.0167 37.7463M39.4765 35.0275V22.6716M44.0954 35.4565C46.0439 36.4791 47.3734 38.5243 47.3734 40.8806C47.3734 44.2602 44.6383 47 41.2645 47C38.2462 47 35.7392 44.8073 35.2443 41.9254M44.0954 35.4565V22.6716M8.93211 34.9445C8.45521 34.8248 7.95609 34.7612 7.44214 34.7612C6.42051 34.7612 5.45746 35.0124 4.61119 35.4565M8.93211 34.9445C10.5247 35.3443 11.8693 36.3704 12.69 37.7463M8.93211 34.9445V22.6716M4.61119 35.4565C2.6627 36.4791 1.33325 38.5243 1.33325 40.8806C1.33325 44.2602 4.06829 47 7.44214 47C10.4604 47 12.9674 44.8073 13.4623 41.9254M4.61119 35.4565V17.1045C4.61119 16.5522 5.0589 16.1045 5.61119 16.1045H7.93211C8.48439 16.1045 8.93211 16.5522 8.93211 17.1045V18.6418M12.69 37.7463C13.2368 38.663 13.551 39.735 13.551 40.8806C13.551 41.2368 13.5206 41.5859 13.4623 41.9254M12.69 37.7463H36.0167M36.0167 37.7463C35.4698 38.663 35.1556 39.735 35.1556 40.8806C35.1556 41.2368 35.186 41.5859 35.2443 41.9254M13.4623 41.9254H35.2443M49.3103 22.6716V26.7796C49.3103 27.8905 50.2109 28.791 51.3218 28.791V28.791C52.4327 28.791 53.3333 27.8905 53.3333 26.7796V13.4891C53.3333 12.3782 52.4327 11.4776 51.3218 11.4776V11.4776C50.2109 11.4776 49.3103 12.3782 49.3103 13.4891V18.6418M49.3103 22.6716H44.0954M49.3103 22.6716V18.6418M44.0954 22.6716V18.6418M49.3103 18.6418H44.0954M44.0954 18.6418V17.1045C44.0954 16.5522 43.6477 16.1045 43.0954 16.1045H40.4765C39.9242 16.1045 39.4765 16.5522 39.4765 17.1045V18.6418M36.4966 16.1045H12.061M36.4966 16.1045L33.8316 8.34998C33.554 7.5423 32.7942 7 31.9402 7H16.6175C15.7634 7 15.0036 7.5423 14.726 8.34998L12.061 16.1045M36.4966 16.1045V18.6418M12.061 16.1045V18.6418M8.93211 18.6418H12.061M8.93211 18.6418V22.6716M12.061 18.6418V22.6716M12.061 22.6716V22.6716C12.061 29.3485 17.4737 34.7612 24.1506 34.7612H24.407C31.0839 34.7612 36.4966 29.3485 36.4966 22.6716V22.6716M12.061 22.6716H8.93211M39.4765 22.6716H36.4966M39.4765 22.6716V18.6418M36.4966 22.6716V18.6418M36.4966 18.6418H39.4765M9.97509 40.8806C9.97509 42.2819 8.84105 43.4179 7.44214 43.4179C6.04322 43.4179 4.90918 42.2819 4.90918 40.8806C4.90918 39.4793 6.04322 38.3433 7.44214 38.3433C8.84105 38.3433 9.97509 39.4793 9.97509 40.8806ZM43.7974 40.8806C43.7974 42.2819 42.6634 43.4179 41.2645 43.4179C39.8656 43.4179 38.7315 42.2819 38.7315 40.8806C38.7315 39.4793 39.8656 38.3433 41.2645 38.3433C42.6634 38.3433 43.7974 39.4793 43.7974 40.8806Z" stroke="url(#paint0_linear_95_573)"/>
<defs>
<linearGradient id="paint0_linear_95_573" x1="1.33325" y1="7" x2="60.0614" y2="24.793" gradientUnits="userSpaceOnUse">
<stop stop-color="#E0DD00"/>
<stop offset="1" stop-color="#7DB928"/>
</linearGradient>
</defs>
</svg>
