<svg width="55" height="54" viewBox="0 0 55 54" fill="none" xmlns="http://www.w3.org/2000/svg">
<path fill-rule="evenodd" clip-rule="evenodd" d="M8.09304 3.56319L7.89268 3.45166L7.67743 3.53073L1.49389 5.80234L1.16631 5.92268V6.27167V30.6914V30.9808L1.41725 31.125L15.7518 39.3595L15.9856 39.4938L16.2263 39.3723L21.8477 36.5328L22.1223 36.3941V36.0865V32.9659L27.2151 29.9872L27.4626 29.8424V29.5556V22.4569V22.17L27.2151 22.0253L22.1223 19.0466V11.6667V11.3728L21.8655 11.2299L8.09304 3.56319ZM26.4626 29.2688L22.1223 31.8074V25.8671L26.4626 23.3285V29.2688ZM25.9723 22.4569L21.6159 25.0048L17.0303 22.4569L21.6159 19.9089L25.9723 22.4569ZM16.5009 14.8138V21.607L21.1223 19.0392V12.4795L16.5009 14.8138ZM16.0161 13.9384L20.5558 11.6453L7.80702 4.54847L2.84414 6.37165L16.0161 13.9384ZM2.16631 30.402V7.13553L15.5009 14.7956V22.4569V22.751L15.758 22.8939L21.1223 25.8745V31.8293L16.2437 29.1185L15.5009 28.7058V29.5556V38.0621L2.16631 30.402ZM16.5009 30.4054L21.1223 32.9732V35.7789L16.5009 38.1132V30.4054ZM48.2518 14.3351L48.0354 14.2367L47.8225 14.3424L31.2393 22.577L30.9617 22.7148V23.0248V29.8396V30.1472L31.2363 30.2859L36.5831 32.9867V35.7789L31.2363 38.4797L30.9617 38.6184V38.926V47.1606V47.4682L31.2363 47.6069L36.8577 50.4464L37.0888 50.5631L37.3175 50.4417L53.9007 41.6393L54.1663 41.4983V41.1976V17.3458V17.0238L53.8732 16.8906L48.2518 14.3351ZM41.3613 30.958L37.5831 32.9787V35.802L41.3613 38.0473V30.958ZM32.6177 38.9023L37.0636 36.6565L40.844 38.9031L37.0652 40.9242L32.6177 38.9023ZM31.9617 39.7026L36.5831 41.8035V49.1874L31.9617 46.853V39.7026ZM37.5831 41.7812V49.1686L53.1663 40.897V18.1773L37.5831 26.4489V31.8447L41.6255 29.6827L42.3613 29.2891V30.1236V38.926V39.2256L42.0971 39.3669L37.5831 41.7812ZM48.0543 15.3438L52.5344 17.3805L37.0886 25.5793L32.5359 23.0496L48.0543 15.3438ZM36.5831 31.8664V26.4424L31.9617 23.8746V29.532L36.5831 31.8664Z" fill="url(#paint0_linear_95_525)"/>
<defs>
<linearGradient id="paint0_linear_95_525" x1="54.1663" y1="3.45166" x2="-6.98222" y2="19.4839" gradientUnits="userSpaceOnUse">
<stop stop-color="#E0DD00"/>
<stop offset="1" stop-color="#7DB928"/>
</linearGradient>
</defs>
</svg>
