<svg width="55" height="54" viewBox="0 0 55 54" fill="none" xmlns="http://www.w3.org/2000/svg">
<path fill-rule="evenodd" clip-rule="evenodd" d="M12.1539 7.36937C12.1517 6.87357 12.5532 6.46766 13.0533 6.46543L43.9315 6.32765C44.4317 6.32541 44.8368 6.72772 44.839 7.22352L45.0139 46.4233C45.0161 46.9191 44.6146 47.325 44.1144 47.3272L13.2363 47.465C12.7361 47.4673 12.331 47.0649 12.3288 46.5691L12.2526 29.4999H14.0615L14.0751 32.5613C14.0781 33.2255 14.6198 33.759 15.2821 33.756L25.2869 33.7114L41.9498 33.637C42.6124 33.6341 43.149 33.0956 43.1461 32.4316L43.1442 32.0168L43.1442 10.5565C43.5364 9.58256 42.8211 8.49994 41.7512 8.49994H15.4513C14.8831 8.49994 14.3637 8.82094 14.1096 9.32912L12.1798 13.1887L12.1539 7.36937ZM11.1887 15.1711L11.1539 7.37383C11.1492 6.32335 11.9988 5.47013 13.0489 5.46544L43.927 5.32766C44.9771 5.32297 45.8343 6.16858 45.839 7.21906L46.0139 46.4188C46.0186 47.4693 45.169 48.3225 44.1189 48.3272L13.2407 48.465C12.1907 48.4697 11.3335 47.6241 11.3288 46.5736L11.2526 29.4999H6.45129C5.33622 29.4999 4.61097 28.3265 5.10965 27.3291L11.1887 15.1711ZM42.1442 12.6685L42.1442 21.2123L39.3928 18.4609L42.1442 12.6685ZM38.9374 19.4197L42.1021 22.5844L42.1442 32.0204V32.4336L42.1461 32.4336L42.1461 32.4361C42.1466 32.5457 42.0579 32.6365 41.9454 32.637L25.4892 32.7105L22.2416 29.4999H33.2012C33.7803 29.4999 34.3076 29.1666 34.5561 28.6435L38.9374 19.4197ZM20.8192 29.4999L24.0732 32.7168L15.2776 32.756C15.1653 32.7565 15.0756 32.6663 15.0751 32.5569L15.0615 29.4999H20.8192ZM15.0917 36.6847C15.0912 36.5756 15.1799 36.4845 15.2924 36.4839L41.9602 36.365C42.0728 36.3645 42.1622 36.4547 42.1627 36.5639L42.1973 44.3356C42.1978 44.4454 42.1089 44.5363 41.9966 44.5368L15.3289 44.6558C15.2167 44.6563 15.1268 44.5661 15.1264 44.4564L15.0917 36.6847ZM15.2879 35.484C14.6258 35.4869 14.0887 36.0251 14.0917 36.6891L14.1264 44.4609C14.1293 45.1248 14.6709 45.6588 15.3333 45.6558L42.0011 45.5368C42.6639 45.5339 43.2003 44.9949 43.1973 44.3311L43.1627 36.5594C43.1597 35.8955 42.6182 35.362 41.9557 35.365L15.2879 35.484ZM16.9437 11.0481L16.9442 11.0481L37.3807 10.9569L37.3813 10.9569C37.7937 10.9555 38.1784 11.1654 38.3998 11.5138C38.6221 11.8628 38.6481 12.3007 38.4705 12.6732L38.4704 12.6733L32.1091 26.0019L32.109 26.0021C31.9105 26.4177 31.4913 26.6834 31.0304 26.6854L10.5939 26.7766C10.1809 26.7785 9.7957 26.568 9.57453 26.2196C9.35313 25.8712 9.32629 25.4333 9.50423 25.0605L9.50425 25.0604L15.8655 11.7319C16.0641 11.3156 16.4835 11.0506 16.9437 11.0481ZM37.3848 11.9569L16.9489 12.0481C16.8711 12.0486 16.801 12.0934 16.768 12.1626L16.768 12.1626L10.4067 25.4912L10.4067 25.4913C10.3774 25.5526 10.3816 25.6252 10.4185 25.6832L10.4188 25.6836C10.4554 25.7414 10.5199 25.7769 10.5894 25.7766L31.026 25.6854C31.1033 25.6851 31.1736 25.6404 31.2067 25.571L37.5678 12.2428C37.5975 12.1806 37.5929 12.1084 37.5563 12.051L37.5559 12.0503C37.5191 11.9923 37.4547 11.9567 37.3848 11.9569ZM15.0041 9.77633C15.0888 9.60694 15.2619 9.49994 15.4513 9.49994H41.7512C42.1185 9.49994 42.3604 9.8827 42.2028 10.2145L33.6528 28.2145C33.57 28.3888 33.3942 28.4999 33.2012 28.4999H6.45129C6.07959 28.4999 5.83785 28.1088 6.00407 27.7763L15.0041 9.77633Z" fill="url(#paint0_linear_95_490)"/>
<defs>
<linearGradient id="paint0_linear_95_490" x1="46.0139" y1="5.32764" x2="-2.24563" y2="16.0344" gradientUnits="userSpaceOnUse">
<stop stop-color="#E0DD00"/>
<stop offset="1" stop-color="#7DB928"/>
</linearGradient>
</defs>
</svg>
